<svg width="250" height="250" viewBox="0 0 250 250" fill="none" xmlns="http://www.w3.org/2000/svg">
<path d="M37.9669 73H196.51C198.701 73 200.477 74.7662 200.477 76.9449V208.375H37.9669C35.776 208.375 34 206.609 34 204.43V76.9449C34 74.7662 35.776 73 37.9669 73Z" stroke="#184B5B" stroke-width="4" stroke-miterlimit="10"/>
<path d="M34 93.9825H200.482" stroke="#184B5B" stroke-width="4" stroke-miterlimit="10"/>
<path d="M173.311 83.9241H190.656" stroke="#184B5B" stroke-width="4" stroke-miterlimit="10" stroke-linecap="round"/>
<path d="M157.707 83.9241H166.374" stroke="#184B5B" stroke-width="4" stroke-miterlimit="10" stroke-linecap="round"/>
<path d="M44.9849 160.956H126.488" stroke="#184B5B" stroke-width="4" stroke-miterlimit="10" stroke-linecap="round"/>
<path d="M49.0276 118.704H82.2704" stroke="#184B5B" stroke-width="4" stroke-miterlimit="10" stroke-linecap="round"/>
<path d="M49.0276 127.675H63.1899" stroke="#184B5B" stroke-width="4" stroke-miterlimit="10" stroke-linecap="round"/>
<path d="M49.0276 108.972H63.1899" stroke="#184B5B" stroke-width="4" stroke-miterlimit="10" stroke-linecap="round"/>
<path d="M160.813 106.99H184.225" stroke="#184B5B" stroke-width="4" stroke-miterlimit="10" stroke-linecap="round"/>
<path d="M160.813 115.826H184.225" stroke="#184B5B" stroke-width="4" stroke-miterlimit="10" stroke-linecap="round"/>
<path d="M49.0276 184.525H126.488" stroke="#184B5B" stroke-width="4" stroke-miterlimit="10"/>
<path d="M68.8265 108.972H82.9889" stroke="#184B5B" stroke-width="4" stroke-miterlimit="10" stroke-linecap="round"/>
<path d="M49.9738 140.688H60.8018C61.3229 140.688 61.748 141.11 61.748 141.629V160.956H49.0327V141.629C49.0327 141.11 49.4577 140.688 49.9789 140.688H49.9738Z" stroke="#184B5B" stroke-width="4" stroke-miterlimit="10"/>
<path d="M70.4963 127.675H81.3242C81.8454 127.675 82.2704 128.098 82.2704 128.616V160.956H69.5552V128.616C69.5552 128.098 69.9802 127.675 70.5014 127.675H70.4963Z" stroke="#184B5B" stroke-width="4" stroke-miterlimit="10"/>
<path d="M90.7253 108.972H101.553C102.074 108.972 102.499 109.395 102.499 109.913V160.956H89.7842V109.913C89.7842 109.395 90.2092 108.972 90.7304 108.972H90.7253Z" stroke="#184B5B" stroke-width="4" stroke-miterlimit="10"/>
<path d="M110.383 127.675H121.21C121.732 127.675 122.157 128.098 122.157 128.616V160.956H109.441V128.616C109.441 128.098 109.866 127.675 110.388 127.675H110.383Z" stroke="#184B5B" stroke-width="4" stroke-miterlimit="10"/>
<path d="M150.476 190.271C168.196 190.271 182.56 175.986 182.56 158.364C182.56 140.743 168.196 126.458 150.476 126.458C132.757 126.458 118.392 140.743 118.392 158.364C118.392 175.986 132.757 190.271 150.476 190.271Z" fill="white" stroke="#184B5B" stroke-width="4" stroke-miterlimit="10"/>
<path d="M175.918 177.531L169.292 184.121L205.768 220.395L212.394 213.805L175.918 177.531Z" fill="white" stroke="#184B5B" stroke-width="4" stroke-miterlimit="10"/>
<path d="M150.476 181.073C163.088 181.073 173.311 170.906 173.311 158.364C173.311 145.823 163.088 135.656 150.476 135.656C137.865 135.656 127.641 145.823 127.641 158.364C127.641 170.906 137.865 181.073 150.476 181.073Z" fill="white" stroke="#184B5B" stroke-width="4" stroke-miterlimit="10"/>
<path d="M151.923 158.007C155.914 158.007 159.149 154.79 159.149 150.822C159.149 146.853 155.914 143.636 151.923 143.636C147.933 143.636 144.698 146.853 144.698 150.822C144.698 154.79 147.933 158.007 151.923 158.007Z" fill="white" stroke="#184B5B" stroke-width="4" stroke-miterlimit="10"/>
<path d="M54.5225 191.71C58.513 191.71 61.7479 188.493 61.7479 184.525C61.7479 180.556 58.513 177.339 54.5225 177.339C50.532 177.339 47.2971 180.556 47.2971 184.525C47.2971 188.493 50.532 191.71 54.5225 191.71Z" fill="white" stroke="#184B5B" stroke-width="4" stroke-miterlimit="10"/>
<path d="M91.8081 191.71C95.7986 191.71 99.0335 188.493 99.0335 184.525C99.0335 180.556 95.7986 177.339 91.8081 177.339C87.8177 177.339 84.5828 180.556 84.5828 184.525C84.5828 188.493 87.8177 191.71 91.8081 191.71Z" fill="white" stroke="#184B5B" stroke-width="4" stroke-miterlimit="10"/>
<path d="M129.382 191.71C133.373 191.71 136.607 188.493 136.607 184.525C136.607 180.556 133.373 177.339 129.382 177.339C125.392 177.339 122.157 180.556 122.157 184.525C122.157 188.493 125.392 191.71 129.382 191.71Z" fill="white" stroke="#184B5B" stroke-width="4" stroke-miterlimit="10"/>
<path d="M189.17 192.036L183.871 197.305C182.893 198.278 182.972 199.933 184.047 201.003L204.951 221.79C206.026 222.86 207.691 222.938 208.669 221.966L213.968 216.696C214.946 215.723 214.867 214.068 213.792 212.999L192.888 192.211C191.813 191.142 190.148 191.063 189.17 192.036Z" fill="white" stroke="#184B5B" stroke-width="4" stroke-miterlimit="10"/>
</svg>
