<svg width="250" height="250" viewBox="0 0 250 250" fill="none" xmlns="http://www.w3.org/2000/svg">
<path d="M192.556 192H57.4444C56.6467 192 56 192.872 56 193.948V205.052C56 206.128 56.6467 207 57.4444 207H192.556C193.353 207 194 206.128 194 205.052V193.948C194 192.872 193.353 192 192.556 192Z" stroke="#184B5B" stroke-width="5" stroke-miterlimit="10"/>
<path d="M68 192V96.9388C68 95.8699 68.8557 95 69.9071 95H83.0929C84.1443 95 85 95.8699 85 96.9388V192H68.0046H68Z" stroke="#184B5B" stroke-width="5" stroke-miterlimit="10"/>
<path d="M99 192V120.953C99 119.876 99.8557 119 100.907 119H114.093C115.144 119 116 119.876 116 120.953V192H99.0045H99Z" stroke="#184B5B" stroke-width="5" stroke-miterlimit="10"/>
<path d="M131 192V144.959C131 143.879 131.856 143 132.907 143H146.093C147.144 143 148 143.879 148 144.959V192H131.005H131Z" stroke="#184B5B" stroke-width="5" stroke-miterlimit="10"/>
<path d="M162 192V169.919C162 168.861 162.856 168 163.907 168H177.093C178.144 168 179 168.861 179 169.919V192H162.005H162Z" stroke="#184B5B" stroke-width="5" stroke-miterlimit="10"/>
<path d="M97.939 43.148C97.4684 41.85 96.0347 41.1791 94.7366 41.6497C93.4386 42.1202 92.7677 43.5539 93.2383 44.852L97.939 43.148ZM191.779 120.362L176.548 95.84L162.926 121.292L191.779 120.362ZM95.5886 44C93.2383 44.852 93.239 44.854 93.2398 44.8561C93.2401 44.8569 93.2409 44.8591 93.2415 44.8608C93.2427 44.8642 93.2441 44.868 93.2457 44.8722C93.2488 44.8806 93.2526 44.8908 93.2571 44.9027C93.266 44.9264 93.2777 44.957 93.2924 44.9943C93.3216 45.069 93.3625 45.1706 93.4165 45.2986C93.5245 45.5547 93.6847 45.9162 93.9082 46.3785C94.3552 47.3031 95.0552 48.63 96.0967 50.3215C98.1799 53.7049 101.627 58.5424 107.143 64.5338C118.175 76.5156 137.478 93.105 170.702 111.917L173.165 107.566C140.312 88.9637 121.443 72.6823 110.822 61.147C105.511 55.3798 102.261 50.797 100.354 47.7C99.4007 46.1511 98.7822 44.9727 98.4096 44.202C98.2233 43.8167 98.0984 43.5331 98.0236 43.3559C97.9863 43.2673 97.9615 43.2053 97.9478 43.1705C97.941 43.1531 97.937 43.1424 97.9356 43.1387C97.9348 43.1368 97.9348 43.1366 97.9354 43.1382C97.9357 43.1389 97.9361 43.1402 97.9367 43.1418C97.937 43.1426 97.9376 43.1442 97.9377 43.1446C97.9383 43.1462 97.939 43.148 95.5886 44Z" fill="#184B5B"/>
</svg>
