<svg width="250" height="250" viewBox="0 0 250 250" fill="none" xmlns="http://www.w3.org/2000/svg">
<g clip-path="url(#clip0_166_238)">
<path d="M124.997 212.259C163.805 212.259 195.265 180.732 195.265 141.841C195.265 102.95 163.805 71.4222 124.997 71.4222C86.1898 71.4222 54.7299 102.95 54.7299 141.841C54.7299 180.732 86.1898 212.259 124.997 212.259Z" stroke="#184B5B" stroke-width="6" stroke-linecap="round" stroke-linejoin="round"/>
<path d="M70.203 99.5493C76.1213 101.934 77.5841 104.876 80.3038 110.658C87.4016 125.751 78.7688 144.339 84.3781 160.047" stroke="#184B5B" stroke-width="6" stroke-linecap="round" stroke-linejoin="round"/>
<path d="M110.209 74.6226C111.281 88.3428 113.686 98.2846 118.008 111.349C118.858 113.92 120.084 116.79 122.654 117.621C125.028 118.385 127.511 117.074 129.7 115.881C135.021 112.986 141.568 110.57 146.945 113.362C150.139 115.019 152.199 118.189 154.558 120.904C161.8 129.251 173.034 133.948 184.046 133.241" stroke="#184B5B" stroke-width="6" stroke-linecap="round" stroke-linejoin="round"/>
<path d="M103.678 207.711C117.23 201.151 124.276 190.295 128.165 175.723C129.314 171.413 130.107 166.623 133.445 163.67C137.231 160.32 143.123 160.594 147.749 162.622C152.374 164.651 156.196 168.12 160.414 170.907C168.383 176.167 174.512 178.898 184.052 178.805" stroke="#184B5B" stroke-width="6" stroke-linecap="round" stroke-linejoin="round"/>
<path d="M145.771 39.176C145.874 39.176 145.977 39.176 146.075 39.176C146.116 42.6602 145.596 48.1886 142.402 51.9207C139.981 54.7442 136.37 56.1224 131.354 56.1224C130.679 56.1224 129.973 56.0966 129.247 56.045C128.871 50.8057 129.855 46.7743 132.183 44.0385C135.794 39.8057 142.248 39.176 145.771 39.176ZM145.771 35C137.895 35 122.01 37.6739 125.492 59.808C127.619 60.1435 129.571 60.2984 131.354 60.2984C153.966 60.2984 149.974 35.2684 149.974 35.2684C149.974 35.2684 148.279 35 145.771 35Z" fill="#184B5B"/>
<path d="M138 48L128.109 57.1806" stroke="#184B5B" stroke-width="4" stroke-linecap="round" stroke-linejoin="round"/>
<path d="M104.229 39.176C107.752 39.176 114.206 39.8057 117.817 44.0385C120.15 46.7743 121.134 50.8005 120.753 56.045C120.027 56.0966 119.321 56.1224 118.646 56.1224C113.63 56.1224 110.014 54.7494 107.598 51.9207C104.404 48.1886 103.884 42.6551 103.925 39.176C104.023 39.176 104.126 39.176 104.229 39.176ZM104.229 35C101.721 35 100.026 35.2684 100.026 35.2684C100.026 35.2684 96.0395 60.2984 118.646 60.2984C120.429 60.2984 122.381 60.1435 124.508 59.808C127.99 37.6739 112.105 35 104.229 35Z" fill="#184B5B"/>
<path d="M112.5 48L121.515 56.809" stroke="#184B5B" stroke-width="4" stroke-linecap="round" stroke-linejoin="round"/>
<path d="M124.997 57.4232V68.9239" stroke="#184B5B" stroke-width="6" stroke-linecap="round" stroke-linejoin="round"/>
</g>
<defs>
<clipPath id="clip0_166_238">
<rect width="146" height="180" fill="white" transform="translate(52 35)"/>
</clipPath>
</defs>
</svg>
