<svg width="630" height="644" viewBox="0 0 630 644" fill="none" xmlns="http://www.w3.org/2000/svg">
<path d="M151 64L51 163" stroke="white" stroke-width="3" stroke-linecap="round"/>
<path d="M36 178L2 212" stroke="white" stroke-width="3" stroke-linecap="round"/>
<path d="M102 194V643" stroke="white" stroke-width="3"/>
<path d="M149 147H484.5V219.5" stroke="white" stroke-width="3"/>
<path d="M293 2L102 193" stroke="#FDD856" stroke-width="3" stroke-linecap="round"/>
<path d="M137 642.5H484.5V552" stroke="#FDD856" stroke-width="3"/>
<g filter="url(#filter0_d_274_15)">
<path d="M225.904 309.968C219.744 309.968 214.845 308.237 211.208 304.776C207.629 301.256 205.84 296.533 205.84 290.608V265.792C205.84 259.925 207.629 255.291 211.208 251.888C214.845 248.427 219.744 246.696 225.904 246.696C232.064 246.696 236.963 248.427 240.6 251.888C244.296 255.291 246.144 259.925 246.144 265.792V290.608C246.144 296.533 244.296 301.256 240.6 304.776C236.963 308.237 232.064 309.968 225.904 309.968ZM225.904 301.08C228.955 301.08 231.389 300.2 233.208 298.44C235.027 296.621 235.936 294.187 235.936 291.136V265.44C235.936 262.389 235.027 259.984 233.208 258.224C231.389 256.405 228.955 255.496 225.904 255.496C222.912 255.496 220.507 256.405 218.688 258.224C216.928 259.984 216.048 262.389 216.048 265.44V291.136C216.048 294.187 216.928 296.621 218.688 298.44C220.507 300.2 222.912 301.08 225.904 301.08ZM280.32 309.968C274.16 309.968 269.261 308.237 265.624 304.776C262.045 301.256 260.256 296.533 260.256 290.608V265.792C260.256 259.925 262.045 255.291 265.624 251.888C269.261 248.427 274.16 246.696 280.32 246.696C286.48 246.696 291.378 248.427 295.016 251.888C298.712 255.291 300.56 259.925 300.56 265.792V290.608C300.56 296.533 298.712 301.256 295.016 304.776C291.378 308.237 286.48 309.968 280.32 309.968ZM280.32 301.08C283.37 301.08 285.805 300.2 287.624 298.44C289.442 296.621 290.352 294.187 290.352 291.136V265.44C290.352 262.389 289.442 259.984 287.624 258.224C285.805 256.405 283.37 255.496 280.32 255.496C277.328 255.496 274.922 256.405 273.104 258.224C271.344 259.984 270.464 262.389 270.464 265.44V291.136C270.464 294.187 271.344 296.621 273.104 298.44C274.922 300.2 277.328 301.08 280.32 301.08ZM350.575 278.64C352.159 281.632 352.951 285.269 352.951 289.552C352.951 293.131 352.365 296.269 351.191 298.968C349.783 302.371 347.554 305.011 344.503 306.888C341.511 308.707 337.903 309.616 333.679 309.616C329.279 309.616 325.525 308.619 322.415 306.624C319.306 304.571 317.077 301.725 315.727 298.088C314.789 295.624 314.319 292.749 314.319 289.464V262.624C314.319 259.456 315.111 256.669 316.695 254.264C318.279 251.859 320.479 250.011 323.295 248.72C326.17 247.371 329.455 246.696 333.151 246.696C336.73 246.696 339.898 247.341 342.655 248.632C345.471 249.923 347.642 251.741 349.167 254.088C350.751 256.435 351.543 259.133 351.543 262.184V264.12C351.543 264.413 351.426 264.677 351.191 264.912C351.015 265.088 350.781 265.176 350.487 265.176H342.391C342.098 265.176 341.834 265.088 341.599 264.912C341.423 264.677 341.335 264.413 341.335 264.12V263.504C341.335 261.157 340.543 259.251 338.959 257.784C337.434 256.259 335.469 255.496 333.063 255.496C330.599 255.496 328.546 256.288 326.903 257.872C325.319 259.397 324.527 261.392 324.527 263.856V273.448C324.527 273.624 324.586 273.741 324.703 273.8C324.821 273.859 324.938 273.829 325.055 273.712C327.519 271.307 330.922 270.104 335.263 270.104C338.725 270.104 341.746 270.837 344.327 272.304C346.967 273.771 349.05 275.883 350.575 278.64ZM341.423 295.976C342.303 294.216 342.743 292.133 342.743 289.728C342.743 287.088 342.245 284.829 341.247 282.952C339.605 280.136 337.053 278.728 333.591 278.728C329.954 278.728 327.373 280.195 325.847 283.128C324.967 284.888 324.527 287.176 324.527 289.992C324.527 292.397 324.909 294.363 325.671 295.888C327.079 299.115 329.719 300.728 333.591 300.728C337.287 300.728 339.898 299.144 341.423 295.976ZM401.377 258.312C402.316 260.776 402.785 263.651 402.785 266.936V293.776C402.785 296.944 401.993 299.731 400.409 302.136C398.825 304.541 396.596 306.419 393.721 307.768C390.905 309.059 387.649 309.704 383.953 309.704C380.375 309.704 377.177 309.059 374.361 307.768C371.604 306.477 369.433 304.659 367.849 302.312C366.324 299.965 365.561 297.267 365.561 294.216V292.28C365.561 291.987 365.649 291.752 365.825 291.576C366.06 291.341 366.324 291.224 366.617 291.224H374.713C375.007 291.224 375.241 291.341 375.417 291.576C375.652 291.752 375.769 291.987 375.769 292.28V292.896C375.769 295.243 376.532 297.179 378.057 298.704C379.583 300.171 381.548 300.904 383.953 300.904C386.476 300.904 388.529 300.141 390.113 298.616C391.756 297.032 392.577 295.008 392.577 292.544V282.864C392.577 282.688 392.519 282.571 392.401 282.512C392.284 282.453 392.167 282.483 392.049 282.6C389.527 285.064 386.095 286.296 381.753 286.296C378.292 286.296 375.241 285.563 372.601 284.096C370.02 282.629 367.996 280.517 366.529 277.76C364.887 274.827 364.065 271.189 364.065 266.848C364.065 263.269 364.652 260.131 365.825 257.432C367.233 254.088 369.463 251.477 372.513 249.6C375.564 247.723 379.172 246.784 383.337 246.784C387.737 246.784 391.492 247.811 394.601 249.864C397.769 251.859 400.028 254.675 401.377 258.312ZM391.169 273.272C392.108 271.395 392.577 269.107 392.577 266.408C392.577 264.179 392.196 262.213 391.433 260.512C390.025 257.285 387.385 255.672 383.513 255.672C379.759 255.672 377.119 257.256 375.593 260.424C374.713 262.36 374.273 264.443 374.273 266.672C374.273 269.312 374.801 271.571 375.857 273.448C377.5 276.264 380.023 277.672 383.425 277.672C387.063 277.672 389.644 276.205 391.169 273.272ZM452.36 278.64C453.944 281.632 454.736 285.269 454.736 289.552C454.736 293.131 454.149 296.269 452.976 298.968C451.568 302.371 449.338 305.011 446.288 306.888C443.296 308.707 439.688 309.616 435.464 309.616C431.064 309.616 427.309 308.619 424.2 306.624C421.09 304.571 418.861 301.725 417.512 298.088C416.573 295.624 416.104 292.749 416.104 289.464V262.624C416.104 259.456 416.896 256.669 418.48 254.264C420.064 251.859 422.264 250.011 425.08 248.72C427.954 247.371 431.24 246.696 434.936 246.696C438.514 246.696 441.682 247.341 444.44 248.632C447.256 249.923 449.426 251.741 450.952 254.088C452.536 256.435 453.328 259.133 453.328 262.184V264.12C453.328 264.413 453.21 264.677 452.976 264.912C452.8 265.088 452.565 265.176 452.272 265.176H444.176C443.882 265.176 443.618 265.088 443.384 264.912C443.208 264.677 443.12 264.413 443.12 264.12V263.504C443.12 261.157 442.328 259.251 440.744 257.784C439.218 256.259 437.253 255.496 434.848 255.496C432.384 255.496 430.33 256.288 428.688 257.872C427.104 259.397 426.312 261.392 426.312 263.856V273.448C426.312 273.624 426.37 273.741 426.488 273.8C426.605 273.859 426.722 273.829 426.84 273.712C429.304 271.307 432.706 270.104 437.048 270.104C440.509 270.104 443.53 270.837 446.112 272.304C448.752 273.771 450.834 275.883 452.36 278.64ZM443.208 295.976C444.088 294.216 444.528 292.133 444.528 289.728C444.528 287.088 444.029 284.829 443.032 282.952C441.389 280.136 438.837 278.728 435.376 278.728C431.738 278.728 429.157 280.195 427.632 283.128C426.752 284.888 426.312 287.176 426.312 289.992C426.312 292.397 426.693 294.363 427.456 295.888C428.864 299.115 431.504 300.728 435.376 300.728C439.072 300.728 441.682 299.144 443.208 295.976Z" fill="white"/>
</g>
<g filter="url(#filter1_d_274_15)">
<path d="M249.048 345.644C249.048 345.937 248.931 346.201 248.696 346.436C248.52 346.612 248.285 346.7 247.992 346.7H218.072C217.779 346.7 217.632 346.847 217.632 347.14V363.596C217.632 363.889 217.779 364.036 218.072 364.036H238.224C238.517 364.036 238.752 364.153 238.928 364.388C239.163 364.564 239.28 364.799 239.28 365.092V371.78C239.28 372.073 239.163 372.337 238.928 372.572C238.752 372.748 238.517 372.836 238.224 372.836H218.072C217.779 372.836 217.632 372.983 217.632 373.276V398.444C217.632 398.737 217.515 399.001 217.28 399.236C217.104 399.412 216.869 399.5 216.576 399.5H208.48C208.187 399.5 207.923 399.412 207.688 399.236C207.512 399.001 207.424 398.737 207.424 398.444V338.956C207.424 338.663 207.512 338.428 207.688 338.252C207.923 338.017 208.187 337.9 208.48 337.9H247.992C248.285 337.9 248.52 338.017 248.696 338.252C248.931 338.428 249.048 338.663 249.048 338.956V345.644ZM301.89 337.9C302.183 337.9 302.418 338.017 302.594 338.252C302.829 338.428 302.946 338.663 302.946 338.956V345.732C302.946 346.025 302.829 346.289 302.594 346.524C302.418 346.7 302.183 346.788 301.89 346.788H285.698C285.405 346.788 285.258 346.935 285.258 347.228V398.444C285.258 398.737 285.141 399.001 284.906 399.236C284.73 399.412 284.495 399.5 284.202 399.5H276.106C275.813 399.5 275.549 399.412 275.314 399.236C275.138 399.001 275.05 398.737 275.05 398.444V347.228C275.05 346.935 274.903 346.788 274.61 346.788H259.034C258.741 346.788 258.477 346.7 258.242 346.524C258.066 346.289 257.978 346.025 257.978 345.732V338.956C257.978 338.663 258.066 338.428 258.242 338.252C258.477 338.017 258.741 337.9 259.034 337.9H301.89Z" fill="white"/>
</g>
<g filter="url(#filter2_d_274_15)">
<path d="M360.93 339.77H380.39V345.65H360.93V339.77ZM377.31 339.77H384.8C384.8 339.77 384.8 341.52 384.73 342.36C384.31 354.54 383.89 359.72 382.35 361.47C381.3 362.87 379.97 363.36 378.36 363.57C376.96 363.85 374.79 363.92 372.34 363.85C372.2 361.82 371.64 359.16 370.66 357.48C372.27 357.69 373.53 357.69 374.23 357.69C374.93 357.69 375.49 357.55 375.91 356.92C376.68 355.94 376.96 352.02 377.31 340.82V339.77ZM344.97 337.53H351.83V364.55H344.97V337.53ZM366.67 343.34H373.39C372.55 352.02 370.45 360.07 362.89 365.18C361.98 363.71 359.95 361.47 358.41 360.49C364.5 356.64 366.11 349.99 366.67 343.34ZM337.34 340.26H359.25V345.58H337.34V340.26ZM338.46 348.1H358.55V353.28H338.46V348.1ZM367.51 389.75L372.41 385.55C376.75 388.28 382.77 392.27 385.71 394.79L380.53 399.69C377.8 396.96 371.92 392.76 367.51 389.75ZM356.94 382.96H364.78V394.3C364.78 397.17 364.29 398.85 361.91 399.83C359.46 400.74 356.45 400.81 352.32 400.81C352.04 398.99 350.99 396.54 350.01 394.86C352.53 394.93 355.12 394.93 355.96 394.93C356.73 394.93 356.94 394.79 356.94 394.16V382.96ZM370.52 374.84L376.33 372.11C380.11 375.75 384.38 380.58 385.99 383.59L379.55 386.74C378.08 383.52 374.09 378.62 370.52 374.84ZM341.61 376.66C341.19 375.68 339.72 373.3 338.74 372.04C340.42 371.83 341.96 371.27 343.92 370.36C345.95 369.45 351.97 366.02 356.1 362.38L362.75 366.09C358.76 368.89 353.3 371.9 347.49 374.21V374.35C347.49 374.35 341.61 375.75 341.61 376.66ZM341.61 376.66L341.33 372.6L345.95 370.92L364.78 370.36C364.15 371.76 363.73 373.65 363.66 374.7C346.93 375.54 343.78 376.1 341.61 376.66ZM341.05 385.69C340.56 384.71 339.16 382.33 338.11 381.07C340.49 380.79 342.73 380.02 345.95 378.69C349.59 377.36 360.44 372.18 368 366.65L375.56 369.66C367.16 375.05 356.94 379.81 347.07 383.24V383.45C347.07 383.45 341.05 384.85 341.05 385.69ZM341.05 385.69L340.63 381.07L346.44 379.25L379.9 377.71C379.2 379.32 378.78 381.77 378.78 383.03C349.1 384.64 344.27 384.92 341.05 385.69ZM322.43 340.89L327.26 335.99C330.48 338.37 334.89 341.94 336.85 344.53L331.74 350.06C329.78 347.47 325.72 343.55 322.43 340.89ZM321.17 360.56L326 355.17C329.29 357.55 333.98 361.05 336.22 363.43L331.18 369.45C329.08 367 324.6 363.15 321.17 360.56ZM321.59 396.47C324.04 390.94 327.4 382.05 329.92 373.79L336.08 378.13C333.91 385.69 331.18 393.81 328.52 400.74L321.59 396.47ZM346.86 385.76L352.88 389.82C349.45 393.32 343.78 396.82 339.09 398.85C338.11 397.38 336.22 395.21 334.82 393.81C339.23 391.99 344.34 388.56 346.86 385.76ZM337.2 356.29C342.94 355.94 351.13 355.38 359.39 354.82L359.46 360.14C351.76 360.91 343.92 361.61 337.76 362.17L337.2 356.29ZM412.38 367.7H459.98V374.84H412.38V367.7ZM430.93 360.91H438.77V392.62C438.77 396.68 438 398.71 435.34 399.83C432.68 401.02 428.9 401.09 423.65 401.09C423.37 398.92 422.32 395.77 421.34 393.6C424.7 393.74 428.41 393.74 429.53 393.74C430.65 393.74 430.93 393.46 430.93 392.48V360.91ZM449.83 335.64L455.43 341.59C444.58 344.74 429.25 346.42 416.16 347.19C415.95 345.37 415.04 342.43 414.27 340.75C426.87 339.91 441.36 338.16 449.83 335.64ZM416.58 357.34H455.15V385.48H415.95V378.83H447.87V363.99H416.58V357.34ZM415.74 349.71L421.55 347.12C423.51 349.64 425.33 353.07 426.03 355.45L420.01 358.46C419.31 356.01 417.56 352.37 415.74 349.71ZM429.67 347.61L435.76 345.65C437.51 348.45 439.05 352.3 439.68 354.89L433.31 357.2C432.82 354.61 431.21 350.55 429.67 347.61ZM448.15 344.53L455.92 346.49C453.75 350.48 451.44 354.33 449.55 356.92L442.62 354.96C444.58 352.16 446.96 347.68 448.15 344.53ZM397.12 342.5L401.25 336.34C405.31 338.09 410.7 341.17 413.29 343.69L408.88 350.48C406.43 347.96 401.25 344.53 397.12 342.5ZM393.41 361.89L397.26 355.59C401.39 357.2 406.85 360.14 409.58 362.52L405.38 369.45C402.86 367.07 397.54 363.78 393.41 361.89ZM395.37 394.79C398.73 389.61 403.63 381 407.41 372.95L412.87 378.55C409.58 385.83 405.52 393.67 401.74 400.46L395.37 394.79ZM491.27 360.77H499.18V393.53C499.18 397.03 498.48 398.78 496.24 399.9C493.93 400.95 490.78 401.09 486.51 401.09C486.16 399.13 484.97 396.33 483.99 394.58C486.44 394.72 489.24 394.65 490.08 394.65C490.99 394.65 491.27 394.37 491.27 393.53V360.77ZM476.43 360.77H495.68V367.77H476.43V360.77ZM504.29 368.54H512.62V390.59C512.62 393.18 513.11 393.46 515.84 393.46C517.03 393.46 522.28 393.46 523.89 393.46C526.2 393.46 526.69 392.34 527.04 385.83C528.79 387.09 532.15 388.42 534.39 388.84C533.48 398.15 531.24 400.81 524.66 400.81C522.84 400.81 516.33 400.81 514.65 400.81C506.39 400.81 504.29 398.43 504.29 390.66V368.54ZM488.4 343.2L495.26 340.75C498.2 345.79 501.91 352.72 503.59 356.92L496.31 359.93C494.84 355.59 491.27 348.45 488.4 343.2ZM509.54 344.04H529.91V351.25H509.54V344.04ZM509.61 375.54H530.4V382.96H509.61V375.54ZM471.74 358.53C471.32 356.92 469.99 353.07 469.15 350.97C470.41 350.69 471.6 349.64 473 348.1C474.4 346.63 478.67 341.17 481.33 335.57L489.8 338.09C486.09 344.18 480.77 350.62 476.36 354.54V354.61C476.36 354.61 471.74 357.13 471.74 358.53ZM471.74 358.53L471.46 352.51L475.31 350.13L497.08 348.45C497.43 350.55 498.13 353.35 498.62 355.03C477.13 357.13 473.91 357.62 471.74 358.53ZM472.51 360.77H480.21V376.66C480.21 384.29 479.3 394.93 474.26 401.58C473.14 399.97 469.99 396.96 468.38 395.91C472.16 390.38 472.51 382.68 472.51 376.52V360.77ZM478.6 386.25C482.38 384.57 487.91 381.63 493.44 378.76L495.05 383.73C490.29 387.09 485.39 390.45 481.05 393.32L478.6 386.25ZM479.44 373.51L483.78 369.73C486.58 371.83 490.36 374.84 492.32 376.66L487.84 380.93C486.02 378.97 482.24 375.75 479.44 373.51ZM504.29 335.78H512.62V355.87C512.62 358.46 513.04 359.37 515.21 359.37C516.96 359.37 523.61 359.37 525.57 359.37C527.53 359.37 530.54 359.23 532.08 358.81C532.22 360.98 532.5 364.06 532.78 366.02C531.38 366.44 528.37 366.58 525.71 366.58C523.82 366.58 516.68 366.58 515 366.58C506.6 366.58 504.29 363.57 504.29 355.66V335.78ZM565.12 339.21H606.56V346.77H565.12V339.21ZM562.6 339.21H570.72V358.6C570.72 371.06 569.46 389.68 561.13 401.37C559.59 399.97 556.02 397.73 554.06 396.89C561.9 385.97 562.6 370.01 562.6 358.6V339.21ZM580.66 368.26V372.11H596.83V368.26H580.66ZM580.66 358.81V362.59H596.83V358.81H580.66ZM573.17 352.79H604.6V378.13H573.17V352.79ZM574.36 380.93L581.78 383.03C579.68 388.07 576.32 393.88 573.73 397.52C572.12 396.33 568.97 394.44 567.15 393.46C569.88 390.17 572.61 385.27 574.36 380.93ZM594.24 382.89L601.52 380.09C603.83 384.36 606.91 390.1 608.31 393.53L600.61 396.89C599.35 393.32 596.55 387.37 594.24 382.89ZM584.37 346.49L593.89 348.17C592 351.39 590.11 354.54 588.57 356.57L581.85 354.75C582.83 352.3 583.88 348.87 584.37 346.49ZM584.3 375.61H592.28V393.39C592.28 396.96 591.79 398.99 589.27 400.11C586.89 401.23 583.6 401.3 579.26 401.23C578.98 399.13 578 396.12 577.09 394.09C579.54 394.16 582.41 394.16 583.25 394.16C584.02 394.09 584.3 393.88 584.3 393.18V375.61ZM544.75 342.08L549.65 336.13C553.15 338.02 558.54 341.03 561.27 342.92L556.23 349.64C553.71 347.61 548.39 344.32 544.75 342.08ZM541.39 361.05L546.22 354.96C549.72 356.78 555.11 359.65 557.84 361.4L552.87 368.19C550.28 366.3 545.03 363.15 541.39 361.05ZM542.3 395.91C545.17 390.38 549.16 381.49 552.1 373.23L558.96 377.85C556.3 385.41 553.08 393.46 549.93 400.39L542.3 395.91Z" fill="white"/>
</g>
<g filter="url(#filter3_d_274_15)">
<path d="M203.68 446.04C201.78 442.96 200.68 439.7 200.68 435.7C200.68 431.72 201.78 428.44 203.68 425.36L205.5 426.14C203.82 429.06 203.06 432.44 203.06 435.7C203.06 438.98 203.82 442.36 205.5 445.28L203.68 446.04ZM208.719 428.9H226.419V431.34H208.719V428.9ZM212.059 437.98H222.959V440.42H212.059V437.98ZM216.259 425.02H218.819V443.8H216.259V425.02ZM214.239 429.78L216.439 430.42C215.059 434.68 212.739 438.52 209.799 440.82C209.379 440.22 208.579 439.34 208.019 438.86C210.759 437 213.079 433.38 214.239 429.78ZM220.779 429.84C221.939 433.32 224.239 436.78 226.999 438.62C226.379 439.1 225.519 440.06 225.079 440.74C222.199 438.48 219.959 434.64 218.599 430.46L220.779 429.84ZM230.259 426.54H246.939V428.48H230.259V426.54ZM230.999 441.28H246.299V443.24H230.999V441.28ZM234.439 429.34H242.599V431.02H234.439V429.34ZM234.439 431.9H242.599V433.58H234.439V431.9ZM229.199 434.46H247.899V436.42H229.199V434.46ZM233.739 438.1H243.399V439.98H233.739V438.1ZM233.019 425.02H235.439V435.54H233.019V425.02ZM241.739 425.04H244.179V435.54H241.739V425.04ZM237.279 436.84H239.739V442.42H237.279V436.84ZM234.259 435.02L236.259 435.76C234.979 437.88 232.819 439.76 230.539 440.78C230.199 440.22 229.519 439.38 229.019 438.94C231.099 438.18 233.199 436.64 234.259 435.02ZM242.939 435.02C243.999 436.56 246.059 438 248.119 438.74C247.599 439.18 246.899 440.04 246.539 440.6C244.379 439.64 242.299 437.74 241.039 435.74L242.939 435.02ZM254.159 430.8H264.859V433.02H254.159V430.8ZM251.839 435.1H267.219V437.26H251.839V435.1ZM250.859 441.18H268.279V443.36H250.859V441.18ZM258.219 431.86H260.799V442.2H258.219V431.86ZM253.159 437.92L255.099 437.12C255.839 438.12 256.639 439.52 256.959 440.46L254.879 441.36C254.599 440.44 253.859 438.98 253.159 437.92ZM263.779 437.14L266.059 437.98C265.299 439.22 264.459 440.52 263.799 441.36L261.979 440.62C262.599 439.68 263.359 438.22 263.779 437.14ZM260.439 426.06C262.279 428.06 265.919 430 269.239 430.9C268.679 431.42 267.939 432.38 267.579 433C264.239 431.84 260.679 429.56 258.439 427.04L260.439 426.06ZM259.279 424.8L261.539 425.8C259.259 429.34 255.619 431.68 251.579 433.12C251.239 432.42 250.579 431.5 249.959 430.9C253.759 429.8 257.379 427.78 259.279 424.8ZM282.919 427.7H289.539V429.92H282.919V427.7ZM282.919 436.94H289.879V439.18H282.919V436.94ZM282.759 432.32H289.079V434.5H282.759V432.32ZM271.899 427.68H278.039V429.92H271.899V427.68ZM272.139 432.32H277.919V434.48H272.139V432.32ZM281.699 425.12H284.099V443.8H281.699V425.12ZM271.159 437.12C272.959 436.92 275.679 436.56 278.299 436.22L278.399 438.34C276.039 438.76 273.559 439.18 271.619 439.5L271.159 437.12ZM276.919 425.12H279.299V434.48C279.299 437.74 278.319 441.74 273.439 444.06C273.059 443.48 272.299 442.74 271.739 442.28C275.979 440.6 276.919 436.7 276.919 434.52V425.12ZM293.839 425.76H296.159V431.72C296.159 435.2 295.879 440.42 294.119 443.74C293.659 443.38 292.639 442.82 292.039 442.6C293.699 439.48 293.839 434.92 293.839 431.72V425.76ZM295.379 425.76H309.819V429.74H295.379V428.22H307.499V427.28H295.379V425.76ZM302.099 430.02H304.299V432.9H302.099V430.02ZM301.019 437.36H303.019V442.34H301.019V437.36ZM298.839 436.58H308.699V437.92H298.839V436.58ZM305.739 434.14V435.02H307.439V434.14H305.739ZM302.259 434.14V435.02H303.919V434.14H302.259ZM298.839 434.14V435.02H300.439V434.14H298.839ZM296.939 433.18H309.419V435.98H296.939V433.18ZM308.039 436.58H310.199C310.199 436.58 310.179 437.08 310.159 437.34C310.019 441.06 309.819 442.5 309.379 443.04C309.039 443.48 308.639 443.62 308.199 443.68C307.779 443.74 307.099 443.76 306.399 443.74C306.359 443.22 306.179 442.5 305.919 442.04C306.419 442.1 306.799 442.1 307.039 442.1C307.239 442.1 307.379 442.08 307.499 441.9C307.739 441.56 307.919 440.34 308.039 436.9V436.58ZM299.339 439.4V440.06H304.679V439.4H299.339ZM297.619 438.46H306.499V441H297.619V438.46ZM299.039 435.4L301.159 435.8C300.119 437.36 298.759 438.7 296.779 439.84C296.439 439.4 295.759 438.74 295.299 438.48C297.079 437.62 298.339 436.46 299.039 435.4ZM296.399 441.86C298.659 441.78 302.099 441.62 305.399 441.46L305.379 442.8C302.219 443.06 298.939 443.26 296.539 443.42L296.399 441.86ZM304.039 441.16L305.459 440.58C306.039 441.2 306.659 442.08 306.919 442.7L305.399 443.34C305.179 442.74 304.579 441.8 304.039 441.16ZM296.999 431.98C298.159 431.82 299.899 431.5 301.599 431.18L301.619 432.36C300.139 432.7 298.559 433.06 297.379 433.28L296.999 431.98ZM308.319 429.56L308.959 430.68C307.959 431.08 306.599 431.36 305.639 431.48L305.159 430.52C306.059 430.34 307.499 429.84 308.319 429.56ZM304.859 432.46L305.199 431.42C306.599 431.54 308.119 431.84 309.039 432.12L308.619 433.26C307.699 432.96 306.199 432.64 304.859 432.46ZM297.399 430.84L297.759 429.8C298.979 429.92 300.339 430.18 301.159 430.44L300.739 431.58C299.919 431.3 298.579 431 297.399 430.84ZM313.179 426.18H318.639V428.28H313.179V426.18ZM313.339 432H318.479V434.1H313.339V432ZM312.919 439.5C314.379 439.2 316.479 438.66 318.519 438.14L318.779 440.2C316.939 440.72 314.959 441.24 313.339 441.68L312.919 439.5ZM314.899 427.52H316.979V439.6L314.899 440.08V427.52ZM319.339 430.86H331.639V432.76H319.339V430.86ZM322.619 435.12V436.22H328.259V435.12H322.619ZM320.499 433.46H330.519V437.88H320.499V433.46ZM327.639 427.28V428.6H328.959V427.28H327.639ZM324.819 427.28V428.6H326.079V427.28H324.819ZM321.999 427.28V428.6H323.239V427.28H321.999ZM320.059 425.66H330.999V430.22H320.059V425.66ZM326.819 437.12C327.639 439.34 329.419 441.06 332.059 441.76C331.579 442.18 330.939 443.02 330.659 443.58C327.719 442.6 325.939 440.44 324.919 437.52L326.819 437.12ZM330.019 437.9L331.579 439.3C330.399 439.92 329.159 440.52 328.179 440.88L327.059 439.78C327.959 439.32 329.299 438.48 330.019 437.9ZM324.339 436.8L325.959 437.5C324.499 439.08 321.959 440.52 319.679 441.22C319.379 440.72 318.759 439.98 318.319 439.58C320.559 439.08 323.039 438 324.339 436.8ZM321.299 443.76C321.179 443.32 320.799 442.52 320.519 442.16C320.879 441.98 321.339 441.6 321.339 440.78V439.12L323.239 438.66V442.14C323.239 442.14 321.299 443.16 321.299 443.76ZM321.299 443.76L321.159 442.18L321.999 441.56L326.059 440.78C325.999 441.3 325.999 442.1 326.019 442.52C322.359 443.34 321.679 443.54 321.299 443.76ZM341.459 426.22H351.779V428.16H341.459V426.22ZM340.879 429.88H352.299V431.86H340.879V429.88ZM342.899 428.56L344.819 428.16C345.079 428.7 345.359 429.44 345.459 429.94L343.439 430.42C343.359 429.92 343.139 429.14 342.899 428.56ZM348.299 428.18L350.479 428.58C350.079 429.34 349.719 430.08 349.419 430.6L347.579 430.2C347.839 429.6 348.159 428.76 348.299 428.18ZM343.879 436.26V437.1H349.019V436.26H343.879ZM343.879 434.02V434.86H349.019V434.02H343.879ZM341.679 432.52H351.319V438.6H341.679V432.52ZM343.399 438.06H345.639C345.359 441.04 344.519 442.86 340.459 443.86C340.279 443.32 339.699 442.44 339.239 442.02C342.659 441.36 343.179 440.18 343.399 438.06ZM347.019 438.08H349.259V441.12C349.259 441.36 349.259 441.52 349.339 441.58C349.399 441.66 349.519 441.68 349.679 441.68C349.819 441.68 350.079 441.68 350.239 441.68C350.399 441.68 350.559 441.68 350.639 441.62C350.759 441.58 350.839 441.48 350.879 441.22C350.939 440.98 350.959 440.44 350.979 439.72C351.379 440.1 352.219 440.5 352.819 440.7C352.759 441.46 352.659 442.26 352.499 442.6C352.319 442.96 352.059 443.2 351.659 443.34C351.359 443.46 350.799 443.52 350.419 443.52C350.059 443.52 349.459 443.52 349.139 443.52C348.599 443.52 347.939 443.38 347.579 443.04C347.199 442.72 347.019 442.28 347.019 441.06V438.08ZM345.099 425.28L347.359 424.86C347.639 425.46 347.939 426.28 348.079 426.8L345.739 427.34C345.639 426.8 345.339 425.92 345.099 425.28ZM334.339 429.8H340.339V432.06H334.339V429.8ZM336.299 425.3H338.639V438.7H336.299V425.3ZM333.999 439C335.619 438.52 338.119 437.62 340.479 436.78L340.959 438.96C338.859 439.84 336.579 440.74 334.779 441.44L333.999 439ZM365.659 437.74C364.439 436.26 362.759 434.54 361.359 433.34L363.459 431.54C364.859 432.7 366.799 434.66 367.799 435.92L365.659 437.74ZM376.439 428.36H382.559V430.52H376.439V428.36ZM379.059 435.16L381.399 432.36V443.78H379.059V435.16ZM381.299 433.08C381.919 433.54 383.879 435.44 384.359 435.9L382.879 437.9C382.199 436.88 380.719 435.1 379.959 434.26L381.299 433.08ZM381.839 428.36H382.319L382.739 428.28L383.999 429.2C382.559 432.92 379.639 436.38 376.759 438.18C376.619 437.5 376.159 436.18 375.859 435.72C378.399 434.32 380.839 431.54 381.839 428.8V428.36ZM378.339 425.92L380.219 424.9C380.939 425.68 381.699 426.74 382.039 427.46L380.079 428.62C379.759 427.88 379.019 426.72 378.339 425.92ZM383.319 440.8H394.919V443.16H383.319V440.8ZM384.199 431.02H394.439V433.32H384.199V431.02ZM388.159 425.14H390.619V441.94H388.159V425.14ZM401.579 432.28V434.8H411.399V432.28H401.579ZM399.579 430.8H413.539V436.26H399.579V430.8ZM403.019 428.54H410.079V430.1H403.019V428.54ZM405.479 431.3H407.419V435.52H405.479V431.3ZM402.279 432.72L403.939 432.26C404.299 432.94 404.619 433.82 404.739 434.42L402.979 434.94C402.899 434.34 402.619 433.4 402.279 432.72ZM408.899 432.18L410.879 432.66C410.459 433.52 410.039 434.36 409.719 434.92L408.079 434.48C408.379 433.82 408.739 432.84 408.899 432.18ZM400.679 436.92H412.519V443.72H410.059V438.48H403.039V443.8H400.679V436.92ZM402.039 439.28H411.079V440.86H402.039V439.28ZM402.039 441.68H411.079V443.24H402.039V441.68ZM406.139 424.84L408.259 425.62C406.039 428.44 402.219 430.42 398.319 431.6C398.079 431.12 397.459 430.16 397.059 429.74C400.759 428.84 404.319 427.16 406.139 424.84ZM407.719 425.76C409.499 427.48 412.959 428.92 416.299 429.6C415.799 430.02 415.119 430.88 414.779 431.42C411.419 430.56 407.999 428.72 405.939 426.48L407.719 425.76ZM419.239 425.84H429.979V428.18H419.239V425.84ZM433.359 431.5H433.839L434.299 431.4L436.039 432.14C434.359 438.9 430.019 442.34 424.159 444.08C423.859 443.4 423.239 442.36 422.739 441.84C427.999 440.58 432.059 437.34 433.359 431.96V431.5ZM422.439 426.66H424.939V429.74C424.939 433.64 424.419 439.48 419.799 443.52C419.459 442.88 418.579 441.88 418.039 441.42C422.019 438.04 422.439 432.96 422.439 429.72V426.66ZM429.419 425.84H431.979C431.559 428.12 431.019 430.84 430.559 432.58H427.839C428.379 430.78 429.019 428.04 429.419 425.84ZM423.959 431.5H433.899V433.78H423.559L423.959 431.5ZM427.019 432.98C428.599 437.26 431.859 440.38 437.019 441.6C436.459 442.12 435.719 443.18 435.359 443.88C429.939 442.32 426.799 438.76 424.919 433.56L427.019 432.98ZM440.419 427L441.759 425.26C442.939 425.78 444.679 426.68 445.539 427.28L444.139 429.24C443.339 428.6 441.639 427.64 440.419 427ZM439.219 432.54L440.499 430.74C441.679 431.26 443.439 432.12 444.299 432.72L442.959 434.7C442.159 434.1 440.439 433.16 439.219 432.54ZM439.639 441.94C440.719 440.44 442.239 437.94 443.439 435.64L445.199 437.22C444.139 439.34 442.879 441.62 441.679 443.56L439.639 441.94ZM447.239 440.78H455.139V442.98H447.239V440.78ZM445.879 435.42H456.299V443.72H453.859V437.64H448.219V443.8H445.879V435.42ZM451.739 428.36L453.799 427.34C455.379 429.14 457.019 431.54 457.779 433.2L455.599 434.42C454.919 432.74 453.259 430.2 451.739 428.36ZM445.359 434.18C445.239 433.72 444.839 432.6 444.579 431.96C445.039 431.84 445.439 431.42 445.939 430.72C446.479 430.06 448.059 427.5 449.019 425L451.519 425.68C450.239 428.4 448.519 431.08 446.979 432.94V432.98C446.979 432.98 445.359 433.74 445.359 434.18ZM445.359 434.18L445.319 432.3L446.659 431.5L455.079 431.06C455.159 431.74 455.379 432.68 455.519 433.22C447.339 433.8 446.179 433.86 445.359 434.18ZM469.819 431.46V433.18H475.879V431.46H469.819ZM469.819 427.9V429.58H475.879V427.9H469.819ZM467.659 425.86H478.159V435.2H467.659V425.86ZM467.519 436.92H478.379V439.08H467.519V436.92ZM466.119 441H479.039V443.16H466.119V441ZM460.259 426.16H466.899V428.4H460.259V426.16ZM460.459 431.92H466.559V434.14H460.459V431.92ZM460.039 439.52C461.759 439.08 464.319 438.28 466.719 437.5L467.139 439.8C464.899 440.56 462.499 441.34 460.579 441.96L460.039 439.52ZM462.479 427.04H464.759V439.34L462.479 439.7V427.04ZM471.879 426.72H473.899V434.26H474.119V442.02H471.659V434.26H471.879V426.72ZM490.979 430.84H498.139V433H490.979V430.84ZM490.999 435.56H498.159V437.74H490.999V435.56ZM490.979 440.3H498.159V442.46H490.979V440.3ZM489.839 426.1H499.279V443.52H496.859V428.36H492.139V443.64H489.839V426.1ZM481.439 429.14H489.139V431.42H481.439V429.14ZM484.339 425.02H486.639V443.8H484.339V425.02ZM484.199 430.68L485.639 431.18C484.979 434.44 483.659 438.28 482.079 440.36C481.859 439.68 481.299 438.7 480.939 438.1C482.379 436.36 483.659 433.24 484.199 430.68ZM486.459 432.44C487.039 433 488.999 435.42 489.439 435.96L488.079 437.9C487.499 436.72 486.079 434.54 485.359 433.54L486.459 432.44ZM509.539 435.62L510.699 435.32C511.019 436.04 511.379 436.98 511.539 437.54L510.319 437.94C510.179 437.34 509.839 436.36 509.539 435.62ZM511.959 437.82H513.619V443.56H511.959V437.82ZM506.719 438.14H508.199V439.88H510.359V441.2H506.719V438.14ZM509.399 437.82H511.019V439.76C511.019 441.34 510.639 442.84 508.079 443.7C507.899 443.32 507.399 442.7 507.039 442.4C509.119 441.78 509.399 440.76 509.399 439.7V437.82ZM504.319 428.34H509.339V429.78H504.319V428.34ZM513.519 428.34H518.599V429.78H513.519V428.34ZM517.779 425.78H520.099V441.06C520.099 442.2 519.919 442.86 519.239 443.26C518.559 443.66 517.639 443.7 516.319 443.7C516.239 443.06 515.939 441.98 515.639 441.36C516.379 441.4 517.179 441.4 517.439 441.4C517.699 441.4 517.779 441.3 517.779 441.04V425.78ZM504.539 425.78H510.879V432.32H504.539V430.7H508.619V427.4H504.539V425.78ZM518.979 425.78V427.4H514.459V430.7H518.979V432.32H512.179V425.78H518.979ZM503.119 425.78H505.399V443.8H503.119V425.78ZM506.699 435.5C506.619 435.18 506.399 434.48 506.219 434.12C506.439 434.06 506.659 433.96 506.879 433.76C507.079 433.56 507.819 432.82 508.239 432L509.579 432.72C508.999 433.48 508.239 434.24 507.579 434.72V434.74C507.579 434.74 506.699 435.18 506.699 435.5ZM506.699 435.52L506.679 434.6L507.319 434.24L509.879 434.14C509.779 434.46 509.659 434.92 509.639 435.16C507.419 435.3 506.939 435.4 506.699 435.52ZM506.619 437.88C506.559 437.6 506.339 436.92 506.179 436.56C506.499 436.52 506.839 436.32 507.259 436C507.659 435.7 509.079 434.48 509.999 433.24L511.159 434.06C510.059 435.24 508.739 436.38 507.459 437.16V437.2C507.459 437.2 506.619 437.58 506.619 437.88ZM506.619 437.9L506.599 436.92L507.199 436.52L510.559 436.2C510.579 436.54 510.659 436.98 510.719 437.24C507.459 437.64 506.919 437.76 506.619 437.9ZM514.899 435.66L516.019 435.3C516.379 436.02 516.799 436.96 516.979 437.52L515.799 437.98C515.619 437.38 515.219 436.38 514.899 435.66ZM512.059 435.52C511.959 435.22 511.739 434.52 511.559 434.14C511.799 434.1 512.019 433.98 512.219 433.78C512.439 433.6 513.179 432.84 513.579 432.02L514.939 432.74C514.359 433.52 513.599 434.28 512.919 434.74V434.78C512.919 434.78 512.059 435.22 512.059 435.52ZM512.059 435.52L512.039 434.62L512.659 434.26L515.239 434.14C515.139 434.46 515.019 434.92 514.979 435.18C512.779 435.32 512.299 435.42 512.059 435.52ZM511.999 437.92C511.939 437.62 511.719 436.94 511.579 436.58C511.879 436.54 512.239 436.34 512.639 436.02C513.059 435.72 514.459 434.48 515.379 433.2L516.559 434.02C515.439 435.24 514.119 436.38 512.839 437.18V437.24C512.839 437.24 511.999 437.62 511.999 437.92ZM511.999 437.92L511.979 436.94L512.579 436.54L515.959 436.22C515.979 436.56 516.039 437 516.099 437.26C512.839 437.66 512.319 437.76 511.999 437.92ZM513.219 439.88H515.639V441.2H513.219V439.88ZM514.839 438.16H516.359V441.76H514.839V438.16ZM524.439 428.8H540.599V431.14H524.439V428.8ZM525.499 434.62H539.639V436.94H525.499V434.62ZM523.579 440.82H541.579V443.18H523.579V440.82ZM531.239 430.84H533.879V442.08H531.239V430.84ZM529.459 426.36L531.439 424.98C532.719 425.8 534.439 427.1 535.299 428.04L533.179 429.58C532.419 428.66 530.779 427.3 529.459 426.36ZM547.459 429.86V430.82H550.299V429.86H547.459ZM547.459 427.4V428.34H550.299V427.4H547.459ZM545.339 425.8H552.519V432.44H545.339V425.8ZM544.399 433.58H553.419V435.34H544.399V433.58ZM553.339 425.86H562.559V427.54H553.339V425.86ZM548.139 434.14H550.139V442.18L548.139 441.02V434.14ZM549.179 436.96H553.059V438.68H549.179V436.96ZM557.199 426.26L559.379 426.74C558.899 427.86 558.379 429.06 557.959 429.84L556.259 429.4C556.619 428.5 556.999 427.2 557.199 426.26ZM556.099 432.7V433.64H559.739V432.7H556.099ZM556.099 435.16V436.12H559.739V435.16H556.099ZM556.099 430.22V431.16H559.739V430.22H556.099ZM553.959 428.6H561.959V437.76H553.959V428.6ZM555.579 437.9L557.559 438.5C556.699 439.64 555.279 440.78 554.039 441.46C553.699 441.08 552.939 440.38 552.499 440.06C553.699 439.54 554.899 438.72 555.579 437.9ZM545.319 436.12H547.239C547.139 439.18 546.839 442.12 545.319 443.92C545.039 443.42 544.399 442.66 543.919 442.3C545.059 440.9 545.259 438.54 545.319 436.12ZM546.919 437.8C548.039 441.16 550.539 441.5 554.619 441.52C555.959 441.52 561.479 441.52 563.119 441.44C562.799 441.9 562.459 442.82 562.339 443.42H554.619C549.659 443.42 546.919 442.74 545.499 438.22L546.919 437.8ZM558.419 438.62L560.059 437.76C561.139 438.46 562.379 439.54 562.999 440.3L561.279 441.32C560.659 440.52 559.419 439.36 558.419 438.62ZM566.259 426.54H582.939V428.48H566.259V426.54ZM566.999 441.28H582.299V443.24H566.999V441.28ZM570.439 429.34H578.599V431.02H570.439V429.34ZM570.439 431.9H578.599V433.58H570.439V431.9ZM565.199 434.46H583.899V436.42H565.199V434.46ZM569.739 438.1H579.399V439.98H569.739V438.1ZM569.019 425.02H571.439V435.54H569.019V425.02ZM577.739 425.04H580.179V435.54H577.739V425.04ZM573.279 436.84H575.739V442.42H573.279V436.84ZM570.259 435.02L572.259 435.76C570.979 437.88 568.819 439.76 566.539 440.78C566.199 440.22 565.519 439.38 565.019 438.94C567.099 438.18 569.199 436.64 570.259 435.02ZM578.939 435.02C579.999 436.56 582.059 438 584.119 438.74C583.599 439.18 582.899 440.04 582.539 440.6C580.379 439.64 578.299 437.74 577.039 435.74L578.939 435.02ZM590.159 430.8H600.859V433.02H590.159V430.8ZM587.839 435.1H603.219V437.26H587.839V435.1ZM586.859 441.18H604.279V443.36H586.859V441.18ZM594.219 431.86H596.799V442.2H594.219V431.86ZM589.159 437.92L591.099 437.12C591.839 438.12 592.639 439.52 592.959 440.46L590.879 441.36C590.599 440.44 589.859 438.98 589.159 437.92ZM599.779 437.14L602.059 437.98C601.299 439.22 600.459 440.52 599.799 441.36L597.979 440.62C598.599 439.68 599.359 438.22 599.779 437.14ZM596.439 426.06C598.279 428.06 601.919 430 605.239 430.9C604.679 431.42 603.939 432.38 603.579 433C600.239 431.84 596.679 429.56 594.439 427.04L596.439 426.06ZM595.279 424.8L597.539 425.8C595.259 429.34 591.619 431.68 587.579 433.12C587.239 432.42 586.579 431.5 585.959 430.9C589.759 429.8 593.379 427.78 595.279 424.8ZM609.419 446.04L607.579 445.28C609.259 442.36 610.039 438.98 610.039 435.7C610.039 432.44 609.259 429.06 607.579 426.14L609.419 425.36C611.299 428.44 612.399 431.72 612.399 435.7C612.399 439.7 611.299 442.96 609.419 446.04Z" fill="white"/>
</g>
<path d="M323 473H468.273L485 496L468.273 519H323V473Z" fill="white"/>
<path d="M201 473H331.028L346 496L331.028 519H201V473Z" fill="#EAC852"/>
<path d="M226.78 489.62H243.26V492.04H226.78V489.62ZM225.88 501.62H244.12V504.04H225.88V501.62ZM229.28 493.2L231.68 492.6C232.44 495.14 233.18 498.3 233.52 500.46L230.94 501.14C230.7 499 229.94 495.68 229.28 493.2ZM238.32 492.66L241.02 493.18C240.16 496.52 238.94 500.22 237.92 502.6L235.54 502.04C236.6 499.6 237.74 495.66 238.32 492.66ZM233.12 486.38L235.5 485.78C235.92 486.8 236.36 488.12 236.6 489L234.08 489.72C233.92 488.82 233.48 487.42 233.12 486.38ZM248.64 490.86H254.7V493H248.64V490.86ZM248.58 487.02H256.28V496.96H248.58V494.82H253.88V489.16H248.58V487.02ZM247.82 504.38L247.56 502.22L248.5 501.42L254.2 499.78C254.38 500.44 254.7 501.32 254.92 501.84C249.3 503.62 248.4 503.96 247.82 504.38ZM252 498.48L254.06 497.46C255.06 499.1 256.3 501.3 256.84 502.7L254.6 503.9C254.14 502.48 252.98 500.2 252 498.48ZM247.82 504.38C247.68 503.68 247.26 502.5 246.88 501.92C247.32 501.7 247.82 501.3 247.82 500.52V487.02H250.26V502.52C250.26 502.52 247.82 503.44 247.82 504.38ZM262.22 487.16H264.58V498.72C264.58 499.82 264.42 500.46 263.74 500.84C263.08 501.22 262.16 501.26 260.86 501.26C260.8 500.6 260.52 499.6 260.22 498.98C260.92 499.02 261.68 499.02 261.9 499C262.14 499 262.22 498.94 262.22 498.68V487.16ZM257.42 487.16H263.38V489.36H259.82V504.8H257.42V487.16ZM278.16 487.08L279.94 486.26C281.34 487.24 283.16 488.7 284.1 489.76L282.18 490.68C281.36 489.7 279.6 488.14 278.16 487.08ZM272.42 491.84L274.1 491.36C274.62 492.2 275.14 493.34 275.32 494.08L273.56 494.62C273.4 493.88 272.92 492.7 272.42 491.84ZM282.52 491.74L284.18 491.06C284.96 492 285.8 493.3 286.14 494.2L284.36 494.96C284.06 494.08 283.28 492.74 282.52 491.74ZM277.36 495.26L279.06 496.12C277.38 497.34 274.82 498.34 272.74 498.94C272.44 498.52 271.92 497.9 271.46 497.5C273.42 497.06 276 496.18 277.36 495.26ZM279.48 497.08L281.28 497.98C279.1 499.8 275.6 501.04 272.3 501.74C272.04 501.24 271.56 500.52 271.1 500.04C274.18 499.54 277.68 498.5 279.48 497.08ZM281.66 499.08L283.62 500C280.96 502.8 276.34 504.14 271.18 504.82C270.98 504.24 270.54 503.42 270.1 502.88C274.92 502.44 279.44 501.34 281.66 499.08ZM276.24 491L278.44 491.62C276.48 495.1 272.94 497.4 268.82 498.74C268.6 498.26 267.94 497.3 267.54 496.84C271.4 495.82 274.68 493.88 276.24 491ZM277.84 492.02C279.6 494.12 283.12 495.92 286.72 496.76C286.22 497.18 285.54 498.06 285.22 498.6C281.52 497.56 278 495.46 275.86 492.82L277.84 492.02ZM270.56 490.46C270.44 490.06 270.1 489.08 269.86 488.52C270.28 488.44 270.72 488.28 271.22 488.02C271.78 487.78 273.46 486.9 274.66 485.88L276.78 486.9C275.28 487.94 273.48 488.9 271.86 489.52V489.54C271.86 489.54 270.56 490.08 270.56 490.46ZM270.56 490.46L270.54 489.04L271.82 488.42L281.92 488.18C282.16 488.72 282.58 489.42 282.82 489.82C272.64 490.22 271.44 490.18 270.56 490.46ZM269.26 494.78C269.12 494.36 268.76 493.44 268.52 492.92C268.74 492.86 269.02 492.66 269.24 492.4C269.44 492.14 270.1 491.28 270.44 490.32L272.56 491.16C272.02 492.08 271.14 493.14 270.42 493.76V493.8C270.42 493.8 269.26 494.4 269.26 494.78ZM269.26 494.78L269.24 493.36L270.12 492.78L273.3 492.66C273.54 493.18 273.96 493.86 274.18 494.28C270.36 494.52 269.7 494.62 269.26 494.78ZM279.36 494.68C279.22 494.28 278.86 493.36 278.64 492.84C278.84 492.78 279.1 492.6 279.3 492.34C279.46 492.1 280 491.24 280.28 490.34L282.4 491.14C281.92 492.02 281.14 493.06 280.5 493.66V493.7C280.5 493.7 279.36 494.32 279.36 494.68ZM279.36 494.68L279.34 493.24L280.22 492.68L283.5 492.54C283.76 493.06 284.16 493.74 284.4 494.16C280.48 494.42 279.8 494.52 279.36 494.68ZM301.24 486.9H304.94V488.96H301.24V486.9ZM296.76 487.56H300.76V489.54H296.76V487.56ZM301.46 490.68H304.84V492.66H301.46V490.68ZM301.3 494.36H304.66V496.34H301.3V494.36ZM291.42 490.66H294.78V492.64H291.42V490.66ZM291.52 494.32H294.86V496.3H291.52V494.32ZM303.56 486.9H305.76C305.74 490.82 305.64 495.82 305.42 498.82H303.18C303.42 495.76 303.58 490.74 303.56 486.9ZM294.12 486.1L295.14 488.06C293.74 488.54 292.14 488.96 290.82 489.26C290.72 488.8 290.48 488.08 290.26 487.6C291.54 487.2 293.06 486.6 294.12 486.1ZM295.58 486.18H297.62V491.02H299.84V492.88H295.58V486.18ZM288.78 497.96H307.26V500.18H288.78V497.96ZM299.6 501.58L300.92 499.9C302.98 500.82 305.34 502.04 306.7 502.88L305.12 504.72C303.82 503.84 301.6 502.52 299.6 501.58ZM294.5 500.04L296.4 501.58C294.66 502.72 292.16 503.98 290.2 504.78C289.88 504.26 289.3 503.48 288.84 502.98C290.72 502.28 293.18 501.02 294.5 500.04ZM290.26 487.6L292.42 488.2L292.76 498.64H290.62L290.26 487.6ZM295.86 493.36L297.64 493.66C297.52 494.96 297.2 496.28 296.64 497.14C296.32 496.86 295.54 496.38 295.12 496.18C295.62 495.44 295.78 494.4 295.86 493.36ZM298.6 491.04H300.6V496.1C300.6 496.94 300.44 497.3 299.9 497.54C299.36 497.8 298.6 497.8 297.62 497.8C297.52 497.34 297.3 496.74 297.1 496.32C297.6 496.36 298.18 496.36 298.36 496.34C298.54 496.34 298.6 496.28 298.6 496.1V491.04Z" fill="#282828"/>
<path d="M378.18 489.6H386.2V491.8H378.18V489.6ZM378.7 486L381.08 486.44C380.32 490.34 378.96 494.14 377.1 496.54C376.74 496.06 375.84 495.1 375.34 494.68C377 492.68 378.12 489.4 378.7 486ZM382.9 491.04L385.38 491.32C384.36 498.1 382.06 502.38 376.92 504.88C376.68 504.3 375.98 503.18 375.52 502.66C380.18 500.68 382.14 496.94 382.9 491.04ZM379.44 491.36C380.4 496.52 382.5 500.78 386.62 502.64C386.06 503.1 385.34 504.04 384.98 504.68C380.54 502.38 378.5 497.78 377.32 491.74L379.44 491.36ZM368.66 504.22L368.32 501.92L369.3 501.08L375.74 498.86C375.74 499.56 375.88 500.58 376 501.12C370.2 503.3 369.26 503.76 368.66 504.22ZM368.66 504.22C368.54 503.54 368.16 502.34 367.76 501.74C368.16 501.56 368.5 501.22 368.5 500.46V493H370.92V502.46C370.92 502.46 368.66 503.4 368.66 504.22ZM368.3 487.26H375.76V495.36H368.98V493H373.38V489.62H368.3V487.26ZM395.16 489.6H400.6V490.82H395.16V489.6ZM395.16 491.48H400.6V492.72H395.16V491.48ZM394.72 487.66H401V488.96H394.72V487.66ZM396.64 494.7V495.9H399.04V494.7H396.64ZM395.22 493.46H400.52V497.14H395.22V493.46ZM392.86 491.24L394.14 490.88C394.54 491.74 394.92 492.88 395.02 493.58L393.66 494C393.58 493.3 393.24 492.12 392.86 491.24ZM389.26 490.92C389.18 490.58 388.9 489.8 388.72 489.38C389 489.32 389.28 489.1 389.54 488.76C389.82 488.46 390.74 487.18 391.26 485.94L392.9 486.46C392.2 487.82 391.24 489.18 390.42 490.04V490.06C390.42 490.06 389.26 490.56 389.26 490.92ZM389.26 490.92L389.24 489.8L390 489.34L392.9 489.24C392.82 489.62 392.72 490.22 392.7 490.54C390.1 490.7 389.56 490.78 389.26 490.92ZM389.32 494.06C389.22 493.74 388.98 492.96 388.8 492.54C389.18 492.48 389.58 492.18 390.04 491.76C390.54 491.32 392.1 489.64 393.16 487.94L394.7 488.64C393.44 490.4 391.92 492.1 390.5 493.22V493.26C390.5 493.26 389.32 493.72 389.32 494.06ZM389.32 494.06L389.26 492.96L390 492.48L394.32 492.06C394.22 492.44 394.18 493 394.18 493.3C390.28 493.76 389.66 493.9 389.32 494.06ZM390.98 494.58L392.32 494.3C392.52 495.2 392.68 496.4 392.72 497.18L391.3 497.5C391.3 496.7 391.14 495.5 390.98 494.58ZM389.12 494.32L390.52 494.58C390.44 495.82 390.24 497.14 389.92 498.02C389.64 497.82 389.04 497.48 388.68 497.3C389 496.48 389.08 495.38 389.12 494.32ZM392.88 494.48L394.12 494.12C394.38 494.92 394.66 495.96 394.76 496.62L393.46 497.04C393.38 496.34 393.12 495.28 392.88 494.48ZM396.58 486.42L398.34 485.82C398.72 486.46 399.1 487.36 399.2 487.94L397.34 488.62C397.24 488.02 396.92 487.12 396.58 486.42ZM404.98 490.96L406.3 490.62C406.7 491.54 407.08 492.78 407.18 493.54L405.8 493.96C405.7 493.18 405.36 491.92 404.98 490.96ZM401.32 490.94C401.24 490.6 400.96 489.84 400.8 489.42C401.06 489.36 401.34 489.14 401.62 488.82C401.88 488.5 402.8 487.28 403.32 486.04L404.94 486.56C404.24 487.9 403.3 489.22 402.48 490.06V490.08C402.48 490.08 401.32 490.58 401.32 490.94ZM401.32 490.94L401.3 489.84L402.04 489.42L404.96 489.3C404.86 489.68 404.78 490.26 404.76 490.56C402.18 490.72 401.62 490.8 401.32 490.94ZM401.44 493.98C401.36 493.64 401.12 492.9 400.94 492.5C401.32 492.44 401.7 492.16 402.16 491.7C402.64 491.28 404.12 489.64 405.14 487.98L406.64 488.66C405.44 490.34 404.04 492.02 402.72 493.14V493.16C402.72 493.16 401.44 493.62 401.44 493.98ZM401.44 493.98L401.4 492.86L402.14 492.4L406.42 491.96C406.34 492.34 406.3 492.92 406.3 493.2C402.42 493.68 401.8 493.8 401.44 493.98ZM403.2 494.5L404.54 494.26C404.76 495.16 404.92 496.34 404.94 497.1L403.54 497.4C403.54 496.62 403.42 495.42 403.2 494.5ZM401.32 494.26L402.8 494.6C402.68 495.66 402.42 496.92 402.18 497.74C401.86 497.5 401.24 497.18 400.88 497.02C401.12 496.22 401.24 495.18 401.32 494.26ZM405.14 494.3L406.4 494C406.72 494.88 407.02 496.08 407.12 496.84L405.8 497.22C405.7 496.44 405.42 495.22 405.14 494.3ZM393.32 498.18H406.34V499.92H393.32V498.18ZM401.96 498.78L404.18 499.44C401.42 503.18 395.66 504.36 389.72 504.94C389.52 504.42 388.98 503.48 388.62 503C394.44 502.72 399.92 501.72 401.96 498.78ZM393.96 496.9L396.02 497.52C394.7 499.6 392.38 501.28 390.04 502.28C389.78 501.82 389.12 500.9 388.72 500.46C390.86 499.74 392.92 498.46 393.96 496.9ZM393.92 499.32C396.44 501.52 401.68 502.66 407.38 502.96C406.94 503.42 406.42 504.3 406.18 504.86C400.38 504.4 395.22 503.02 392.14 500.14L393.92 499.32ZM409.86 490.84H428.1V493.16H409.86V490.84ZM412.58 486.6H415.08V501.38H427.6V503.72H412.58V486.6ZM417.78 486.18H420.18V496.94H422.94V486.38H425.46V499.14H417.78V486.18ZM435.28 491.86V493.32H444.72V491.86H435.28ZM435.28 488.64V490.06H444.72V488.64H435.28ZM432.88 486.7H447.22V495.24H432.88V486.7ZM442.74 493.98C444.06 495.78 446.66 497.26 449.46 497.96C448.92 498.44 448.2 499.38 447.86 500C444.92 499.04 442.32 497.12 440.72 494.72L442.74 493.98ZM437.28 493.96L439.4 494.78C437.78 497.1 435.08 499.06 432.24 500.08C431.88 499.48 431.16 498.58 430.64 498.1C433.34 497.34 435.96 495.76 437.28 493.96ZM435.86 497.62H438.34V499C438.34 500.92 437.76 503.48 433.76 504.94C433.44 504.34 432.64 503.44 432.12 502.98C435.46 501.9 435.86 500.2 435.86 498.92V497.62ZM438.78 487.68H441.2V494.28H438.78V487.68ZM441.96 497.66H444.46V504.74H441.96V497.66Z" fill="#282828"/>
<defs>
<filter id="filter0_d_274_15" x="205.84" y="246.696" width="250.896" height="65.272" filterUnits="userSpaceOnUse" color-interpolation-filters="sRGB">
<feFlood flood-opacity="0" result="BackgroundImageFix"/>
<feColorMatrix in="SourceAlpha" type="matrix" values="0 0 0 0 0 0 0 0 0 0 0 0 0 0 0 0 0 0 127 0" result="hardAlpha"/>
<feOffset dx="2" dy="2"/>
<feComposite in2="hardAlpha" operator="out"/>
<feColorMatrix type="matrix" values="0 0 0 0 0 0 0 0 0 0 0 0 0 0 0 0 0 0 0.5 0"/>
<feBlend mode="normal" in2="BackgroundImageFix" result="effect1_dropShadow_274_15"/>
<feBlend mode="normal" in="SourceGraphic" in2="effect1_dropShadow_274_15" result="shape"/>
</filter>
<filter id="filter1_d_274_15" x="207.424" y="337.9" width="97.5219" height="63.6" filterUnits="userSpaceOnUse" color-interpolation-filters="sRGB">
<feFlood flood-opacity="0" result="BackgroundImageFix"/>
<feColorMatrix in="SourceAlpha" type="matrix" values="0 0 0 0 0 0 0 0 0 0 0 0 0 0 0 0 0 0 127 0" result="hardAlpha"/>
<feOffset dx="2" dy="2"/>
<feComposite in2="hardAlpha" operator="out"/>
<feColorMatrix type="matrix" values="0 0 0 0 0 0 0 0 0 0 0 0 0 0 0 0 0 0 0.5 0"/>
<feBlend mode="normal" in2="BackgroundImageFix" result="effect1_dropShadow_274_15"/>
<feBlend mode="normal" in="SourceGraphic" in2="effect1_dropShadow_274_15" result="shape"/>
</filter>
<filter id="filter2_d_274_15" x="321.17" y="335.57" width="289.14" height="68.01" filterUnits="userSpaceOnUse" color-interpolation-filters="sRGB">
<feFlood flood-opacity="0" result="BackgroundImageFix"/>
<feColorMatrix in="SourceAlpha" type="matrix" values="0 0 0 0 0 0 0 0 0 0 0 0 0 0 0 0 0 0 127 0" result="hardAlpha"/>
<feOffset dx="2" dy="2"/>
<feComposite in2="hardAlpha" operator="out"/>
<feColorMatrix type="matrix" values="0 0 0 0 0 0 0 0 0 0 0 0 0 0 0 0 0 0 0.5 0"/>
<feBlend mode="normal" in2="BackgroundImageFix" result="effect1_dropShadow_274_15"/>
<feBlend mode="normal" in="SourceGraphic" in2="effect1_dropShadow_274_15" result="shape"/>
</filter>
<filter id="filter3_d_274_15" x="200.68" y="424.8" width="413.719" height="23.24" filterUnits="userSpaceOnUse" color-interpolation-filters="sRGB">
<feFlood flood-opacity="0" result="BackgroundImageFix"/>
<feColorMatrix in="SourceAlpha" type="matrix" values="0 0 0 0 0 0 0 0 0 0 0 0 0 0 0 0 0 0 127 0" result="hardAlpha"/>
<feOffset dx="2" dy="2"/>
<feComposite in2="hardAlpha" operator="out"/>
<feColorMatrix type="matrix" values="0 0 0 0 0 0 0 0 0 0 0 0 0 0 0 0 0 0 0.5 0"/>
<feBlend mode="normal" in2="BackgroundImageFix" result="effect1_dropShadow_274_15"/>
<feBlend mode="normal" in="SourceGraphic" in2="effect1_dropShadow_274_15" result="shape"/>
</filter>
</defs>
</svg>
