<svg width="630" height="644" viewBox="0 0 630 644" fill="none" xmlns="http://www.w3.org/2000/svg">
<path d="M151 64L51 163" stroke="white" stroke-width="3" stroke-linecap="round"/>
<path d="M36 178L2 212" stroke="white" stroke-width="3" stroke-linecap="round"/>
<path d="M102 194V643" stroke="white" stroke-width="3"/>
<path d="M149 147H484.5V219.5" stroke="white" stroke-width="3"/>
<path d="M293 2L102 193" stroke="#FDD856" stroke-width="3" stroke-linecap="round"/>
<path d="M137 642.5H484.5V552" stroke="#FDD856" stroke-width="3"/>
<g filter="url(#filter0_d_160_3)">
<path d="M225.904 309.968C219.744 309.968 214.845 308.237 211.208 304.776C207.629 301.256 205.84 296.533 205.84 290.608V265.792C205.84 259.925 207.629 255.291 211.208 251.888C214.845 248.427 219.744 246.696 225.904 246.696C232.064 246.696 236.963 248.427 240.6 251.888C244.296 255.291 246.144 259.925 246.144 265.792V290.608C246.144 296.533 244.296 301.256 240.6 304.776C236.963 308.237 232.064 309.968 225.904 309.968ZM225.904 301.08C228.955 301.08 231.389 300.2 233.208 298.44C235.027 296.621 235.936 294.187 235.936 291.136V265.44C235.936 262.389 235.027 259.984 233.208 258.224C231.389 256.405 228.955 255.496 225.904 255.496C222.912 255.496 220.507 256.405 218.688 258.224C216.928 259.984 216.048 262.389 216.048 265.44V291.136C216.048 294.187 216.928 296.621 218.688 298.44C220.507 300.2 222.912 301.08 225.904 301.08ZM280.32 309.968C274.16 309.968 269.261 308.237 265.624 304.776C262.045 301.256 260.256 296.533 260.256 290.608V265.792C260.256 259.925 262.045 255.291 265.624 251.888C269.261 248.427 274.16 246.696 280.32 246.696C286.48 246.696 291.378 248.427 295.016 251.888C298.712 255.291 300.56 259.925 300.56 265.792V290.608C300.56 296.533 298.712 301.256 295.016 304.776C291.378 308.237 286.48 309.968 280.32 309.968ZM280.32 301.08C283.37 301.08 285.805 300.2 287.624 298.44C289.442 296.621 290.352 294.187 290.352 291.136V265.44C290.352 262.389 289.442 259.984 287.624 258.224C285.805 256.405 283.37 255.496 280.32 255.496C277.328 255.496 274.922 256.405 273.104 258.224C271.344 259.984 270.464 262.389 270.464 265.44V291.136C270.464 294.187 271.344 296.621 273.104 298.44C274.922 300.2 277.328 301.08 280.32 301.08ZM350.575 278.64C352.159 281.632 352.951 285.269 352.951 289.552C352.951 293.131 352.365 296.269 351.191 298.968C349.783 302.371 347.554 305.011 344.503 306.888C341.511 308.707 337.903 309.616 333.679 309.616C329.279 309.616 325.525 308.619 322.415 306.624C319.306 304.571 317.077 301.725 315.727 298.088C314.789 295.624 314.319 292.749 314.319 289.464V262.624C314.319 259.456 315.111 256.669 316.695 254.264C318.279 251.859 320.479 250.011 323.295 248.72C326.17 247.371 329.455 246.696 333.151 246.696C336.73 246.696 339.898 247.341 342.655 248.632C345.471 249.923 347.642 251.741 349.167 254.088C350.751 256.435 351.543 259.133 351.543 262.184V264.12C351.543 264.413 351.426 264.677 351.191 264.912C351.015 265.088 350.781 265.176 350.487 265.176H342.391C342.098 265.176 341.834 265.088 341.599 264.912C341.423 264.677 341.335 264.413 341.335 264.12V263.504C341.335 261.157 340.543 259.251 338.959 257.784C337.434 256.259 335.469 255.496 333.063 255.496C330.599 255.496 328.546 256.288 326.903 257.872C325.319 259.397 324.527 261.392 324.527 263.856V273.448C324.527 273.624 324.586 273.741 324.703 273.8C324.821 273.859 324.938 273.829 325.055 273.712C327.519 271.307 330.922 270.104 335.263 270.104C338.725 270.104 341.746 270.837 344.327 272.304C346.967 273.771 349.05 275.883 350.575 278.64ZM341.423 295.976C342.303 294.216 342.743 292.133 342.743 289.728C342.743 287.088 342.245 284.829 341.247 282.952C339.605 280.136 337.053 278.728 333.591 278.728C329.954 278.728 327.373 280.195 325.847 283.128C324.967 284.888 324.527 287.176 324.527 289.992C324.527 292.397 324.909 294.363 325.671 295.888C327.079 299.115 329.719 300.728 333.591 300.728C337.287 300.728 339.898 299.144 341.423 295.976ZM401.377 258.312C402.316 260.776 402.785 263.651 402.785 266.936V293.776C402.785 296.944 401.993 299.731 400.409 302.136C398.825 304.541 396.596 306.419 393.721 307.768C390.905 309.059 387.649 309.704 383.953 309.704C380.375 309.704 377.177 309.059 374.361 307.768C371.604 306.477 369.433 304.659 367.849 302.312C366.324 299.965 365.561 297.267 365.561 294.216V292.28C365.561 291.987 365.649 291.752 365.825 291.576C366.06 291.341 366.324 291.224 366.617 291.224H374.713C375.007 291.224 375.241 291.341 375.417 291.576C375.652 291.752 375.769 291.987 375.769 292.28V292.896C375.769 295.243 376.532 297.179 378.057 298.704C379.583 300.171 381.548 300.904 383.953 300.904C386.476 300.904 388.529 300.141 390.113 298.616C391.756 297.032 392.577 295.008 392.577 292.544V282.864C392.577 282.688 392.519 282.571 392.401 282.512C392.284 282.453 392.167 282.483 392.049 282.6C389.527 285.064 386.095 286.296 381.753 286.296C378.292 286.296 375.241 285.563 372.601 284.096C370.02 282.629 367.996 280.517 366.529 277.76C364.887 274.827 364.065 271.189 364.065 266.848C364.065 263.269 364.652 260.131 365.825 257.432C367.233 254.088 369.463 251.477 372.513 249.6C375.564 247.723 379.172 246.784 383.337 246.784C387.737 246.784 391.492 247.811 394.601 249.864C397.769 251.859 400.028 254.675 401.377 258.312ZM391.169 273.272C392.108 271.395 392.577 269.107 392.577 266.408C392.577 264.179 392.196 262.213 391.433 260.512C390.025 257.285 387.385 255.672 383.513 255.672C379.759 255.672 377.119 257.256 375.593 260.424C374.713 262.36 374.273 264.443 374.273 266.672C374.273 269.312 374.801 271.571 375.857 273.448C377.5 276.264 380.023 277.672 383.425 277.672C387.063 277.672 389.644 276.205 391.169 273.272ZM452.36 278.64C453.944 281.632 454.736 285.269 454.736 289.552C454.736 293.131 454.149 296.269 452.976 298.968C451.568 302.371 449.338 305.011 446.288 306.888C443.296 308.707 439.688 309.616 435.464 309.616C431.064 309.616 427.309 308.619 424.2 306.624C421.09 304.571 418.861 301.725 417.512 298.088C416.573 295.624 416.104 292.749 416.104 289.464V262.624C416.104 259.456 416.896 256.669 418.48 254.264C420.064 251.859 422.264 250.011 425.08 248.72C427.954 247.371 431.24 246.696 434.936 246.696C438.514 246.696 441.682 247.341 444.44 248.632C447.256 249.923 449.426 251.741 450.952 254.088C452.536 256.435 453.328 259.133 453.328 262.184V264.12C453.328 264.413 453.21 264.677 452.976 264.912C452.8 265.088 452.565 265.176 452.272 265.176H444.176C443.882 265.176 443.618 265.088 443.384 264.912C443.208 264.677 443.12 264.413 443.12 264.12V263.504C443.12 261.157 442.328 259.251 440.744 257.784C439.218 256.259 437.253 255.496 434.848 255.496C432.384 255.496 430.33 256.288 428.688 257.872C427.104 259.397 426.312 261.392 426.312 263.856V273.448C426.312 273.624 426.37 273.741 426.488 273.8C426.605 273.859 426.722 273.829 426.84 273.712C429.304 271.307 432.706 270.104 437.048 270.104C440.509 270.104 443.53 270.837 446.112 272.304C448.752 273.771 450.834 275.883 452.36 278.64ZM443.208 295.976C444.088 294.216 444.528 292.133 444.528 289.728C444.528 287.088 444.029 284.829 443.032 282.952C441.389 280.136 438.837 278.728 435.376 278.728C431.738 278.728 429.157 280.195 427.632 283.128C426.752 284.888 426.312 287.176 426.312 289.992C426.312 292.397 426.693 294.363 427.456 295.888C428.864 299.115 431.504 300.728 435.376 300.728C439.072 300.728 441.682 299.144 443.208 295.976Z" fill="white"/>
</g>
<g filter="url(#filter1_d_160_3)">
<path d="M249.048 345.644C249.048 345.937 248.931 346.201 248.696 346.436C248.52 346.612 248.285 346.7 247.992 346.7H218.072C217.779 346.7 217.632 346.847 217.632 347.14V363.596C217.632 363.889 217.779 364.036 218.072 364.036H238.224C238.517 364.036 238.752 364.153 238.928 364.388C239.163 364.564 239.28 364.799 239.28 365.092V371.78C239.28 372.073 239.163 372.337 238.928 372.572C238.752 372.748 238.517 372.836 238.224 372.836H218.072C217.779 372.836 217.632 372.983 217.632 373.276V398.444C217.632 398.737 217.515 399.001 217.28 399.236C217.104 399.412 216.869 399.5 216.576 399.5H208.48C208.187 399.5 207.923 399.412 207.688 399.236C207.512 399.001 207.424 398.737 207.424 398.444V338.956C207.424 338.663 207.512 338.428 207.688 338.252C207.923 338.017 208.187 337.9 208.48 337.9H247.992C248.285 337.9 248.52 338.017 248.696 338.252C248.931 338.428 249.048 338.663 249.048 338.956V345.644ZM301.89 337.9C302.183 337.9 302.418 338.017 302.594 338.252C302.829 338.428 302.946 338.663 302.946 338.956V345.732C302.946 346.025 302.829 346.289 302.594 346.524C302.418 346.7 302.183 346.788 301.89 346.788H285.698C285.405 346.788 285.258 346.935 285.258 347.228V398.444C285.258 398.737 285.141 399.001 284.906 399.236C284.73 399.412 284.495 399.5 284.202 399.5H276.106C275.813 399.5 275.549 399.412 275.314 399.236C275.138 399.001 275.05 398.737 275.05 398.444V347.228C275.05 346.935 274.903 346.788 274.61 346.788H259.034C258.741 346.788 258.477 346.7 258.242 346.524C258.066 346.289 257.978 346.025 257.978 345.732V338.956C257.978 338.663 258.066 338.428 258.242 338.252C258.477 338.017 258.741 337.9 259.034 337.9H301.89Z" fill="white"/>
</g>
<g filter="url(#filter2_d_160_3)">
<path d="M360.93 339.77V345.65H380.39V339.77H360.93ZM377.31 339.77V340.82C376.96 352.02 376.68 355.94 375.91 356.92C375.49 357.55 374.93 357.69 374.23 357.69C373.53 357.69 372.27 357.69 370.66 357.48C371.64 359.16 372.2 361.82 372.34 363.85C374.79 363.92 376.96 363.85 378.36 363.57C379.97 363.36 381.3 362.87 382.35 361.47C383.89 359.72 384.31 354.54 384.73 342.36C384.8 341.52 384.8 339.77 384.8 339.77H377.31ZM344.97 337.53V364.55H351.83V337.53H344.97ZM366.67 343.34C366.11 349.99 364.5 356.64 358.41 360.49C359.95 361.47 361.98 363.71 362.89 365.18C370.45 360.07 372.55 352.02 373.39 343.34H366.67ZM337.34 340.26V345.58H359.25V340.26H337.34ZM338.46 348.1V353.28H358.55V348.1H338.46ZM367.51 389.75C371.92 392.76 377.8 396.96 380.53 399.69L385.71 394.79C382.77 392.27 376.75 388.28 372.41 385.55L367.51 389.75ZM356.94 382.96V394.16C356.94 394.79 356.73 394.93 355.96 394.93C355.12 394.93 352.53 394.93 350.01 394.86C350.99 396.54 352.04 398.99 352.32 400.81C356.45 400.81 359.46 400.74 361.91 399.83C364.29 398.85 364.78 397.17 364.78 394.3V382.96H356.94ZM370.52 374.84C374.09 378.62 378.08 383.52 379.55 386.74L385.99 383.59C384.38 380.58 380.11 375.75 376.33 372.11L370.52 374.84ZM341.61 376.66C341.61 375.75 347.49 374.35 347.49 374.35V374.21C353.3 371.9 358.76 368.89 362.75 366.09L356.1 362.38C351.97 366.02 345.95 369.45 343.92 370.36C341.96 371.27 340.42 371.83 338.74 372.04C339.72 373.3 341.19 375.68 341.61 376.66ZM341.61 376.66C343.78 376.1 346.93 375.54 363.66 374.7C363.73 373.65 364.15 371.76 364.78 370.36L345.95 370.92L341.33 372.6L341.61 376.66ZM341.05 385.69C341.05 384.85 347.07 383.45 347.07 383.45V383.24C356.94 379.81 367.16 375.05 375.56 369.66L368 366.65C360.44 372.18 349.59 377.36 345.95 378.69C342.73 380.02 340.49 380.79 338.11 381.07C339.16 382.33 340.56 384.71 341.05 385.69ZM341.05 385.69C344.27 384.92 349.1 384.64 378.78 383.03C378.78 381.77 379.2 379.32 379.9 377.71L346.44 379.25L340.63 381.07L341.05 385.69ZM322.43 340.89C325.72 343.55 329.78 347.47 331.74 350.06L336.85 344.53C334.89 341.94 330.48 338.37 327.26 335.99L322.43 340.89ZM321.17 360.56C324.6 363.15 329.08 367 331.18 369.45L336.22 363.43C333.98 361.05 329.29 357.55 326 355.17L321.17 360.56ZM321.59 396.47L328.52 400.74C331.18 393.81 333.91 385.69 336.08 378.13L329.92 373.79C327.4 382.05 324.04 390.94 321.59 396.47ZM346.86 385.76C344.34 388.56 339.23 391.99 334.82 393.81C336.22 395.21 338.11 397.38 339.09 398.85C343.78 396.82 349.45 393.32 352.88 389.82L346.86 385.76ZM337.2 356.29L337.76 362.17C343.92 361.61 351.76 360.91 359.46 360.14L359.39 354.82C351.13 355.38 342.94 355.94 337.2 356.29ZM412.38 367.7V374.84H459.98V367.7H412.38ZM430.93 360.91V392.48C430.93 393.46 430.65 393.74 429.53 393.74C428.41 393.74 424.7 393.74 421.34 393.6C422.32 395.77 423.37 398.92 423.65 401.09C428.9 401.09 432.68 401.02 435.34 399.83C438 398.71 438.77 396.68 438.77 392.62V360.91H430.93ZM449.83 335.64C441.36 338.16 426.87 339.91 414.27 340.75C415.04 342.43 415.95 345.37 416.16 347.19C429.25 346.42 444.58 344.74 455.43 341.59L449.83 335.64ZM416.58 357.34V363.99H447.87V378.83H415.95V385.48H455.15V357.34H416.58ZM415.74 349.71C417.56 352.37 419.31 356.01 420.01 358.46L426.03 355.45C425.33 353.07 423.51 349.64 421.55 347.12L415.74 349.71ZM429.67 347.61C431.21 350.55 432.82 354.61 433.31 357.2L439.68 354.89C439.05 352.3 437.51 348.45 435.76 345.65L429.67 347.61ZM448.15 344.53C446.96 347.68 444.58 352.16 442.62 354.96L449.55 356.92C451.44 354.33 453.75 350.48 455.92 346.49L448.15 344.53ZM397.12 342.5C401.25 344.53 406.43 347.96 408.88 350.48L413.29 343.69C410.7 341.17 405.31 338.09 401.25 336.34L397.12 342.5ZM393.41 361.89C397.54 363.78 402.86 367.07 405.38 369.45L409.58 362.52C406.85 360.14 401.39 357.2 397.26 355.59L393.41 361.89ZM395.37 394.79L401.74 400.46C405.52 393.67 409.58 385.83 412.87 378.55L407.41 372.95C403.63 381 398.73 389.61 395.37 394.79ZM491.27 360.77V393.53C491.27 394.37 490.99 394.65 490.08 394.65C489.24 394.65 486.44 394.72 483.99 394.58C484.97 396.33 486.16 399.13 486.51 401.09C490.78 401.09 493.93 400.95 496.24 399.9C498.48 398.78 499.18 397.03 499.18 393.53V360.77H491.27ZM476.43 360.77V367.77H495.68V360.77H476.43ZM504.29 368.54V390.66C504.29 398.43 506.39 400.81 514.65 400.81C516.33 400.81 522.84 400.81 524.66 400.81C531.24 400.81 533.48 398.15 534.39 388.84C532.15 388.42 528.79 387.09 527.04 385.83C526.69 392.34 526.2 393.46 523.89 393.46C522.28 393.46 517.03 393.46 515.84 393.46C513.11 393.46 512.62 393.18 512.62 390.59V368.54H504.29ZM488.4 343.2C491.27 348.45 494.84 355.59 496.31 359.93L503.59 356.92C501.91 352.72 498.2 345.79 495.26 340.75L488.4 343.2ZM509.54 344.04V351.25H529.91V344.04H509.54ZM509.61 375.54V382.96H530.4V375.54H509.61ZM471.74 358.53C471.74 357.13 476.36 354.61 476.36 354.61V354.54C480.77 350.62 486.09 344.18 489.8 338.09L481.33 335.57C478.67 341.17 474.4 346.63 473 348.1C471.6 349.64 470.41 350.69 469.15 350.97C469.99 353.07 471.32 356.92 471.74 358.53ZM471.74 358.53C473.91 357.62 477.13 357.13 498.62 355.03C498.13 353.35 497.43 350.55 497.08 348.45L475.31 350.13L471.46 352.51L471.74 358.53ZM472.51 360.77V376.52C472.51 382.68 472.16 390.38 468.38 395.91C469.99 396.96 473.14 399.97 474.26 401.58C479.3 394.93 480.21 384.29 480.21 376.66V360.77H472.51ZM478.6 386.25L481.05 393.32C485.39 390.45 490.29 387.09 495.05 383.73L493.44 378.76C487.91 381.63 482.38 384.57 478.6 386.25ZM479.44 373.51C482.24 375.75 486.02 378.97 487.84 380.93L492.32 376.66C490.36 374.84 486.58 371.83 483.78 369.73L479.44 373.51ZM504.29 335.78V355.66C504.29 363.57 506.6 366.58 515 366.58C516.68 366.58 523.82 366.58 525.71 366.58C528.37 366.58 531.38 366.44 532.78 366.02C532.5 364.06 532.22 360.98 532.08 358.81C530.54 359.23 527.53 359.37 525.57 359.37C523.61 359.37 516.96 359.37 515.21 359.37C513.04 359.37 512.62 358.46 512.62 355.87V335.78H504.29ZM565.12 339.21V346.77H606.56V339.21H565.12ZM562.6 339.21V358.6C562.6 370.01 561.9 385.97 554.06 396.89C556.02 397.73 559.59 399.97 561.13 401.37C569.46 389.68 570.72 371.06 570.72 358.6V339.21H562.6ZM580.66 368.26H596.83V372.11H580.66V368.26ZM580.66 358.81H596.83V362.59H580.66V358.81ZM573.17 352.79V378.13H604.6V352.79H573.17ZM574.36 380.93C572.61 385.27 569.88 390.17 567.15 393.46C568.97 394.44 572.12 396.33 573.73 397.52C576.32 393.88 579.68 388.07 581.78 383.03L574.36 380.93ZM594.24 382.89C596.55 387.37 599.35 393.32 600.61 396.89L608.31 393.53C606.91 390.1 603.83 384.36 601.52 380.09L594.24 382.89ZM584.37 346.49C583.88 348.87 582.83 352.3 581.85 354.75L588.57 356.57C590.11 354.54 592 351.39 593.89 348.17L584.37 346.49ZM584.3 375.61V393.18C584.3 393.88 584.02 394.09 583.25 394.16C582.41 394.16 579.54 394.16 577.09 394.09C578 396.12 578.98 399.13 579.26 401.23C583.6 401.3 586.89 401.23 589.27 400.11C591.79 398.99 592.28 396.96 592.28 393.39V375.61H584.3ZM544.75 342.08C548.39 344.32 553.71 347.61 556.23 349.64L561.27 342.92C558.54 341.03 553.15 338.02 549.65 336.13L544.75 342.08ZM541.39 361.05C545.03 363.15 550.28 366.3 552.87 368.19L557.84 361.4C555.11 359.65 549.72 356.78 546.22 354.96L541.39 361.05ZM542.3 395.91L549.93 400.39C553.08 393.46 556.3 385.41 558.96 377.85L552.1 373.23C549.16 381.49 545.17 390.38 542.3 395.91Z" fill="white"/>
</g>
<g filter="url(#filter3_d_160_3)">
<path d="M203.68 446.04L205.5 445.28C203.82 442.36 203.06 438.98 203.06 435.7C203.06 432.44 203.82 429.06 205.5 426.14L203.68 425.36C201.78 428.44 200.68 431.72 200.68 435.7C200.68 439.7 201.78 442.96 203.68 446.04ZM208.719 428.9V431.34H226.419V428.9H208.719ZM212.059 437.98V440.42H222.959V437.98H212.059ZM216.259 425.02V443.8H218.819V425.02H216.259ZM214.239 429.78C213.079 433.38 210.759 437 208.019 438.86C208.579 439.34 209.379 440.22 209.799 440.82C212.739 438.52 215.059 434.68 216.439 430.42L214.239 429.78ZM220.779 429.84L218.599 430.46C219.959 434.64 222.199 438.48 225.079 440.74C225.519 440.06 226.379 439.1 226.999 438.62C224.239 436.78 221.939 433.32 220.779 429.84ZM230.259 426.54V428.48H246.939V426.54H230.259ZM230.999 441.28V443.24H246.299V441.28H230.999ZM234.439 429.34V431.02H242.599V429.34H234.439ZM234.439 431.9V433.58H242.599V431.9H234.439ZM229.199 434.46V436.42H247.899V434.46H229.199ZM233.739 438.1V439.98H243.399V438.1H233.739ZM233.019 425.02V435.54H235.439V425.02H233.019ZM241.739 425.04V435.54H244.179V425.04H241.739ZM237.279 436.84V442.42H239.739V436.84H237.279ZM234.259 435.02C233.199 436.64 231.099 438.18 229.019 438.94C229.519 439.38 230.199 440.22 230.539 440.78C232.819 439.76 234.979 437.88 236.259 435.76L234.259 435.02ZM242.939 435.02L241.039 435.74C242.299 437.74 244.379 439.64 246.539 440.6C246.899 440.04 247.599 439.18 248.119 438.74C246.059 438 243.999 436.56 242.939 435.02ZM254.159 430.8V433.02H264.859V430.8H254.159ZM251.839 435.1V437.26H267.219V435.1H251.839ZM250.859 441.18V443.36H268.279V441.18H250.859ZM258.219 431.86V442.2H260.799V431.86H258.219ZM253.159 437.92C253.859 438.98 254.599 440.44 254.879 441.36L256.959 440.46C256.639 439.52 255.839 438.12 255.099 437.12L253.159 437.92ZM263.779 437.14C263.359 438.22 262.599 439.68 261.979 440.62L263.799 441.36C264.459 440.52 265.299 439.22 266.059 437.98L263.779 437.14ZM260.439 426.06L258.439 427.04C260.679 429.56 264.239 431.84 267.579 433C267.939 432.38 268.679 431.42 269.239 430.9C265.919 430 262.279 428.06 260.439 426.06ZM259.279 424.8C257.379 427.78 253.759 429.8 249.959 430.9C250.579 431.5 251.239 432.42 251.579 433.12C255.619 431.68 259.259 429.34 261.539 425.8L259.279 424.8ZM282.919 427.7V429.92H289.539V427.7H282.919ZM282.919 436.94V439.18H289.879V436.94H282.919ZM282.759 432.32V434.5H289.079V432.32H282.759ZM271.899 427.68V429.92H278.039V427.68H271.899ZM272.139 432.32V434.48H277.919V432.32H272.139ZM281.699 425.12V443.8H284.099V425.12H281.699ZM271.159 437.12L271.619 439.5C273.559 439.18 276.039 438.76 278.399 438.34L278.299 436.22C275.679 436.56 272.959 436.92 271.159 437.12ZM276.919 425.12V434.52C276.919 436.7 275.979 440.6 271.739 442.28C272.299 442.74 273.059 443.48 273.439 444.06C278.319 441.74 279.299 437.74 279.299 434.48V425.12H276.919ZM293.839 425.76V431.72C293.839 434.92 293.699 439.48 292.039 442.6C292.639 442.82 293.659 443.38 294.119 443.74C295.879 440.42 296.159 435.2 296.159 431.72V425.76H293.839ZM295.379 425.76V427.28H307.499V428.22H295.379V429.74H309.819V425.76H295.379ZM302.099 430.02V432.9H304.299V430.02H302.099ZM301.019 437.36V442.34H303.019V437.36H301.019ZM298.839 436.58V437.92H308.699V436.58H298.839ZM305.739 434.14H307.439V435.02H305.739V434.14ZM302.259 434.14H303.919V435.02H302.259V434.14ZM298.839 434.14H300.439V435.02H298.839V434.14ZM296.939 433.18V435.98H309.419V433.18H296.939ZM308.039 436.58V436.9C307.919 440.34 307.739 441.56 307.499 441.9C307.379 442.08 307.239 442.1 307.039 442.1C306.799 442.1 306.419 442.1 305.919 442.04C306.179 442.5 306.359 443.22 306.399 443.74C307.099 443.76 307.779 443.74 308.199 443.68C308.639 443.62 309.039 443.48 309.379 443.04C309.819 442.5 310.019 441.06 310.159 437.34C310.179 437.08 310.199 436.58 310.199 436.58H308.039ZM299.339 439.4H304.679V440.06H299.339V439.4ZM297.619 438.46V441H306.499V438.46H297.619ZM299.039 435.4C298.339 436.46 297.079 437.62 295.299 438.48C295.759 438.74 296.439 439.4 296.779 439.84C298.759 438.7 300.119 437.36 301.159 435.8L299.039 435.4ZM296.399 441.86L296.539 443.42C298.939 443.26 302.219 443.06 305.379 442.8L305.399 441.46C302.099 441.62 298.659 441.78 296.399 441.86ZM304.039 441.16C304.579 441.8 305.179 442.74 305.399 443.34L306.919 442.7C306.659 442.08 306.039 441.2 305.459 440.58L304.039 441.16ZM296.999 431.98L297.379 433.28C298.559 433.06 300.139 432.7 301.619 432.36L301.599 431.18C299.899 431.5 298.159 431.82 296.999 431.98ZM308.319 429.56C307.499 429.84 306.059 430.34 305.159 430.52L305.639 431.48C306.599 431.36 307.959 431.08 308.959 430.68L308.319 429.56ZM304.859 432.46C306.199 432.64 307.699 432.96 308.619 433.26L309.039 432.12C308.119 431.84 306.599 431.54 305.199 431.42L304.859 432.46ZM297.399 430.84C298.579 431 299.919 431.3 300.739 431.58L301.159 430.44C300.339 430.18 298.979 429.92 297.759 429.8L297.399 430.84ZM313.179 426.18V428.28H318.639V426.18H313.179ZM313.339 432V434.1H318.479V432H313.339ZM312.919 439.5L313.339 441.68C314.959 441.24 316.939 440.72 318.779 440.2L318.519 438.14C316.479 438.66 314.379 439.2 312.919 439.5ZM314.899 427.52V440.08L316.979 439.6V427.52H314.899ZM319.339 430.86V432.76H331.639V430.86H319.339ZM322.619 435.12H328.259V436.22H322.619V435.12ZM320.499 433.46V437.88H330.519V433.46H320.499ZM327.639 427.28H328.959V428.6H327.639V427.28ZM324.819 427.28H326.079V428.6H324.819V427.28ZM321.999 427.28H323.239V428.6H321.999V427.28ZM320.059 425.66V430.22H330.999V425.66H320.059ZM326.819 437.12L324.919 437.52C325.939 440.44 327.719 442.6 330.659 443.58C330.939 443.02 331.579 442.18 332.059 441.76C329.419 441.06 327.639 439.34 326.819 437.12ZM330.019 437.9C329.299 438.48 327.959 439.32 327.059 439.78L328.179 440.88C329.159 440.52 330.399 439.92 331.579 439.3L330.019 437.9ZM324.339 436.8C323.039 438 320.559 439.08 318.319 439.58C318.759 439.98 319.379 440.72 319.679 441.22C321.959 440.52 324.499 439.08 325.959 437.5L324.339 436.8ZM321.299 443.76C321.299 443.16 323.239 442.14 323.239 442.14V438.66L321.339 439.12V440.78C321.339 441.6 320.879 441.98 320.519 442.16C320.799 442.52 321.179 443.32 321.299 443.76ZM321.299 443.76C321.679 443.54 322.359 443.34 326.019 442.52C325.999 442.1 325.999 441.3 326.059 440.78L321.999 441.56L321.159 442.18L321.299 443.76ZM341.459 426.22V428.16H351.779V426.22H341.459ZM340.879 429.88V431.86H352.299V429.88H340.879ZM342.899 428.56C343.139 429.14 343.359 429.92 343.439 430.42L345.459 429.94C345.359 429.44 345.079 428.7 344.819 428.16L342.899 428.56ZM348.299 428.18C348.159 428.76 347.839 429.6 347.579 430.2L349.419 430.6C349.719 430.08 350.079 429.34 350.479 428.58L348.299 428.18ZM343.879 436.26H349.019V437.1H343.879V436.26ZM343.879 434.02H349.019V434.86H343.879V434.02ZM341.679 432.52V438.6H351.319V432.52H341.679ZM343.399 438.06C343.179 440.18 342.659 441.36 339.239 442.02C339.699 442.44 340.279 443.32 340.459 443.86C344.519 442.86 345.359 441.04 345.639 438.06H343.399ZM347.019 438.08V441.06C347.019 442.28 347.199 442.72 347.579 443.04C347.939 443.38 348.599 443.52 349.139 443.52C349.459 443.52 350.059 443.52 350.419 443.52C350.799 443.52 351.359 443.46 351.659 443.34C352.059 443.2 352.319 442.96 352.499 442.6C352.659 442.26 352.759 441.46 352.819 440.7C352.219 440.5 351.379 440.1 350.979 439.72C350.959 440.44 350.939 440.98 350.879 441.22C350.839 441.48 350.759 441.58 350.639 441.62C350.559 441.68 350.399 441.68 350.239 441.68C350.079 441.68 349.819 441.68 349.679 441.68C349.519 441.68 349.399 441.66 349.339 441.58C349.259 441.52 349.259 441.36 349.259 441.12V438.08H347.019ZM345.099 425.28C345.339 425.92 345.639 426.8 345.739 427.34L348.079 426.8C347.939 426.28 347.639 425.46 347.359 424.86L345.099 425.28ZM334.339 429.8V432.06H340.339V429.8H334.339ZM336.299 425.3V438.7H338.639V425.3H336.299ZM333.999 439L334.779 441.44C336.579 440.74 338.859 439.84 340.959 438.96L340.479 436.78C338.119 437.62 335.619 438.52 333.999 439ZM365.659 437.74L367.799 435.92C366.799 434.66 364.859 432.7 363.459 431.54L361.359 433.34C362.759 434.54 364.439 436.26 365.659 437.74ZM376.439 428.36V430.52H382.559V428.36H376.439ZM379.059 435.16V443.78H381.399V432.36L379.059 435.16ZM381.299 433.08L379.959 434.26C380.719 435.1 382.199 436.88 382.879 437.9L384.359 435.9C383.879 435.44 381.919 433.54 381.299 433.08ZM381.839 428.36V428.8C380.839 431.54 378.399 434.32 375.859 435.72C376.159 436.18 376.619 437.5 376.759 438.18C379.639 436.38 382.559 432.92 383.999 429.2L382.739 428.28L382.319 428.36H381.839ZM378.339 425.92C379.019 426.72 379.759 427.88 380.079 428.62L382.039 427.46C381.699 426.74 380.939 425.68 380.219 424.9L378.339 425.92ZM383.319 440.8V443.16H394.919V440.8H383.319ZM384.199 431.02V433.32H394.439V431.02H384.199ZM388.159 425.14V441.94H390.619V425.14H388.159ZM401.579 432.28H411.399V434.8H401.579V432.28ZM399.579 430.8V436.26H413.539V430.8H399.579ZM403.019 428.54V430.1H410.079V428.54H403.019ZM405.479 431.3V435.52H407.419V431.3H405.479ZM402.279 432.72C402.619 433.4 402.899 434.34 402.979 434.94L404.739 434.42C404.619 433.82 404.299 432.94 403.939 432.26L402.279 432.72ZM408.899 432.18C408.739 432.84 408.379 433.82 408.079 434.48L409.719 434.92C410.039 434.36 410.459 433.52 410.879 432.66L408.899 432.18ZM400.679 436.92V443.8H403.039V438.48H410.059V443.72H412.519V436.92H400.679ZM402.039 439.28V440.86H411.079V439.28H402.039ZM402.039 441.68V443.24H411.079V441.68H402.039ZM406.139 424.84C404.319 427.16 400.759 428.84 397.059 429.74C397.459 430.16 398.079 431.12 398.319 431.6C402.219 430.42 406.039 428.44 408.259 425.62L406.139 424.84ZM407.719 425.76L405.939 426.48C407.999 428.72 411.419 430.56 414.779 431.42C415.119 430.88 415.799 430.02 416.299 429.6C412.959 428.92 409.499 427.48 407.719 425.76ZM419.239 425.84V428.18H429.979V425.84H419.239ZM433.359 431.5V431.96C432.059 437.34 427.999 440.58 422.739 441.84C423.239 442.36 423.859 443.4 424.159 444.08C430.019 442.34 434.359 438.9 436.039 432.14L434.299 431.4L433.839 431.5H433.359ZM422.439 426.66V429.72C422.439 432.96 422.019 438.04 418.039 441.42C418.579 441.88 419.459 442.88 419.799 443.52C424.419 439.48 424.939 433.64 424.939 429.74V426.66H422.439ZM429.419 425.84C429.019 428.04 428.379 430.78 427.839 432.58H430.559C431.019 430.84 431.559 428.12 431.979 425.84H429.419ZM423.959 431.5L423.559 433.78H433.899V431.5H423.959ZM427.019 432.98L424.919 433.56C426.799 438.76 429.939 442.32 435.359 443.88C435.719 443.18 436.459 442.12 437.019 441.6C431.859 440.38 428.599 437.26 427.019 432.98ZM440.419 427C441.639 427.64 443.339 428.6 444.139 429.24L445.539 427.28C444.679 426.68 442.939 425.78 441.759 425.26L440.419 427ZM439.219 432.54C440.439 433.16 442.159 434.1 442.959 434.7L444.299 432.72C443.439 432.12 441.679 431.26 440.499 430.74L439.219 432.54ZM439.639 441.94L441.679 443.56C442.879 441.62 444.139 439.34 445.199 437.22L443.439 435.64C442.239 437.94 440.719 440.44 439.639 441.94ZM447.239 440.78V442.98H455.139V440.78H447.239ZM445.879 435.42V443.8H448.219V437.64H453.859V443.72H456.299V435.42H445.879ZM451.739 428.36C453.259 430.2 454.919 432.74 455.599 434.42L457.779 433.2C457.019 431.54 455.379 429.14 453.799 427.34L451.739 428.36ZM445.359 434.18C445.359 433.74 446.979 432.98 446.979 432.98V432.94C448.519 431.08 450.239 428.4 451.519 425.68L449.019 425C448.059 427.5 446.479 430.06 445.939 430.72C445.439 431.42 445.039 431.84 444.579 431.96C444.839 432.6 445.239 433.72 445.359 434.18ZM445.359 434.18C446.179 433.86 447.339 433.8 455.519 433.22C455.379 432.68 455.159 431.74 455.079 431.06L446.659 431.5L445.319 432.3L445.359 434.18ZM469.819 431.46H475.879V433.18H469.819V431.46ZM469.819 427.9H475.879V429.58H469.819V427.9ZM467.659 425.86V435.2H478.159V425.86H467.659ZM467.519 436.92V439.08H478.379V436.92H467.519ZM466.119 441V443.16H479.039V441H466.119ZM460.259 426.16V428.4H466.899V426.16H460.259ZM460.459 431.92V434.14H466.559V431.92H460.459ZM460.039 439.52L460.579 441.96C462.499 441.34 464.899 440.56 467.139 439.8L466.719 437.5C464.319 438.28 461.759 439.08 460.039 439.52ZM462.479 427.04V439.7L464.759 439.34V427.04H462.479ZM471.879 426.72V434.26H471.659V442.02H474.119V434.26H473.899V426.72H471.879ZM490.979 430.84V433H498.139V430.84H490.979ZM490.999 435.56V437.74H498.159V435.56H490.999ZM490.979 440.3V442.46H498.159V440.3H490.979ZM489.839 426.1V443.64H492.139V428.36H496.859V443.52H499.279V426.1H489.839ZM481.439 429.14V431.42H489.139V429.14H481.439ZM484.339 425.02V443.8H486.639V425.02H484.339ZM484.199 430.68C483.659 433.24 482.379 436.36 480.939 438.1C481.299 438.7 481.859 439.68 482.079 440.36C483.659 438.28 484.979 434.44 485.639 431.18L484.199 430.68ZM486.459 432.44L485.359 433.54C486.079 434.54 487.499 436.72 488.079 437.9L489.439 435.96C488.999 435.42 487.039 433 486.459 432.44ZM509.539 435.62C509.839 436.36 510.179 437.34 510.319 437.94L511.539 437.54C511.379 436.98 511.019 436.04 510.699 435.32L509.539 435.62ZM511.959 437.82V443.56H513.619V437.82H511.959ZM506.719 438.14V441.2H510.359V439.88H508.199V438.14H506.719ZM509.399 437.82V439.7C509.399 440.76 509.119 441.78 507.039 442.4C507.399 442.7 507.899 443.32 508.079 443.7C510.639 442.84 511.019 441.34 511.019 439.76V437.82H509.399ZM504.319 428.34V429.78H509.339V428.34H504.319ZM513.519 428.34V429.78H518.599V428.34H513.519ZM517.779 425.78V441.04C517.779 441.3 517.699 441.4 517.439 441.4C517.179 441.4 516.379 441.4 515.639 441.36C515.939 441.98 516.239 443.06 516.319 443.7C517.639 443.7 518.559 443.66 519.239 443.26C519.919 442.86 520.099 442.2 520.099 441.06V425.78H517.779ZM504.539 425.78V427.4H508.619V430.7H504.539V432.32H510.879V425.78H504.539ZM518.979 425.78H512.179V432.32H518.979V430.7H514.459V427.4H518.979V425.78ZM503.119 425.78V443.8H505.399V425.78H503.119ZM506.699 435.5C506.699 435.18 507.579 434.74 507.579 434.74V434.72C508.239 434.24 508.999 433.48 509.579 432.72L508.239 432C507.819 432.82 507.079 433.56 506.879 433.76C506.659 433.96 506.439 434.06 506.219 434.12C506.399 434.48 506.619 435.18 506.699 435.5ZM506.699 435.52C506.939 435.4 507.419 435.3 509.639 435.16C509.659 434.92 509.779 434.46 509.879 434.14L507.319 434.24L506.679 434.6L506.699 435.52ZM506.619 437.88C506.619 437.58 507.459 437.2 507.459 437.2V437.16C508.739 436.38 510.059 435.24 511.159 434.06L509.999 433.24C509.079 434.48 507.659 435.7 507.259 436C506.839 436.32 506.499 436.52 506.179 436.56C506.339 436.92 506.559 437.6 506.619 437.88ZM506.619 437.9C506.919 437.76 507.459 437.64 510.719 437.24C510.659 436.98 510.579 436.54 510.559 436.2L507.199 436.52L506.599 436.92L506.619 437.9ZM514.899 435.66C515.219 436.38 515.619 437.38 515.799 437.98L516.979 437.52C516.799 436.96 516.379 436.02 516.019 435.3L514.899 435.66ZM512.059 435.52C512.059 435.22 512.919 434.78 512.919 434.78V434.74C513.599 434.28 514.359 433.52 514.939 432.74L513.579 432.02C513.179 432.84 512.439 433.6 512.219 433.78C512.019 433.98 511.799 434.1 511.559 434.14C511.739 434.52 511.959 435.22 512.059 435.52ZM512.059 435.52C512.299 435.42 512.779 435.32 514.979 435.18C515.019 434.92 515.139 434.46 515.239 434.14L512.659 434.26L512.039 434.62L512.059 435.52ZM511.999 437.92C511.999 437.62 512.839 437.24 512.839 437.24V437.18C514.119 436.38 515.439 435.24 516.559 434.02L515.379 433.2C514.459 434.48 513.059 435.72 512.639 436.02C512.239 436.34 511.879 436.54 511.579 436.58C511.719 436.94 511.939 437.62 511.999 437.92ZM511.999 437.92C512.319 437.76 512.839 437.66 516.099 437.26C516.039 437 515.979 436.56 515.959 436.22L512.579 436.54L511.979 436.94L511.999 437.92ZM513.219 439.88V441.2H515.639V439.88H513.219ZM514.839 438.16V441.76H516.359V438.16H514.839ZM524.439 428.8V431.14H540.599V428.8H524.439ZM525.499 434.62V436.94H539.639V434.62H525.499ZM523.579 440.82V443.18H541.579V440.82H523.579ZM531.239 430.84V442.08H533.879V430.84H531.239ZM529.459 426.36C530.779 427.3 532.419 428.66 533.179 429.58L535.299 428.04C534.439 427.1 532.719 425.8 531.439 424.98L529.459 426.36ZM547.459 429.86H550.299V430.82H547.459V429.86ZM547.459 427.4H550.299V428.34H547.459V427.4ZM545.339 425.8V432.44H552.519V425.8H545.339ZM544.399 433.58V435.34H553.419V433.58H544.399ZM553.339 425.86V427.54H562.559V425.86H553.339ZM548.139 434.14V441.02L550.139 442.18V434.14H548.139ZM549.179 436.96V438.68H553.059V436.96H549.179ZM557.199 426.26C556.999 427.2 556.619 428.5 556.259 429.4L557.959 429.84C558.379 429.06 558.899 427.86 559.379 426.74L557.199 426.26ZM556.099 432.7H559.739V433.64H556.099V432.7ZM556.099 435.16H559.739V436.12H556.099V435.16ZM556.099 430.22H559.739V431.16H556.099V430.22ZM553.959 428.6V437.76H561.959V428.6H553.959ZM555.579 437.9C554.899 438.72 553.699 439.54 552.499 440.06C552.939 440.38 553.699 441.08 554.039 441.46C555.279 440.78 556.699 439.64 557.559 438.5L555.579 437.9ZM545.319 436.12C545.259 438.54 545.059 440.9 543.919 442.3C544.399 442.66 545.039 443.42 545.319 443.92C546.839 442.12 547.139 439.18 547.239 436.12H545.319ZM546.919 437.8L545.499 438.22C546.919 442.74 549.659 443.42 554.619 443.42H562.339C562.459 442.82 562.799 441.9 563.119 441.44C561.479 441.52 555.959 441.52 554.619 441.52C550.539 441.5 548.039 441.16 546.919 437.8ZM558.419 438.62C559.419 439.36 560.659 440.52 561.279 441.32L562.999 440.3C562.379 439.54 561.139 438.46 560.059 437.76L558.419 438.62ZM566.259 426.54V428.48H582.939V426.54H566.259ZM566.999 441.28V443.24H582.299V441.28H566.999ZM570.439 429.34V431.02H578.599V429.34H570.439ZM570.439 431.9V433.58H578.599V431.9H570.439ZM565.199 434.46V436.42H583.899V434.46H565.199ZM569.739 438.1V439.98H579.399V438.1H569.739ZM569.019 425.02V435.54H571.439V425.02H569.019ZM577.739 425.04V435.54H580.179V425.04H577.739ZM573.279 436.84V442.42H575.739V436.84H573.279ZM570.259 435.02C569.199 436.64 567.099 438.18 565.019 438.94C565.519 439.38 566.199 440.22 566.539 440.78C568.819 439.76 570.979 437.88 572.259 435.76L570.259 435.02ZM578.939 435.02L577.039 435.74C578.299 437.74 580.379 439.64 582.539 440.6C582.899 440.04 583.599 439.18 584.119 438.74C582.059 438 579.999 436.56 578.939 435.02ZM590.159 430.8V433.02H600.859V430.8H590.159ZM587.839 435.1V437.26H603.219V435.1H587.839ZM586.859 441.18V443.36H604.279V441.18H586.859ZM594.219 431.86V442.2H596.799V431.86H594.219ZM589.159 437.92C589.859 438.98 590.599 440.44 590.879 441.36L592.959 440.46C592.639 439.52 591.839 438.12 591.099 437.12L589.159 437.92ZM599.779 437.14C599.359 438.22 598.599 439.68 597.979 440.62L599.799 441.36C600.459 440.52 601.299 439.22 602.059 437.98L599.779 437.14ZM596.439 426.06L594.439 427.04C596.679 429.56 600.239 431.84 603.579 433C603.939 432.38 604.679 431.42 605.239 430.9C601.919 430 598.279 428.06 596.439 426.06ZM595.279 424.8C593.379 427.78 589.759 429.8 585.959 430.9C586.579 431.5 587.239 432.42 587.579 433.12C591.619 431.68 595.259 429.34 597.539 425.8L595.279 424.8ZM609.419 446.04C611.299 442.96 612.399 439.7 612.399 435.7C612.399 431.72 611.299 428.44 609.419 425.36L607.579 426.14C609.259 429.06 610.039 432.44 610.039 435.7C610.039 438.98 609.259 442.36 607.579 445.28L609.419 446.04Z" fill="white"/>
</g>
<g filter="url(#filter4_d_160_3)">
<path d="M323 473H468.273L485 496L468.273 519H323V473Z" fill="white"/>
</g>
<g filter="url(#filter5_d_160_3)">
<path d="M201 473H331.028L346 496L331.028 519H201V473Z" fill="#EAC852"/>
</g>
<path d="M226.78 489.62H243.26V492.04H226.78V489.62ZM225.88 501.62H244.12V504.04H225.88V501.62ZM229.28 493.2L231.68 492.6C232.44 495.14 233.18 498.3 233.52 500.46L230.94 501.14C230.7 499 229.94 495.68 229.28 493.2ZM238.32 492.66L241.02 493.18C240.16 496.52 238.94 500.22 237.92 502.6L235.54 502.04C236.6 499.6 237.74 495.66 238.32 492.66ZM233.12 486.38L235.5 485.78C235.92 486.8 236.36 488.12 236.6 489L234.08 489.72C233.92 488.82 233.48 487.42 233.12 486.38ZM248.64 490.86H254.7V493H248.64V490.86ZM248.58 487.02H256.28V496.96H248.58V494.82H253.88V489.16H248.58V487.02ZM247.82 504.38L247.56 502.22L248.5 501.42L254.2 499.78C254.38 500.44 254.7 501.32 254.92 501.84C249.3 503.62 248.4 503.96 247.82 504.38ZM252 498.48L254.06 497.46C255.06 499.1 256.3 501.3 256.84 502.7L254.6 503.9C254.14 502.48 252.98 500.2 252 498.48ZM247.82 504.38C247.68 503.68 247.26 502.5 246.88 501.92C247.32 501.7 247.82 501.3 247.82 500.52V487.02H250.26V502.52C250.26 502.52 247.82 503.44 247.82 504.38ZM262.22 487.16H264.58V498.72C264.58 499.82 264.42 500.46 263.74 500.84C263.08 501.22 262.16 501.26 260.86 501.26C260.8 500.6 260.52 499.6 260.22 498.98C260.92 499.02 261.68 499.02 261.9 499C262.14 499 262.22 498.94 262.22 498.68V487.16ZM257.42 487.16H263.38V489.36H259.82V504.8H257.42V487.16ZM278.16 487.08L279.94 486.26C281.34 487.24 283.16 488.7 284.1 489.76L282.18 490.68C281.36 489.7 279.6 488.14 278.16 487.08ZM272.42 491.84L274.1 491.36C274.62 492.2 275.14 493.34 275.32 494.08L273.56 494.62C273.4 493.88 272.92 492.7 272.42 491.84ZM282.52 491.74L284.18 491.06C284.96 492 285.8 493.3 286.14 494.2L284.36 494.96C284.06 494.08 283.28 492.74 282.52 491.74ZM277.36 495.26L279.06 496.12C277.38 497.34 274.82 498.34 272.74 498.94C272.44 498.52 271.92 497.9 271.46 497.5C273.42 497.06 276 496.18 277.36 495.26ZM279.48 497.08L281.28 497.98C279.1 499.8 275.6 501.04 272.3 501.74C272.04 501.24 271.56 500.52 271.1 500.04C274.18 499.54 277.68 498.5 279.48 497.08ZM281.66 499.08L283.62 500C280.96 502.8 276.34 504.14 271.18 504.82C270.98 504.24 270.54 503.42 270.1 502.88C274.92 502.44 279.44 501.34 281.66 499.08ZM276.24 491L278.44 491.62C276.48 495.1 272.94 497.4 268.82 498.74C268.6 498.26 267.94 497.3 267.54 496.84C271.4 495.82 274.68 493.88 276.24 491ZM277.84 492.02C279.6 494.12 283.12 495.92 286.72 496.76C286.22 497.18 285.54 498.06 285.22 498.6C281.52 497.56 278 495.46 275.86 492.82L277.84 492.02ZM270.56 490.46C270.44 490.06 270.1 489.08 269.86 488.52C270.28 488.44 270.72 488.28 271.22 488.02C271.78 487.78 273.46 486.9 274.66 485.88L276.78 486.9C275.28 487.94 273.48 488.9 271.86 489.52V489.54C271.86 489.54 270.56 490.08 270.56 490.46ZM270.56 490.46L270.54 489.04L271.82 488.42L281.92 488.18C282.16 488.72 282.58 489.42 282.82 489.82C272.64 490.22 271.44 490.18 270.56 490.46ZM269.26 494.78C269.12 494.36 268.76 493.44 268.52 492.92C268.74 492.86 269.02 492.66 269.24 492.4C269.44 492.14 270.1 491.28 270.44 490.32L272.56 491.16C272.02 492.08 271.14 493.14 270.42 493.76V493.8C270.42 493.8 269.26 494.4 269.26 494.78ZM269.26 494.78L269.24 493.36L270.12 492.78L273.3 492.66C273.54 493.18 273.96 493.86 274.18 494.28C270.36 494.52 269.7 494.62 269.26 494.78ZM279.36 494.68C279.22 494.28 278.86 493.36 278.64 492.84C278.84 492.78 279.1 492.6 279.3 492.34C279.46 492.1 280 491.24 280.28 490.34L282.4 491.14C281.92 492.02 281.14 493.06 280.5 493.66V493.7C280.5 493.7 279.36 494.32 279.36 494.68ZM279.36 494.68L279.34 493.24L280.22 492.68L283.5 492.54C283.76 493.06 284.16 493.74 284.4 494.16C280.48 494.42 279.8 494.52 279.36 494.68ZM301.24 486.9H304.94V488.96H301.24V486.9ZM296.76 487.56H300.76V489.54H296.76V487.56ZM301.46 490.68H304.84V492.66H301.46V490.68ZM301.3 494.36H304.66V496.34H301.3V494.36ZM291.42 490.66H294.78V492.64H291.42V490.66ZM291.52 494.32H294.86V496.3H291.52V494.32ZM303.56 486.9H305.76C305.74 490.82 305.64 495.82 305.42 498.82H303.18C303.42 495.76 303.58 490.74 303.56 486.9ZM294.12 486.1L295.14 488.06C293.74 488.54 292.14 488.96 290.82 489.26C290.72 488.8 290.48 488.08 290.26 487.6C291.54 487.2 293.06 486.6 294.12 486.1ZM295.58 486.18H297.62V491.02H299.84V492.88H295.58V486.18ZM288.78 497.96H307.26V500.18H288.78V497.96ZM299.6 501.58L300.92 499.9C302.98 500.82 305.34 502.04 306.7 502.88L305.12 504.72C303.82 503.84 301.6 502.52 299.6 501.58ZM294.5 500.04L296.4 501.58C294.66 502.72 292.16 503.98 290.2 504.78C289.88 504.26 289.3 503.48 288.84 502.98C290.72 502.28 293.18 501.02 294.5 500.04ZM290.26 487.6L292.42 488.2L292.76 498.64H290.62L290.26 487.6ZM295.86 493.36L297.64 493.66C297.52 494.96 297.2 496.28 296.64 497.14C296.32 496.86 295.54 496.38 295.12 496.18C295.62 495.44 295.78 494.4 295.86 493.36ZM298.6 491.04H300.6V496.1C300.6 496.94 300.44 497.3 299.9 497.54C299.36 497.8 298.6 497.8 297.62 497.8C297.52 497.34 297.3 496.74 297.1 496.32C297.6 496.36 298.18 496.36 298.36 496.34C298.54 496.34 298.6 496.28 298.6 496.1V491.04Z" fill="#282828"/>
<path d="M378.18 489.6H386.2V491.8H378.18V489.6ZM378.7 486L381.08 486.44C380.32 490.34 378.96 494.14 377.1 496.54C376.74 496.06 375.84 495.1 375.34 494.68C377 492.68 378.12 489.4 378.7 486ZM382.9 491.04L385.38 491.32C384.36 498.1 382.06 502.38 376.92 504.88C376.68 504.3 375.98 503.18 375.52 502.66C380.18 500.68 382.14 496.94 382.9 491.04ZM379.44 491.36C380.4 496.52 382.5 500.78 386.62 502.64C386.06 503.1 385.34 504.04 384.98 504.68C380.54 502.38 378.5 497.78 377.32 491.74L379.44 491.36ZM368.66 504.22L368.32 501.92L369.3 501.08L375.74 498.86C375.74 499.56 375.88 500.58 376 501.12C370.2 503.3 369.26 503.76 368.66 504.22ZM368.66 504.22C368.54 503.54 368.16 502.34 367.76 501.74C368.16 501.56 368.5 501.22 368.5 500.46V493H370.92V502.46C370.92 502.46 368.66 503.4 368.66 504.22ZM368.3 487.26H375.76V495.36H368.98V493H373.38V489.62H368.3V487.26ZM395.16 489.6H400.6V490.82H395.16V489.6ZM395.16 491.48H400.6V492.72H395.16V491.48ZM394.72 487.66H401V488.96H394.72V487.66ZM396.64 494.7V495.9H399.04V494.7H396.64ZM395.22 493.46H400.52V497.14H395.22V493.46ZM392.86 491.24L394.14 490.88C394.54 491.74 394.92 492.88 395.02 493.58L393.66 494C393.58 493.3 393.24 492.12 392.86 491.24ZM389.26 490.92C389.18 490.58 388.9 489.8 388.72 489.38C389 489.32 389.28 489.1 389.54 488.76C389.82 488.46 390.74 487.18 391.26 485.94L392.9 486.46C392.2 487.82 391.24 489.18 390.42 490.04V490.06C390.42 490.06 389.26 490.56 389.26 490.92ZM389.26 490.92L389.24 489.8L390 489.34L392.9 489.24C392.82 489.62 392.72 490.22 392.7 490.54C390.1 490.7 389.56 490.78 389.26 490.92ZM389.32 494.06C389.22 493.74 388.98 492.96 388.8 492.54C389.18 492.48 389.58 492.18 390.04 491.76C390.54 491.32 392.1 489.64 393.16 487.94L394.7 488.64C393.44 490.4 391.92 492.1 390.5 493.22V493.26C390.5 493.26 389.32 493.72 389.32 494.06ZM389.32 494.06L389.26 492.96L390 492.48L394.32 492.06C394.22 492.44 394.18 493 394.18 493.3C390.28 493.76 389.66 493.9 389.32 494.06ZM390.98 494.58L392.32 494.3C392.52 495.2 392.68 496.4 392.72 497.18L391.3 497.5C391.3 496.7 391.14 495.5 390.98 494.58ZM389.12 494.32L390.52 494.58C390.44 495.82 390.24 497.14 389.92 498.02C389.64 497.82 389.04 497.48 388.68 497.3C389 496.48 389.08 495.38 389.12 494.32ZM392.88 494.48L394.12 494.12C394.38 494.92 394.66 495.96 394.76 496.62L393.46 497.04C393.38 496.34 393.12 495.28 392.88 494.48ZM396.58 486.42L398.34 485.82C398.72 486.46 399.1 487.36 399.2 487.94L397.34 488.62C397.24 488.02 396.92 487.12 396.58 486.42ZM404.98 490.96L406.3 490.62C406.7 491.54 407.08 492.78 407.18 493.54L405.8 493.96C405.7 493.18 405.36 491.92 404.98 490.96ZM401.32 490.94C401.24 490.6 400.96 489.84 400.8 489.42C401.06 489.36 401.34 489.14 401.62 488.82C401.88 488.5 402.8 487.28 403.32 486.04L404.94 486.56C404.24 487.9 403.3 489.22 402.48 490.06V490.08C402.48 490.08 401.32 490.58 401.32 490.94ZM401.32 490.94L401.3 489.84L402.04 489.42L404.96 489.3C404.86 489.68 404.78 490.26 404.76 490.56C402.18 490.72 401.62 490.8 401.32 490.94ZM401.44 493.98C401.36 493.64 401.12 492.9 400.94 492.5C401.32 492.44 401.7 492.16 402.16 491.7C402.64 491.28 404.12 489.64 405.14 487.98L406.64 488.66C405.44 490.34 404.04 492.02 402.72 493.14V493.16C402.72 493.16 401.44 493.62 401.44 493.98ZM401.44 493.98L401.4 492.86L402.14 492.4L406.42 491.96C406.34 492.34 406.3 492.92 406.3 493.2C402.42 493.68 401.8 493.8 401.44 493.98ZM403.2 494.5L404.54 494.26C404.76 495.16 404.92 496.34 404.94 497.1L403.54 497.4C403.54 496.62 403.42 495.42 403.2 494.5ZM401.32 494.26L402.8 494.6C402.68 495.66 402.42 496.92 402.18 497.74C401.86 497.5 401.24 497.18 400.88 497.02C401.12 496.22 401.24 495.18 401.32 494.26ZM405.14 494.3L406.4 494C406.72 494.88 407.02 496.08 407.12 496.84L405.8 497.22C405.7 496.44 405.42 495.22 405.14 494.3ZM393.32 498.18H406.34V499.92H393.32V498.18ZM401.96 498.78L404.18 499.44C401.42 503.18 395.66 504.36 389.72 504.94C389.52 504.42 388.98 503.48 388.62 503C394.44 502.72 399.92 501.72 401.96 498.78ZM393.96 496.9L396.02 497.52C394.7 499.6 392.38 501.28 390.04 502.28C389.78 501.82 389.12 500.9 388.72 500.46C390.86 499.74 392.92 498.46 393.96 496.9ZM393.92 499.32C396.44 501.52 401.68 502.66 407.38 502.96C406.94 503.42 406.42 504.3 406.18 504.86C400.38 504.4 395.22 503.02 392.14 500.14L393.92 499.32ZM409.86 490.84H428.1V493.16H409.86V490.84ZM412.58 486.6H415.08V501.38H427.6V503.72H412.58V486.6ZM417.78 486.18H420.18V496.94H422.94V486.38H425.46V499.14H417.78V486.18ZM435.28 491.86V493.32H444.72V491.86H435.28ZM435.28 488.64V490.06H444.72V488.64H435.28ZM432.88 486.7H447.22V495.24H432.88V486.7ZM442.74 493.98C444.06 495.78 446.66 497.26 449.46 497.96C448.92 498.44 448.2 499.38 447.86 500C444.92 499.04 442.32 497.12 440.72 494.72L442.74 493.98ZM437.28 493.96L439.4 494.78C437.78 497.1 435.08 499.06 432.24 500.08C431.88 499.48 431.16 498.58 430.64 498.1C433.34 497.34 435.96 495.76 437.28 493.96ZM435.86 497.62H438.34V499C438.34 500.92 437.76 503.48 433.76 504.94C433.44 504.34 432.64 503.44 432.12 502.98C435.46 501.9 435.86 500.2 435.86 498.92V497.62ZM438.78 487.68H441.2V494.28H438.78V487.68ZM441.96 497.66H444.46V504.74H441.96V497.66Z" fill="#282828"/>
<defs>
<filter id="filter0_d_160_3" x="204.84" y="246.696" width="256.896" height="71.272" filterUnits="userSpaceOnUse" color-interpolation-filters="sRGB">
<feFlood flood-opacity="0" result="BackgroundImageFix"/>
<feColorMatrix in="SourceAlpha" type="matrix" values="0 0 0 0 0 0 0 0 0 0 0 0 0 0 0 0 0 0 127 0" result="hardAlpha"/>
<feOffset dx="3" dy="4"/>
<feGaussianBlur stdDeviation="2"/>
<feComposite in2="hardAlpha" operator="out"/>
<feColorMatrix type="matrix" values="0 0 0 0 0 0 0 0 0 0 0 0 0 0 0 0 0 0 0.4 0"/>
<feBlend mode="normal" in2="BackgroundImageFix" result="effect1_dropShadow_160_3"/>
<feBlend mode="normal" in="SourceGraphic" in2="effect1_dropShadow_160_3" result="shape"/>
</filter>
<filter id="filter1_d_160_3" x="206.424" y="337.9" width="103.522" height="69.6" filterUnits="userSpaceOnUse" color-interpolation-filters="sRGB">
<feFlood flood-opacity="0" result="BackgroundImageFix"/>
<feColorMatrix in="SourceAlpha" type="matrix" values="0 0 0 0 0 0 0 0 0 0 0 0 0 0 0 0 0 0 127 0" result="hardAlpha"/>
<feOffset dx="3" dy="4"/>
<feGaussianBlur stdDeviation="2"/>
<feComposite in2="hardAlpha" operator="out"/>
<feColorMatrix type="matrix" values="0 0 0 0 0 0 0 0 0 0 0 0 0 0 0 0 0 0 0.4 0"/>
<feBlend mode="normal" in2="BackgroundImageFix" result="effect1_dropShadow_160_3"/>
<feBlend mode="normal" in="SourceGraphic" in2="effect1_dropShadow_160_3" result="shape"/>
</filter>
<filter id="filter2_d_160_3" x="320.17" y="335.57" width="295.14" height="74.01" filterUnits="userSpaceOnUse" color-interpolation-filters="sRGB">
<feFlood flood-opacity="0" result="BackgroundImageFix"/>
<feColorMatrix in="SourceAlpha" type="matrix" values="0 0 0 0 0 0 0 0 0 0 0 0 0 0 0 0 0 0 127 0" result="hardAlpha"/>
<feOffset dx="3" dy="4"/>
<feGaussianBlur stdDeviation="2"/>
<feComposite in2="hardAlpha" operator="out"/>
<feColorMatrix type="matrix" values="0 0 0 0 0 0 0 0 0 0 0 0 0 0 0 0 0 0 0.4 0"/>
<feBlend mode="normal" in2="BackgroundImageFix" result="effect1_dropShadow_160_3"/>
<feBlend mode="normal" in="SourceGraphic" in2="effect1_dropShadow_160_3" result="shape"/>
</filter>
<filter id="filter3_d_160_3" x="199.68" y="424.8" width="419.719" height="29.24" filterUnits="userSpaceOnUse" color-interpolation-filters="sRGB">
<feFlood flood-opacity="0" result="BackgroundImageFix"/>
<feColorMatrix in="SourceAlpha" type="matrix" values="0 0 0 0 0 0 0 0 0 0 0 0 0 0 0 0 0 0 127 0" result="hardAlpha"/>
<feOffset dx="3" dy="4"/>
<feGaussianBlur stdDeviation="2"/>
<feComposite in2="hardAlpha" operator="out"/>
<feColorMatrix type="matrix" values="0 0 0 0 0 0 0 0 0 0 0 0 0 0 0 0 0 0 0.4 0"/>
<feBlend mode="normal" in2="BackgroundImageFix" result="effect1_dropShadow_160_3"/>
<feBlend mode="normal" in="SourceGraphic" in2="effect1_dropShadow_160_3" result="shape"/>
</filter>
<filter id="filter4_d_160_3" x="319" y="473" width="170" height="54" filterUnits="userSpaceOnUse" color-interpolation-filters="sRGB">
<feFlood flood-opacity="0" result="BackgroundImageFix"/>
<feColorMatrix in="SourceAlpha" type="matrix" values="0 0 0 0 0 0 0 0 0 0 0 0 0 0 0 0 0 0 127 0" result="hardAlpha"/>
<feOffset dy="4"/>
<feGaussianBlur stdDeviation="2"/>
<feComposite in2="hardAlpha" operator="out"/>
<feColorMatrix type="matrix" values="0 0 0 0 0 0 0 0 0 0 0 0 0 0 0 0 0 0 0.25 0"/>
<feBlend mode="normal" in2="BackgroundImageFix" result="effect1_dropShadow_160_3"/>
<feBlend mode="normal" in="SourceGraphic" in2="effect1_dropShadow_160_3" result="shape"/>
</filter>
<filter id="filter5_d_160_3" x="197" y="473" width="153" height="54" filterUnits="userSpaceOnUse" color-interpolation-filters="sRGB">
<feFlood flood-opacity="0" result="BackgroundImageFix"/>
<feColorMatrix in="SourceAlpha" type="matrix" values="0 0 0 0 0 0 0 0 0 0 0 0 0 0 0 0 0 0 127 0" result="hardAlpha"/>
<feOffset dy="4"/>
<feGaussianBlur stdDeviation="2"/>
<feComposite in2="hardAlpha" operator="out"/>
<feColorMatrix type="matrix" values="0 0 0 0 0 0 0 0 0 0 0 0 0 0 0 0 0 0 0.25 0"/>
<feBlend mode="normal" in2="BackgroundImageFix" result="effect1_dropShadow_160_3"/>
<feBlend mode="normal" in="SourceGraphic" in2="effect1_dropShadow_160_3" result="shape"/>
</filter>
</defs>
</svg>
