<svg width="166" height="170" viewBox="0 0 166 170" fill="none" xmlns="http://www.w3.org/2000/svg">
<g clip-path="url(#clip0_241_192)">
<path d="M158.534 129.218H3.64627C1.4016 129.218 -0.216036 127.078 0.395188 124.921L20.9133 53.0095C21.3243 51.5579 22.6522 50.5586 24.1644 50.5586H134.575C136.097 50.5586 137.436 51.5789 137.836 53.0463L158.534 129.213V129.218Z" stroke="#184B5B" stroke-width="1.5" stroke-linecap="round" stroke-linejoin="round"/>
<path d="M55.2367 150.861L61.8864 129.219H96.1308L102.464 150.861" stroke="#184B5B" stroke-width="1.5" stroke-linecap="round" stroke-linejoin="round"/>
<path d="M14.3163 76.1353H143.369" stroke="#184B5B" stroke-width="1.5" stroke-linecap="round" stroke-linejoin="round"/>
<path d="M6.5285 103.437H151.241" stroke="#184B5B" stroke-width="1.5" stroke-linecap="round" stroke-linejoin="round"/>
<path d="M51.0372 50.564L39.7664 129.218" stroke="#184B5B" stroke-width="1.5" stroke-linecap="round" stroke-linejoin="round"/>
<path d="M79.6699 50.564V129.218" stroke="#184B5B" stroke-width="1.5" stroke-linecap="round" stroke-linejoin="round"/>
<path d="M108.656 50.564L119.215 129.218" stroke="#184B5B" stroke-width="1.5" stroke-linecap="round" stroke-linejoin="round"/>
<path d="M163.439 108.118H129.922C128.653 108.118 127.625 109.144 127.625 110.411V167.444C127.625 168.71 128.653 169.737 129.922 169.737H163.439C164.708 169.737 165.737 168.71 165.737 167.444V110.411C165.737 109.144 164.708 108.118 163.439 108.118Z" fill="white" stroke="#EAC852" stroke-width="1.5" stroke-linecap="round" stroke-linejoin="round"/>
<path d="M138.801 100.271H154.829C155.667 100.271 156.342 100.949 156.342 101.78V108.118H137.283V101.78C137.283 100.944 137.963 100.271 138.795 100.271H138.801Z" fill="white" stroke="#EAC852" stroke-width="1.5" stroke-linecap="round" stroke-linejoin="round"/>
<path d="M158.649 146.533H134.996C134.26 146.533 133.663 147.128 133.663 147.863V152.471C133.663 153.205 134.26 153.801 134.996 153.801H158.649C159.386 153.801 159.983 153.205 159.983 152.471V147.863C159.983 147.128 159.386 146.533 158.649 146.533Z" fill="#EAC852"/>
<path d="M158.649 157.709H134.996C134.26 157.709 133.663 158.305 133.663 159.04V163.647C133.663 164.382 134.26 164.977 134.996 164.977H158.649C159.386 164.977 159.983 164.382 159.983 163.647V159.04C159.983 158.305 159.386 157.709 158.649 157.709Z" fill="#EAC852"/>
<path d="M148.975 118.984L140.144 130.018H153.496L146.82 139.448" stroke="#184B5B" stroke-width="1.5" stroke-linecap="round" stroke-linejoin="round"/>
<path d="M99.0235 44.1528C99.0235 31.6038 90.008 21.4321 78.8848 21.4321C67.7616 21.4321 58.746 31.6038 58.746 44.1528H99.0235Z" fill="#EAC852"/>
<path d="M47.5912 41.77H37.2847" stroke="#EAC852" stroke-width="1.5" stroke-linecap="round" stroke-linejoin="round"/>
<path d="M119.089 41.77H108.782" stroke="#EAC852" stroke-width="1.5" stroke-linecap="round" stroke-linejoin="round"/>
<path d="M49.2299 11.8496L55.2367 18.3923" stroke="#EAC852" stroke-width="1.5" stroke-linecap="round" stroke-linejoin="round"/>
<path d="M79.6699 0.263184V9.04114" stroke="#EAC852" stroke-width="1.5" stroke-linecap="round" stroke-linejoin="round"/>
<path d="M108.656 11.8496L102.28 18.2135" stroke="#EAC852" stroke-width="1.5" stroke-linecap="round" stroke-linejoin="round"/>
<path d="M49.2299 150.861H108.782" stroke="#EAC852" stroke-width="1.5" stroke-linecap="round" stroke-linejoin="round"/>
</g>
<defs>
<clipPath id="clip0_241_192">
<rect width="166" height="170" fill="white"/>
</clipPath>
</defs>
</svg>
