<svg width="160" height="155" viewBox="0 0 160 155" fill="none" xmlns="http://www.w3.org/2000/svg">
<g clip-path="url(#clip0_243_212)">
<path d="M37.2898 133.73H15.0142C14.8411 133.73 14.6867 133.622 14.6259 133.458L0.257342 93.8423C0.159088 93.5755 0.360275 93.29 0.645681 93.29H22.7856C22.9587 93.29 23.1131 93.3977 23.174 93.5615L37.6782 133.173C37.7764 133.439 37.5799 133.725 37.2898 133.725V133.73Z" stroke="#184B5B" stroke-width="1.5" stroke-linecap="round" stroke-linejoin="round"/>
<path d="M5.02499 106.984H28.0867" stroke="#184B5B" stroke-width="1.5" stroke-linecap="round" stroke-linejoin="round"/>
<path d="M9.83945 120.148H32.9011" stroke="#184B5B" stroke-width="1.5" stroke-linecap="round" stroke-linejoin="round"/>
<path d="M11.8654 93.2949L26.2339 133.73" stroke="#184B5B" stroke-width="1.5" stroke-linecap="round" stroke-linejoin="round"/>
<path d="M23.1833 145.5V133.729H28.0867V145.5" stroke="#184B5B" stroke-width="1.5" stroke-linecap="round" stroke-linejoin="round"/>
<path d="M17.9665 145.5H32.9011" stroke="#184B5B" stroke-width="1.5" stroke-linecap="round" stroke-linejoin="round"/>
<path d="M65.1425 109.675H42.8669C42.6938 109.675 42.5394 109.567 42.4786 109.403L28.1147 69.792C28.0165 69.5252 28.2177 69.2397 28.5031 69.2397H50.643C50.8161 69.2397 50.9705 69.3474 51.0314 69.5112L65.5356 109.122C65.6338 109.389 65.4373 109.675 65.1472 109.675H65.1425Z" stroke="#184B5B" stroke-width="1.5" stroke-linecap="round" stroke-linejoin="round"/>
<path d="M32.8777 82.9287H55.9394" stroke="#184B5B" stroke-width="1.5" stroke-linecap="round" stroke-linejoin="round"/>
<path d="M37.6922 96.0933H60.7539" stroke="#184B5B" stroke-width="1.5" stroke-linecap="round" stroke-linejoin="round"/>
<path d="M39.7181 69.2397L54.0866 109.675" stroke="#184B5B" stroke-width="1.5" stroke-linecap="round" stroke-linejoin="round"/>
<path d="M51.0314 121.445V109.675H55.9394V121.445" stroke="#184B5B" stroke-width="1.5" stroke-linecap="round" stroke-linejoin="round"/>
<path d="M45.8192 121.445H60.7539" stroke="#184B5B" stroke-width="1.5" stroke-linecap="round" stroke-linejoin="round"/>
<path d="M122.71 133.73H144.986C145.159 133.73 145.313 133.622 145.374 133.458L159.738 93.8472C159.836 93.5804 159.635 93.2949 159.35 93.2949H137.21C137.037 93.2949 136.882 93.4026 136.821 93.5664L122.317 133.177C122.219 133.444 122.415 133.73 122.705 133.73H122.71Z" stroke="#184B5B" stroke-width="1.5" stroke-linecap="round" stroke-linejoin="round"/>
<path d="M154.975 106.984H131.913" stroke="#184B5B" stroke-width="1.5" stroke-linecap="round" stroke-linejoin="round"/>
<path d="M150.161 120.148H127.099" stroke="#184B5B" stroke-width="1.5" stroke-linecap="round" stroke-linejoin="round"/>
<path d="M148.135 93.2949L133.766 133.73" stroke="#184B5B" stroke-width="1.5" stroke-linecap="round" stroke-linejoin="round"/>
<path d="M136.817 145.5V133.729H131.913V145.5" stroke="#184B5B" stroke-width="1.5" stroke-linecap="round" stroke-linejoin="round"/>
<path d="M142.034 145.5H127.099" stroke="#184B5B" stroke-width="1.5" stroke-linecap="round" stroke-linejoin="round"/>
<path d="M94.8574 109.675H117.133C117.306 109.675 117.461 109.567 117.521 109.403L131.885 69.792C131.984 69.5252 131.782 69.2397 131.497 69.2397H109.357C109.184 69.2397 109.029 69.3474 108.969 69.5112L94.4644 109.122C94.3662 109.389 94.5627 109.675 94.8528 109.675H94.8574Z" stroke="#184B5B" stroke-width="1.5" stroke-linecap="round" stroke-linejoin="round"/>
<path d="M127.122 82.9287H104.061" stroke="#184B5B" stroke-width="1.5" stroke-linecap="round" stroke-linejoin="round"/>
<path d="M122.308 96.0933H99.2461" stroke="#184B5B" stroke-width="1.5" stroke-linecap="round" stroke-linejoin="round"/>
<path d="M120.282 69.2397L105.913 109.675" stroke="#184B5B" stroke-width="1.5" stroke-linecap="round" stroke-linejoin="round"/>
<path d="M108.964 121.445V109.675H104.061V121.445" stroke="#184B5B" stroke-width="1.5" stroke-linecap="round" stroke-linejoin="round"/>
<path d="M114.181 121.445H99.2461" stroke="#184B5B" stroke-width="1.5" stroke-linecap="round" stroke-linejoin="round"/>
<path d="M90.1787 87.0283H69.9757V95.148H90.1787V87.0283Z" stroke="#EAC852" stroke-width="1.5" stroke-linecap="round" stroke-linejoin="round"/>
<path d="M90.1272 145.5H69.9243V154.761H90.1272V145.5Z" stroke="#EAC852" stroke-width="1.5" stroke-linecap="round" stroke-linejoin="round"/>
<path d="M86.7772 95.1479H73.3725V145.5H86.7772V95.1479Z" stroke="#EAC852" stroke-width="1.5" stroke-linecap="round" stroke-linejoin="round"/>
<path d="M84 97H76V144H84V97Z" fill="#184B5B"/>
<path d="M72.3759 87.0284C72.3759 85.3436 73.7421 83.9771 75.4265 83.9771C77.1109 83.9771 78.4771 85.3436 78.4771 87.0284" fill="#EAC852"/>
<path d="M81.682 87.0284C81.682 85.3436 83.0482 83.9771 84.7326 83.9771C86.4169 83.9771 87.7831 85.3436 87.7831 87.0284" fill="#EAC852"/>
<path d="M80.1895 52.626C89.4971 52.626 97.0424 45.0788 97.0424 35.7688C97.0424 26.4588 89.4971 18.9116 80.1895 18.9116C70.8819 18.9116 63.3365 26.4588 63.3365 35.7688C63.3365 45.0788 70.8819 52.626 80.1895 52.626Z" fill="#EAC852"/>
<path d="M80.1895 0.233887V9.07432" stroke="#EAC852" stroke-width="1.5" stroke-miterlimit="10" stroke-linecap="round"/>
<path d="M54.0866 10.6938L60.3983 16.8807" stroke="#EAC852" stroke-width="1.5" stroke-miterlimit="10" stroke-linecap="round"/>
<path d="M45.2437 35.769H54.0866" stroke="#EAC852" stroke-width="1.5" stroke-miterlimit="10" stroke-linecap="round"/>
<path d="M106.292 10.6938L99.9807 16.8807" stroke="#EAC852" stroke-width="1.5" stroke-miterlimit="10" stroke-linecap="round"/>
<path d="M115.131 35.769H106.292" stroke="#EAC852" stroke-width="1.5" stroke-miterlimit="10" stroke-linecap="round"/>
<path d="M80.1895 71.2989V62.4585" stroke="#EAC852" stroke-width="1.5" stroke-miterlimit="10" stroke-linecap="round"/>
<path d="M54.0866 60.8439L60.3983 54.6523" stroke="#EAC852" stroke-width="1.5" stroke-miterlimit="10" stroke-linecap="round"/>
<path d="M106.292 60.8439L99.9807 54.6523" stroke="#EAC852" stroke-width="1.5" stroke-miterlimit="10" stroke-linecap="round"/>
</g>
<defs>
<clipPath id="clip0_243_212">
<rect width="160" height="155" fill="white"/>
</clipPath>
</defs>
</svg>
