<svg width="167" height="140" viewBox="0 0 167 140" fill="none" xmlns="http://www.w3.org/2000/svg">
<g clip-path="url(#clip0_243_252)">
<path d="M105.831 115.46C105.604 114.625 105.831 139.753 105.831 139.753" stroke="#EAC852" stroke-width="1.5" stroke-linecap="round" stroke-linejoin="round"/>
<path d="M149.428 115.945C149.201 115.109 149.428 139.753 149.428 139.753" stroke="#EAC852" stroke-width="1.5" stroke-linecap="round" stroke-linejoin="round"/>
<path d="M81.0615 93.5708C74.7707 97.7984 67.3665 100.058 59.7949 100.058C52.637 100.058 45.6171 98.0407 39.548 94.2334" stroke="#EAC852" stroke-width="1.5" stroke-linecap="round" stroke-linejoin="round"/>
<path d="M21.5721 61.4112C21.6213 54.5234 23.518 47.7791 27.0649 41.8802C30.6118 35.9814 35.671 31.1505 41.7155 27.8921" stroke="#EAC852" stroke-width="1.5" stroke-linecap="round" stroke-linejoin="round"/>
<path d="M98.461 61.4112C98.4118 54.5234 96.5151 47.7791 92.9682 41.8802C89.4213 35.9814 84.3621 31.1505 78.3176 27.8921" stroke="#EAC852" stroke-width="1.5" stroke-linecap="round" stroke-linejoin="round"/>
<path d="M59.7949 71.8839C65.4022 71.8839 69.9479 67.3213 69.9479 61.6932C69.9479 56.065 65.4022 51.5024 59.7949 51.5024C54.1875 51.5024 49.6418 56.065 49.6418 61.6932C49.6418 67.3213 54.1875 71.8839 59.7949 71.8839Z" stroke="#184B5B" stroke-width="1.5" stroke-linecap="round" stroke-linejoin="round"/>
<path d="M59.7949 67.6612C63.0787 67.6612 65.7409 64.9892 65.7409 61.6932C65.7409 58.3971 63.0787 55.7251 59.7949 55.7251C56.511 55.7251 53.8489 58.3971 53.8489 61.6932C53.8489 64.9892 56.511 67.6612 59.7949 67.6612Z" stroke="#184B5B" stroke-width="1.5" stroke-linecap="round" stroke-linejoin="round"/>
<path d="M45.8191 139.362L57.2135 71.5479H62.3861L73.7805 139.362" fill="white"/>
<path d="M45.8191 139.362L57.2135 71.5479H62.3861L73.7805 139.362" stroke="#184B5B" stroke-width="1.5" stroke-linecap="round" stroke-linejoin="round"/>
<path d="M65.8689 1.52313C65.7951 0.72706 65.0758 0.153492 64.2876 0.262273C61.4304 0.662781 55.243 2.54666 53.8538 11.2688C52.2429 21.3557 51.0902 40.3477 50.8389 44.6841C50.8045 45.2428 51.0754 45.767 51.5385 46.0735L59.7998 51.5076L69.1153 45.8807C69.6277 45.5741 69.9134 44.9956 69.8592 44.4023L65.8689 1.52313Z" stroke="#184B5B" stroke-width="1.5" stroke-linecap="round" stroke-linejoin="round"/>
<path d="M5.71938 87.751C5.07897 88.2306 4.96566 89.1453 5.47307 89.7634C7.30563 92.0033 12.1235 96.3199 20.2666 92.9724C29.6856 89.0959 46.4398 80.2006 50.2576 78.1536C50.7453 77.8915 51.0557 77.3872 51.0754 76.8285L51.3956 66.9196L41.7549 61.8712C41.2278 61.5943 40.5874 61.6438 40.1096 62.0047L5.71938 87.751Z" stroke="#184B5B" stroke-width="1.5" stroke-linecap="round" stroke-linejoin="round"/>
<path d="M107.954 97.7588C108.663 98.1197 109.535 97.8181 109.86 97.0863C111.043 94.4459 112.757 88.1911 106.146 82.3565C98.5004 75.6122 83.1108 64.5018 79.5935 61.98C79.1402 61.6537 78.554 61.5993 78.0466 61.8317L69.0611 65.9505L68.8394 76.8631C68.8296 77.4614 69.1597 78.0152 69.6917 78.2872L107.954 97.7588Z" stroke="#184B5B" stroke-width="1.5" stroke-linecap="round" stroke-linejoin="round"/>
<path d="M87.4903 102.609C79.2782 108.127 69.6129 111.079 59.7259 111.079C50.3808 111.079 41.218 108.444 33.2916 103.475" stroke="#EAC852" stroke-width="1.5" stroke-linecap="round" stroke-linejoin="round"/>
<path d="M9.83282 60.6249C9.89687 51.6357 12.3748 42.8295 17.0005 35.1308C21.6263 27.4322 28.2324 21.1229 36.1242 16.8706" stroke="#EAC852" stroke-width="1.5" stroke-linecap="round" stroke-linejoin="round"/>
<path d="M110.2 60.6249C110.136 51.6357 107.658 42.8295 103.033 35.1308C98.4068 27.4322 91.8007 21.1229 83.9089 16.8706" stroke="#EAC852" stroke-width="1.5" stroke-linecap="round" stroke-linejoin="round"/>
<path d="M0.246338 139.753H166.754" stroke="#184B5B" stroke-width="1.5" stroke-linecap="round" stroke-linejoin="round"/>
<path d="M98.4611 119.762L127.831 102.609L155.615 119.762" stroke="#EAC852" stroke-width="1.5" stroke-linecap="round" stroke-linejoin="round"/>
<path d="M128.354 115.44L121.191 124.4H132.428L125.93 132.474" stroke="#184B5B" stroke-width="1.5" stroke-linecap="round" stroke-linejoin="round"/>
<path d="M161.69 76.0766C161.645 76.0766 161.601 76.0816 161.552 76.0865C160.635 72.0864 157.379 69.1196 153.492 69.1196C150.743 69.1196 148.315 70.603 146.802 72.8775C145.492 72.2446 143.98 71.8836 142.374 71.8836C137.344 71.8836 133.265 75.3992 133.265 79.7405C133.265 84.0818 137.043 87.3205 141.807 87.5727V87.5974H161.29V87.5727C161.423 87.5826 161.556 87.5974 161.694 87.5974C164.493 87.5974 166.759 85.0164 166.759 81.837C166.759 78.6577 164.493 76.0766 161.694 76.0766H161.69Z" stroke="#EAC852" stroke-width="1.5" stroke-linecap="round" stroke-linejoin="round"/>
<path d="M135.196 56.0909C135.167 56.0909 135.137 56.0909 135.107 56.0959C134.506 53.4604 132.359 51.5073 129.797 51.5073C127.989 51.5073 126.388 52.4863 125.388 53.9845C124.526 53.5692 123.531 53.3269 122.467 53.3269C119.151 53.3269 116.462 55.6459 116.462 58.5039C116.462 61.3618 118.949 63.4979 122.092 63.666V63.6808H134.93V63.666C135.019 63.6759 135.107 63.6808 135.196 63.6808C137.039 63.6808 138.531 61.9799 138.531 59.8834C138.531 57.7869 137.039 56.086 135.196 56.086V56.0909Z" stroke="#EAC852" stroke-width="1.5" stroke-linecap="round" stroke-linejoin="round"/>
</g>
<defs>
<clipPath id="clip0_243_252">
<rect width="167" height="140" fill="white"/>
</clipPath>
</defs>
</svg>
