<svg width="165" height="156" viewBox="0 0 165 156" fill="none" xmlns="http://www.w3.org/2000/svg">
<g clip-path="url(#clip0_244_272)">
<path d="M30.8085 15.7973C25.2915 18.2655 19.7694 12.4996 14.2523 14.9678C13.813 15.1624 13.4554 15.0241 13.4554 14.5837V4.88526C13.4554 4.44488 13.813 3.86625 14.2523 3.67167C19.7694 1.20352 25.2915 6.96935 30.8085 4.50121C31.2479 4.30662 31.6054 4.44488 31.6054 4.88526C31.6054 8.11637 31.6054 11.3475 31.6054 14.5786C31.6054 15.019 31.2479 15.5976 30.8085 15.7922V15.7973Z" fill="#184B5B"/>
<path d="M139.438 98.9355C134.58 102.197 128.858 103.938 123.009 103.938C117.477 103.938 112.057 102.382 107.367 99.4425" stroke="#EAC852" stroke-width="1.5" stroke-linecap="round" stroke-linejoin="round"/>
<path d="M93.4779 74.1263C93.5188 68.8111 94.9849 63.6085 97.7178 59.0563C100.451 54.504 104.364 50.7762 109.033 48.2671" stroke="#EAC852" stroke-width="1.5" stroke-linecap="round" stroke-linejoin="round"/>
<path d="M152.878 74.1263C152.837 68.8111 151.371 63.6085 148.638 59.0563C145.905 54.504 141.992 50.7762 137.323 48.2671" stroke="#EAC852" stroke-width="1.5" stroke-linecap="round" stroke-linejoin="round"/>
<path d="M123.009 82.2013C127.34 82.2013 130.851 78.6822 130.851 74.3411C130.851 70.0001 127.34 66.481 123.009 66.481C118.679 66.481 115.168 70.0001 115.168 74.3411C115.168 78.6822 118.679 82.2013 123.009 82.2013Z" stroke="#184B5B" stroke-width="1.5" stroke-linecap="round" stroke-linejoin="round"/>
<path d="M123.009 78.9447C125.546 78.9447 127.602 76.8836 127.602 74.3412C127.602 71.7988 125.546 69.7378 123.009 69.7378C120.473 69.7378 118.417 71.7988 118.417 74.3412C118.417 76.8836 120.473 78.9447 123.009 78.9447Z" stroke="#184B5B" stroke-width="1.5" stroke-linecap="round" stroke-linejoin="round"/>
<path d="M133.737 133.823L125.007 81.9507H121.012L112.282 133.823C112.241 134.053 112.42 134.268 112.655 134.268H133.359C133.594 134.268 133.773 134.058 133.732 133.823H133.737Z" fill="white" stroke="#184B5B" stroke-width="1.5" stroke-linecap="round" stroke-linejoin="round"/>
<path d="M127.699 27.9179C127.643 27.3034 127.086 26.8579 126.478 26.945C124.271 27.2573 119.495 28.7065 118.417 35.435C117.176 43.2183 116.282 57.8684 116.087 61.2122C116.062 61.6424 116.266 62.0469 116.629 62.2824L123.009 66.4762L130.207 62.1339C130.6 61.8933 130.825 61.4529 130.784 60.992L127.704 27.9128L127.699 27.9179Z" stroke="#184B5B" stroke-width="1.5" stroke-linecap="round" stroke-linejoin="round"/>
<path d="M81.2332 94.4447C80.7377 94.8134 80.6508 95.52 81.0442 95.9962C82.4592 97.7219 86.1832 101.055 92.4767 98.4695C99.751 95.479 112.696 88.6123 115.643 87.0402C116.021 86.8354 116.261 86.4514 116.277 86.0212L116.522 78.3761L109.074 74.4793C108.665 74.2643 108.17 74.3052 107.802 74.5817L81.2332 94.4447Z" stroke="#184B5B" stroke-width="1.5" stroke-linecap="round" stroke-linejoin="round"/>
<path d="M160.214 102.172C160.765 102.454 161.434 102.218 161.685 101.655C162.599 99.6169 163.922 94.7933 158.814 90.2922C152.909 85.0897 141.021 76.5177 138.299 74.5719C137.951 74.321 137.497 74.28 137.103 74.4592L130.161 77.6391L129.987 86.0575C129.977 86.5183 130.233 86.9433 130.646 87.1533L160.208 102.177L160.214 102.172Z" stroke="#184B5B" stroke-width="1.5" stroke-linecap="round" stroke-linejoin="round"/>
<path d="M144.403 105.91C138.059 110.171 130.59 112.444 122.953 112.444C115.735 112.444 108.655 110.411 102.535 106.576" stroke="#EAC852" stroke-width="1.5" stroke-linecap="round" stroke-linejoin="round"/>
<path d="M84.4105 73.5218C84.4616 66.5885 86.3772 59.7883 89.948 53.8535C93.5238 47.9135 98.6271 43.0489 104.721 39.7666" stroke="#EAC852" stroke-width="1.5" stroke-linecap="round" stroke-linejoin="round"/>
<path d="M161.95 73.5218C161.899 66.5885 159.984 59.7883 156.413 53.8535C152.842 47.9186 147.734 43.0489 141.639 39.7666" stroke="#EAC852" stroke-width="1.5" stroke-linecap="round" stroke-linejoin="round"/>
<path d="M63.1904 29.1211H8.21936V57.9861H63.1904V29.1211Z" stroke="#EAC852" stroke-width="1.5" stroke-linecap="round" stroke-linejoin="round"/>
<path d="M11.7084 57.9858V89.7645L60.2838 57.9858V89.7645L11.7084 57.9858Z" stroke="#EAC852" stroke-width="1.5" stroke-linecap="round" stroke-linejoin="round"/>
<path d="M13.4554 0.255859V29.1209" stroke="#EAC852" stroke-width="1.5" stroke-linecap="round" stroke-linejoin="round"/>
<path d="M21.1128 24.8301H26.8904C27.1254 24.8301 27.3093 25.0195 27.3093 25.25V29.116H20.6888V25.25C20.6888 25.0144 20.8779 24.8301 21.1077 24.8301H21.1128Z" fill="#EAC852"/>
<path d="M31.5441 24.8301H37.3217C37.5566 24.8301 37.7405 25.0195 37.7405 25.25V29.116H31.1201V25.25C31.1201 25.0144 31.3091 24.8301 31.539 24.8301H31.5441Z" fill="#EAC852"/>
<path d="M0.255371 145.503C12.0046 145.503 12.0046 155.744 23.7538 155.744C35.5031 155.744 35.5031 145.503 47.2523 145.503C59.0015 145.503 59.0015 155.744 70.7507 155.744C82.5 155.744 82.5 145.503 94.2492 145.503C105.998 145.503 105.998 155.744 117.748 155.744C129.497 155.744 129.497 145.503 141.246 145.503C152.995 145.503 152.995 155.744 164.745 155.744" stroke="#184B5B" stroke-width="1.5" stroke-linecap="round" stroke-linejoin="round"/>
<path d="M8.21936 123.94C11.8003 123.94 11.8003 128.036 15.3813 128.036C18.9622 128.036 18.9622 123.94 22.5483 123.94C26.1344 123.94 26.1293 128.036 29.7102 128.036C33.2912 128.036 33.2963 123.94 36.8773 123.94C40.4582 123.94 40.4633 128.036 44.0443 128.036" stroke="#184B5B" stroke-width="1.5" stroke-linecap="round" stroke-linejoin="round"/>
<path d="M38.4098 101.896C41.9907 101.896 41.9907 105.992 45.5717 105.992C49.1527 105.992 49.1527 101.896 52.7387 101.896C56.3248 101.896 56.3197 105.992 59.9007 105.992C63.4816 105.992 63.4867 101.896 67.0677 101.896C70.6486 101.896 70.6538 105.992 74.2347 105.992" stroke="#184B5B" stroke-width="1.5" stroke-linecap="round" stroke-linejoin="round"/>
</g>
<defs>
<clipPath id="clip0_244_272">
<rect width="165" height="156" fill="white"/>
</clipPath>
</defs>
</svg>
