<svg width="696" height="180" viewBox="0 0 696 180" fill="none" xmlns="http://www.w3.org/2000/svg">
<path fill-rule="evenodd" clip-rule="evenodd" d="M15.5228 165L15.5112 164.989C5.11914 154.758 0 141.076 0 124.163V55.102C0 38.3483 5.12271 24.8971 15.5345 14.9889C26.0911 4.93474 40.2372 0 57.748 0C75.2524 0 89.3946 4.93115 99.95 14.9779C110.69 24.8802 115.985 38.3346 115.985 55.102V124.163C115.985 141.095 110.69 154.785 99.9621 165.011L99.9615 165.011C89.4049 175.065 75.2588 180 57.748 180C40.2372 180 26.0911 175.065 15.5345 165.011L15.5228 165ZM98.612 16.4081C88.498 6.77551 74.8766 1.95918 57.748 1.95918C40.6193 1.95918 26.998 6.77551 16.8839 16.4081C6.93302 25.8775 1.95756 38.7755 1.95756 55.102V124.163C1.95756 140.653 6.93302 153.796 16.8839 163.592C26.998 173.224 40.6193 178.041 57.748 178.041C74.8766 178.041 88.498 173.224 98.612 163.592C108.889 153.796 114.028 140.653 114.028 124.163V55.102C114.028 38.7755 108.889 25.8775 98.612 16.4081ZM76.6848 35.4375L76.6734 35.4262C72.0509 30.7998 65.8154 28.4082 57.748 28.4082C49.8559 28.4082 43.697 30.7925 39.0672 35.4262C34.62 39.8771 32.2997 46.0276 32.2997 54.1224V125.633C32.2997 133.711 34.6117 139.953 39.0673 144.574C43.6912 149.04 49.8505 151.347 57.748 151.347C65.827 151.347 72.0668 149.029 76.685 144.562C81.2999 139.937 83.6856 133.7 83.6856 125.633V54.1224C83.6856 46.0463 81.2957 39.9033 76.6963 35.4487L76.6848 35.4375ZM37.683 145.959C32.7891 140.898 30.3422 134.122 30.3422 125.633V54.1224C30.3422 45.6326 32.7891 38.9388 37.683 34.0408C42.74 28.9796 49.4284 26.449 57.748 26.449C66.2307 26.449 73.0006 28.9796 78.0577 34.0408C83.1147 38.9388 85.6432 45.6326 85.6432 54.1224V125.633C85.6432 134.122 83.1147 140.898 78.0577 145.959C73.0006 150.857 66.2307 153.306 57.748 153.306C49.4284 153.306 42.74 150.857 37.683 145.959ZM166.832 165L166.821 164.989C156.428 154.758 151.309 141.076 151.309 124.163V55.102C151.309 38.348 156.432 24.8966 166.844 14.9883C177.401 4.93455 191.547 0 209.057 0C226.562 0 240.704 4.93116 251.259 14.978C261.999 24.8803 267.295 38.3346 267.295 55.102V124.163C267.295 141.095 262 154.785 251.271 165.011L251.271 165.011C240.714 175.065 226.568 180 209.057 180C191.546 180 177.4 175.065 166.844 165.011L166.832 165ZM249.921 16.4081C239.807 6.77551 226.186 1.95918 209.057 1.95918C191.929 1.95918 178.307 6.77551 168.193 16.4081C158.242 25.8775 153.267 38.7755 153.267 55.102V124.163C153.267 140.653 158.242 153.796 168.193 163.592C178.307 173.224 191.929 178.041 209.057 178.041C226.186 178.041 239.807 173.224 249.921 163.592C260.199 153.796 265.337 140.653 265.337 124.163V55.102C265.337 38.7755 260.199 25.8775 249.921 16.4081ZM227.994 35.4375L227.983 35.4262C223.36 30.7998 217.125 28.4082 209.057 28.4082C201.165 28.4082 195.006 30.7925 190.377 35.4262C185.929 39.8771 183.609 46.0276 183.609 54.1224V125.633C183.609 133.712 185.921 139.953 190.377 144.574C195.001 149.04 201.16 151.347 209.057 151.347C217.136 151.347 223.376 149.029 227.994 144.562C232.609 139.937 234.995 133.7 234.995 125.633V54.1224C234.995 46.0463 232.605 39.9033 228.006 35.4487L227.994 35.4375ZM229.367 145.959C224.31 150.857 217.54 153.306 209.057 153.306C200.738 153.306 194.049 150.857 188.992 145.959C184.098 140.898 181.651 134.122 181.651 125.633V54.1224C181.651 45.6326 184.098 38.9388 188.992 34.0408C194.049 28.9796 200.738 26.449 209.057 26.449C217.54 26.449 224.31 28.9796 229.367 34.0408C234.424 38.9388 236.953 45.6326 236.953 54.1224V125.633C236.953 134.122 234.424 140.898 229.367 145.959ZM406.133 89.9245L406.142 89.9405C410.73 98.6145 412.976 109.069 412.976 121.224C412.976 131.388 411.312 140.393 407.927 148.193C403.859 158.025 397.394 165.694 388.554 171.138L388.545 171.144C379.861 176.426 369.46 179.02 357.43 179.02C344.893 179.02 334.07 176.173 325.052 170.384L325.041 170.377L325.031 170.37C316.026 164.418 309.572 156.162 305.681 145.671C302.97 138.545 301.64 130.302 301.64 120.98V46.2857C301.64 37.1262 303.933 28.9884 308.569 21.9429C313.189 14.9215 319.599 9.54742 327.732 5.81476C336.023 1.92129 345.447 0 355.962 0C366.147 0 375.245 1.83833 383.212 5.5691C391.333 9.2956 397.665 14.5825 402.128 21.4477C406.762 28.3244 409.061 36.2181 409.061 45.0612V50.449C409.061 51.8548 408.476 53.0705 407.509 54.0384C406.587 54.9607 405.402 55.3469 404.167 55.3469H381.655C380.416 55.3469 379.27 54.9645 378.278 54.2204L378.055 54.0525L377.887 53.8286C377.143 52.8364 376.761 51.6892 376.761 50.449V48.7347C376.761 42.6968 374.749 37.9302 370.782 34.2539L370.754 34.2283L370.728 34.2017C366.897 30.368 361.952 28.4082 355.717 28.4082C349.328 28.4082 344.12 30.4452 339.948 34.4715L339.947 34.4725C335.973 38.3018 333.94 43.319 333.94 49.7143V74.0546C341.051 68.0571 350.415 65.1428 361.835 65.1428C371.739 65.1428 380.482 67.2445 387.998 71.5171C395.67 75.7847 401.716 81.932 406.125 89.9088L406.133 89.9245ZM387.038 73.2245C379.861 69.1429 371.459 67.102 361.835 67.102C349.763 67.102 340.302 70.449 333.45 77.1429C333.124 77.4694 332.798 77.551 332.471 77.3878C332.145 77.2245 331.982 76.898 331.982 76.4082V49.7143C331.982 42.8571 334.184 37.3061 338.589 33.0612C343.156 28.6531 348.866 26.449 355.717 26.449C362.406 26.449 367.871 28.5714 372.112 32.8163C376.516 36.8979 378.719 42.2041 378.719 48.7347V50.449C378.719 51.2653 378.963 52 379.453 52.653C380.105 53.1429 380.839 53.3877 381.655 53.3877H404.167C404.983 53.3877 405.635 53.1429 406.125 52.653C406.777 52 407.103 51.2653 407.103 50.449V45.0612C407.103 36.5714 404.901 29.0612 400.497 22.5306C396.255 16 390.219 10.9388 382.389 7.34692C374.722 3.7551 365.913 1.95918 355.962 1.95918C345.685 1.95918 336.55 3.83673 328.556 7.59182C320.726 11.1837 314.609 16.3265 310.204 23.0204C305.8 29.7143 303.597 37.4694 303.597 46.2857V120.98C303.597 130.122 304.902 138.122 307.513 144.98C311.265 155.102 317.463 163.02 326.109 168.735C334.755 174.286 345.196 177.061 357.43 177.061C369.176 177.061 379.208 174.531 387.528 169.469C396.011 164.245 402.209 156.898 406.125 147.429C409.387 139.918 411.018 131.184 411.018 121.224C411.018 109.306 408.816 99.1837 404.412 90.8571C400.17 83.1837 394.379 77.3061 387.038 73.2245ZM377.206 138.239L377.213 138.226C379.497 133.654 380.676 128.171 380.676 121.714C380.676 114.628 379.342 108.685 376.763 103.81C372.572 96.6423 366.152 93.0612 357.186 93.0612C352.392 93.0612 348.418 94.0274 345.184 95.8667C341.964 97.6979 339.362 100.459 337.396 104.238C335.136 108.77 333.94 114.802 333.94 122.449C333.94 128.956 334.973 134.096 336.914 137.981L336.937 138.027L336.957 138.074C338.777 142.248 341.344 145.28 344.626 147.287C347.92 149.302 352.073 150.367 357.186 150.367C362.042 150.367 366.058 149.328 369.323 147.345C372.581 145.367 375.218 142.372 377.2 138.252L377.206 138.239ZM335.652 103.347C339.894 95.1837 347.072 91.102 357.186 91.102C366.81 91.102 373.906 95.0204 378.474 102.857C381.247 108.082 382.634 114.367 382.634 121.714C382.634 128.408 381.41 134.204 378.963 139.102C374.722 147.918 367.463 152.327 357.186 152.327C346.419 152.327 339.078 147.837 335.163 138.857C333.042 134.612 331.982 129.143 331.982 122.449C331.982 114.612 333.206 108.245 335.652 103.347ZM525.209 173.696L525.2 173.699C517.07 177.429 507.729 179.265 497.224 179.265C487.035 179.265 477.859 177.426 469.736 173.699L469.729 173.696L469.722 173.693C461.759 169.962 455.44 164.677 450.822 157.831L450.812 157.817L450.803 157.802C446.337 150.925 444.125 143.037 444.125 134.204V128.816C444.125 127.58 444.511 126.394 445.432 125.472C446.399 124.504 447.614 123.918 449.019 123.918H471.531C472.869 123.918 474.033 124.457 474.881 125.463C475.886 126.312 476.425 127.477 476.425 128.816V130.531C476.425 136.585 478.368 141.453 482.2 145.295C486.024 148.968 490.974 150.857 497.224 150.857C503.812 150.857 509.009 148.879 512.994 145.038C517.146 141.03 519.246 135.923 519.246 129.551V104.972C512 111.122 502.559 114.122 491.106 114.122C481.198 114.122 472.379 112.019 464.707 107.753L464.699 107.749L464.691 107.744C457.179 103.473 451.298 97.3217 447.056 89.3472C442.291 80.8216 439.965 70.3537 439.965 58.0408C439.965 47.874 441.63 38.8673 445.017 31.0657C449.089 21.3934 455.555 13.8118 464.387 8.37226C473.226 2.92857 483.626 0.24489 495.511 0.24489C508.05 0.24489 518.876 3.17516 527.893 9.12915C537.069 14.9165 543.612 23.0968 547.506 33.597C550.217 40.7222 551.546 48.9648 551.546 58.2857V132.98C551.546 142.139 549.252 150.277 544.617 157.322C539.993 164.348 533.502 169.8 525.217 173.692L525.209 173.696ZM545.673 34.2857C548.283 41.1429 549.588 49.1428 549.588 58.2857V132.98C549.588 141.796 547.386 149.551 542.982 156.245C538.577 162.939 532.378 168.163 524.385 171.918C516.555 175.51 507.501 177.306 497.224 177.306C487.273 177.306 478.382 175.51 470.552 171.918C462.885 168.327 456.849 163.265 452.445 156.735C448.203 150.204 446.082 142.694 446.082 134.204V128.816C446.082 128 446.327 127.347 446.817 126.857C447.469 126.204 448.203 125.878 449.019 125.878H471.531C472.346 125.878 472.999 126.204 473.488 126.857C474.141 127.347 474.467 128 474.467 128.816V130.531C474.467 137.061 476.588 142.449 480.829 146.694C485.071 150.776 490.535 152.816 497.224 152.816C504.238 152.816 509.948 150.694 514.352 146.449C518.92 142.041 521.204 136.408 521.204 129.551V102.612C521.204 102.122 521.041 101.796 520.714 101.633C520.388 101.469 520.062 101.551 519.736 101.878C512.721 108.735 503.178 112.163 491.106 112.163C481.482 112.163 472.999 110.122 465.658 106.041C458.48 101.959 452.852 96.0816 448.774 88.4082C444.206 80.2449 441.923 70.1224 441.923 58.0408C441.923 48.0816 443.554 39.3469 446.817 31.8367C450.732 22.5306 456.931 15.2653 465.413 10.0408C473.896 4.81632 483.929 2.20407 495.511 2.20407C507.746 2.20407 518.186 5.06121 526.832 10.7755C535.641 16.3265 541.921 24.1633 545.673 34.2857ZM516.232 41.2007L516.229 41.1917C514.409 37.0177 511.842 33.985 508.56 31.9779C505.266 29.9629 501.113 28.898 496 28.898C491.057 28.898 486.977 29.9398 483.671 31.9249C480.379 33.9021 477.729 36.8898 475.751 40.9935C473.431 46.1089 472.265 51.6204 472.265 57.551C472.265 64.6303 473.677 70.5647 476.41 75.4341C480.609 82.6284 486.958 86.2041 495.756 86.2041C500.549 86.2041 504.523 85.2379 507.757 83.3986C510.978 81.5673 513.579 78.8064 515.545 75.0271C517.981 70.1437 519.246 64.099 519.246 56.8163C519.246 50.8353 518.224 45.6478 516.236 41.2096L516.232 41.2007ZM517.289 75.9184C513.047 84.0816 505.87 88.1633 495.756 88.1633C486.294 88.1633 479.279 84.2449 474.712 76.4082C471.775 71.1837 470.307 64.898 470.307 57.551C470.307 51.3469 471.531 45.551 473.978 40.1633C478.219 31.3469 485.56 26.9388 496 26.9388C506.767 26.9388 514.108 31.4286 518.023 40.4082C520.143 45.1429 521.204 50.6122 521.204 56.8163C521.204 64.3265 519.899 70.6939 517.289 75.9184ZM689.157 89.9245L689.166 89.9405C693.754 98.6145 696 109.069 696 121.224C696 131.39 694.336 140.395 690.95 148.196C686.881 158.026 680.417 165.694 671.578 171.138L671.569 171.144C662.885 176.426 652.484 179.02 640.454 179.02C627.917 179.02 617.094 176.173 608.076 170.384L608.065 170.377L608.055 170.37C599.049 164.417 592.594 156.16 588.704 145.668C585.993 138.543 584.664 130.301 584.664 120.98V46.2857C584.664 37.1262 586.957 28.9884 591.593 21.9429C596.214 14.9211 602.623 9.54677 610.757 5.81408C619.048 1.92099 628.472 0 638.986 0C649.172 0 658.27 1.83858 666.237 5.56986C674.358 9.29633 680.689 14.5829 685.152 21.4477C689.786 28.3244 692.085 36.2181 692.085 45.0612V50.449C692.085 51.8548 691.5 53.0705 690.533 54.0384C689.611 54.9607 688.426 55.3469 687.191 55.3469H664.679C663.44 55.3469 662.294 54.9645 661.302 54.2204L661.079 54.0525L660.911 53.8286C660.167 52.8364 659.785 51.6892 659.785 50.449V48.7347C659.785 42.6968 657.773 37.9302 653.806 34.2539L653.778 34.2283L653.752 34.2017C649.921 30.368 644.976 28.4082 638.741 28.4082C632.352 28.4082 627.144 30.4452 622.972 34.4715L622.971 34.4725C618.997 38.3018 616.964 43.319 616.964 49.7143V74.0546C624.075 68.0571 633.439 65.1428 644.859 65.1428C654.762 65.1428 663.505 67.2443 671.021 71.5163C678.693 75.784 684.739 81.9314 689.149 89.9088L689.157 89.9245ZM683.521 22.5306C679.279 16 673.243 10.9388 665.413 7.34692C657.746 3.7551 648.937 1.95918 638.986 1.95918C628.709 1.95918 619.574 3.83673 611.58 7.59182C603.75 11.1837 597.633 16.3265 593.228 23.0204C588.824 29.7143 586.621 37.4694 586.621 46.2857V120.98C586.621 130.122 587.926 138.122 590.537 144.98C594.288 155.102 600.487 163.02 609.133 168.735C617.779 174.286 628.22 177.061 640.454 177.061C652.2 177.061 662.232 174.531 670.552 169.469C679.035 164.245 685.233 156.898 689.149 147.429C692.411 139.918 694.042 131.184 694.042 121.224C694.042 109.306 691.84 99.1837 687.436 90.8571C683.194 83.1837 677.403 77.3061 670.062 73.2245C662.885 69.1429 654.483 67.102 644.859 67.102C632.787 67.102 623.326 70.449 616.474 77.1429C616.148 77.4694 615.822 77.551 615.495 77.3878C615.169 77.2245 615.006 76.898 615.006 76.4082V49.7143C615.006 42.8571 617.208 37.3061 621.613 33.0612C626.18 28.6531 631.89 26.449 638.741 26.449C645.43 26.449 650.895 28.5714 655.136 32.8163C659.54 36.8979 661.743 42.2041 661.743 48.7347V50.449C661.743 51.2653 661.987 52 662.477 52.653C663.129 53.1429 663.863 53.3877 664.679 53.3877H687.191C688.007 53.3877 688.659 53.1429 689.149 52.653C689.801 52 690.127 51.2653 690.127 50.449V45.0612C690.127 36.5714 687.925 29.0612 683.521 22.5306ZM660.23 138.239L660.237 138.226C662.521 133.654 663.7 128.171 663.7 121.714C663.7 114.628 662.366 108.685 659.787 103.81C655.596 96.6423 649.176 93.0612 640.21 93.0612C635.416 93.0612 631.442 94.0274 628.208 95.8667C624.988 97.6975 622.388 100.457 620.421 104.235C618.16 108.768 616.964 114.801 616.964 122.449C616.964 128.956 617.997 134.096 619.938 137.981L619.961 138.027L619.981 138.074C621.801 142.248 624.368 145.28 627.65 147.287C630.944 149.302 635.097 150.367 640.21 150.367C645.066 150.367 649.082 149.328 652.346 147.345C655.605 145.367 658.242 142.372 660.224 138.252L660.23 138.239ZM618.676 103.347C622.918 95.1837 630.096 91.102 640.21 91.102C649.834 91.102 656.93 95.0204 661.498 102.857C664.271 108.082 665.658 114.367 665.658 121.714C665.658 128.408 664.434 134.204 661.987 139.102C657.746 147.918 650.487 152.327 640.21 152.327C629.443 152.327 622.102 147.837 618.187 138.857C616.066 134.612 615.006 129.143 615.006 122.449C615.006 114.612 616.229 108.245 618.676 103.347Z" fill="#A3B04E"/>
</svg>
