<svg width="149" height="144" viewBox="0 0 149 144" fill="none" xmlns="http://www.w3.org/2000/svg">
<g clip-path="url(#clip0_245_294)">
<path d="M80.8 45.3999H101.26" stroke="#EAC852" stroke-width="2" stroke-linecap="round" stroke-linejoin="round"/>
<path d="M109.86 17.6V79.6H41.88V7.07C41.88 3.72 44.6 1 47.95 1H91.79L109.86 17.6Z" stroke="#184B5B" stroke-width="2" stroke-linecap="round" stroke-linejoin="round"/>
<path d="M147.45 80.2301C147.47 82.9801 145.95 85.3301 143.63 86.3301L143.57 86.3501C140.89 87.5001 138.3 88.8501 135.84 90.4001C129.2 94.5901 124.7 98.6201 118.39 104.85C116.14 107.1 113.33 109.43 109.96 111.33L61.25 137.07C62.83 135.71 63.64 133.78 63.67 131.83C63.69 130.16 63.12 128.48 61.96 127.13C59.57 124.38 55.49 123.94 52.57 126.02L52.53 125.97L54.22 124.51C55.91 123.05 56.79 120.97 56.82 118.89C56.84 117.09 56.24 115.29 54.97 113.84C52.24 110.7 47.45 110.36 44.31 113.08L47.05 110.7C48.73 109.24 49.61 107.17 49.63 105.1C49.65 103.31 49.05 101.52 47.78 100.07C45.07 96.9401 40.28 96.6101 37.15 99.3201L33.83 102.21L33.81 102.17L34.37 101.69C36.06 100.23 36.94 98.1501 36.97 96.0701C36.99 94.2701 36.39 92.4701 35.12 91.0201C32.93 88.4801 29.38 87.7701 26.45 89.0301L56.45 70.3801L56.78 70.1201L60.36 67.4001L76.87 54.8701L76.91 54.8501L89.37 47.8301C92.45 46.0801 95.98 45.3601 99.51 45.5301C107.45 45.8901 114.29 42.4501 118.02 40.9101L118.05 40.8901C119.81 39.8901 121.99 39.8301 123.96 40.7201C127.77 42.4101 134 46.7501 140.28 57.7701C146.21 68.1601 147.45 75.7601 147.47 80.2401L147.45 80.2301Z" fill="white" stroke="#184B5B" stroke-width="2" stroke-linecap="round" stroke-linejoin="round"/>
<path d="M56.78 70.1301L60.39 67.3301C60.39 67.3301 60.38 67.3801 60.36 67.4101L56.78 70.1301Z" fill="white" stroke="#184B5B" stroke-width="2" stroke-linecap="round" stroke-linejoin="round"/>
<path d="M108.37 112.14C110.17 113.51 111.28 115.43 111.62 117.42C111.97 119.42 111.55 121.47 110.27 123.14C107.72 126.48 103 126.64 99.35 124.23L95.12 121.01C98.72 123.75 99.57 128.68 97.03 132.01C94.49 135.34 89.51 135.82 85.92 133.08L82.3 130.32C85.81 133 86.22 137.77 82.15 140.97C78.55 144.17 72.81 141.72 69.3 139.05L57.37 129.95L58.69 130.96L40.18 116.84C36.66 114.24 30.28 107.92 28.01 105.21C21.66 97.6399 19.78 96.8399 12.85 91.2799C10.29 89.2199 7.56 87.3399 4.72 85.6599L4.64 85.6199C2.17 84.1499 0.729998 81.4799 1.03 78.6899C1.49 74.1499 3.63 66.6699 11.22 57.2599C19.26 47.2999 26.6 44.1099 30.97 43.1199C33.25 42.5899 35.65 43.0799 37.49 44.4399L37.53 44.4699C42.27 47.1999 45.17 52.9399 53.6 55.0399C53.6 55.0399 62.28 57.4699 73.57 66.6899C79.89 71.8499 82.65 73.9899 84.45 75.2699C86.65 76.8399 87.42 77.1499 91.49 80.1799L117.57 100.07C121.17 102.81 122.02 107.74 119.48 111.07C116.94 114.4 111.96 114.88 108.37 112.14Z" fill="white" stroke="#184B5B" stroke-width="2" stroke-linecap="round" stroke-linejoin="round"/>
<path d="M70.8 121.36L83.08 130.99" stroke="#184B5B" stroke-width="2" stroke-linecap="round" stroke-linejoin="round"/>
<path d="M80.8 109.9L95.4 121.36" stroke="#184B5B" stroke-width="2" stroke-linecap="round" stroke-linejoin="round"/>
<path d="M91.79 98.96L108.65 112.19" stroke="#184B5B" stroke-width="2" stroke-linecap="round" stroke-linejoin="round"/>
<path d="M75.47 55.9399L60.38 67.3299C59.58 69.7499 60.04 72.6699 62.2 76.4999L71.83 93.5699C74.54 98.3599 79.15 98.9999 83.12 96.7699C86.04 95.1099 88.43 90.6999 85.46 85.4499L79.92 75.6499" fill="white"/>
<path d="M75.47 55.9399L60.38 67.3299C59.58 69.7499 60.04 72.6699 62.2 76.4999L71.83 93.5699C74.54 98.3599 79.15 98.9999 83.12 96.7699C86.04 95.1099 88.43 90.6999 85.46 85.4499L79.92 75.6499" stroke="#184B5B" stroke-width="2" stroke-linecap="round" stroke-linejoin="round"/>
<path d="M41.88 93.7201C41.85 95.8101 40.97 97.8801 39.28 99.3401L38.72 99.8201L31.7 105.92C28.56 108.66 23.75 108.32 21.02 105.17C18.28 102.03 18.62 97.2201 21.77 94.4901L29.34 87.9101L31.34 86.6701C34.27 85.4101 37.82 86.1201 40.01 88.6601C41.27 90.1101 41.88 91.9101 41.86 93.7101L41.88 93.7201Z" fill="white" stroke="#184B5B" stroke-width="2" stroke-linecap="round" stroke-linejoin="round"/>
<path d="M61.72 116.55C61.69 118.64 60.81 120.71 59.12 122.17L57.43 123.63L51.55 128.76C48.4 131.49 43.6 131.15 40.86 128.01C38.15 124.87 38.47 120.09 41.58 117.35L48.06 111.72L49.2 110.73C52.34 108.02 57.14 108.35 59.86 111.49C61.12 112.94 61.73 114.74 61.71 116.54L61.72 116.55Z" fill="white" stroke="#184B5B" stroke-width="2" stroke-linecap="round" stroke-linejoin="round"/>
<path d="M54.54 102.76C54.51 104.83 53.63 106.9 51.96 108.36L49.21 110.74L48.07 111.73L41.59 117.36C38.46 120.09 33.68 119.75 30.96 116.62C28.24 113.49 28.58 108.71 31.71 105.99L38.75 99.8702L42.07 96.9802C45.2 94.2702 49.98 94.6002 52.7 97.7302C53.96 99.1802 54.57 100.97 54.55 102.76H54.54Z" fill="white" stroke="#184B5B" stroke-width="2" stroke-linecap="round" stroke-linejoin="round"/>
<path d="M68.58 129.49C68.56 131.44 67.74 133.36 66.16 134.73L62.53 137.89C59.61 140.42 55.14 140.11 52.59 137.19C50.05 134.27 50.37 129.8 53.29 127.27L56.92 124.11C57.1 123.96 57.28 123.81 57.47 123.69C60.39 121.61 64.47 122.05 66.86 124.8C68.02 126.15 68.59 127.83 68.57 129.5L68.58 129.49Z" fill="white" stroke="#184B5B" stroke-width="2" stroke-linecap="round" stroke-linejoin="round"/>
<path d="M117.09 70.9502C117.09 70.9502 97.92 82.9302 89.92 78.6902L117.09 70.9502Z" fill="white"/>
<path d="M117.09 70.9502C117.09 70.9502 97.92 82.9302 89.92 78.6902" stroke="#184B5B" stroke-width="2" stroke-linecap="round" stroke-linejoin="round"/>
<path d="M83.61 74.65L75.82 68.73" stroke="#184B5B" stroke-width="2" stroke-linecap="round" stroke-linejoin="round"/>
<path d="M91.79 17.6001L109.18 17.4701C109.18 17.4701 109.2 17.4501 109.19 17.4401L92.6 1.77011C92.29 1.48011 91.79 1.70011 91.79 2.12011V17.6001Z" stroke="#184B5B" stroke-width="2" stroke-linecap="round" stroke-linejoin="round"/>
<path d="M80.8 35.29H101.26" stroke="#EAC852" stroke-width="2" stroke-linecap="round" stroke-linejoin="round"/>
<path d="M60.38 48.7399C65.1573 48.7399 69.03 44.8672 69.03 40.0899C69.03 35.3127 65.1573 31.4399 60.38 31.4399C55.6027 31.4399 51.73 35.3127 51.73 40.0899C51.73 44.8672 55.6027 48.7399 60.38 48.7399Z" stroke="#EAC852" stroke-width="2" stroke-linecap="round" stroke-linejoin="round"/>
<path d="M56.78 40.0899L60.38 44.1599L71.34 30.1299" stroke="#EAC852" stroke-width="2" stroke-linecap="round" stroke-linejoin="round"/>
</g>
<defs>
<clipPath id="clip0_245_294">
<rect width="148.45" height="143.49" fill="white"/>
</clipPath>
</defs>
</svg>
