<svg width="108" height="105" viewBox="0 0 108 105" fill="none" xmlns="http://www.w3.org/2000/svg">
<path d="M55.7049 103.373C76.5576 102.589 92.8274 85.0123 92.0446 64.1152C91.2617 43.2181 73.7226 26.9136 52.8699 27.6981C32.0172 28.4827 15.7474 46.0591 16.5302 66.9562C17.3131 87.8533 34.8522 104.158 55.7049 103.373Z" stroke="#EAC852" stroke-width="1.5" stroke-linecap="round" stroke-linejoin="round"/>
<path d="M31.2175 88.817L25.6995 71.0549C24.9769 68.7269 27.3955 66.6742 29.5692 67.7693L44.0032 75.0525C45.5976 75.8545 46.0216 77.9491 44.8571 79.3076L35.9352 89.7865C34.5259 91.4382 31.8564 90.8876 31.2115 88.817H31.2175Z" stroke="#EAC852" stroke-width="1.5" stroke-linecap="round" stroke-linejoin="round"/>
<path d="M82.6767 58.5236H64.6299C59.4762 58.5236 55.2959 60.3728 55.2959 65.5374C55.2959 67.1892 55.2959 69.4813 58.1863 71.0073C58.4789 71.1629 58.8014 71.2228 59.1059 71.3544L68.2787 75.376L75.5882 88.6797C76.1555 90.499 80.0909 93.192 81.4226 91.8874C87.3646 85.7413 91.2523 77.5843 91.957 68.5297C91.957 68.5297 90.9716 58.5176 82.6767 58.5176V58.5236Z" stroke="#EAC852" stroke-width="1.5" stroke-linecap="round" stroke-linejoin="round"/>
<path d="M89.2875 51.2584C86.3972 44.1487 81.4107 38.1163 75.0925 33.9331H74.7402C66.0332 33.9331 58.9686 41.0068 58.9686 49.7383C58.9686 52.0304 60.8198 53.8856 63.107 53.8856H85.4417C87.1914 53.8856 88.6844 52.7964 89.2875 51.2643V51.2584Z" stroke="#EAC852" stroke-width="1.5" stroke-linecap="round" stroke-linejoin="round"/>
<path d="M93.5 27C97.0899 27 100 24.0899 100 20.5C100 16.9101 97.0899 14 93.5 14C89.9101 14 87 16.9101 87 20.5C87 24.0899 89.9101 27 93.5 27Z" fill="#EAC852"/>
<path d="M93 7V11" stroke="#EAC852" stroke-width="1.5" stroke-miterlimit="10" stroke-linecap="round"/>
<path d="M84 12L86 13" stroke="#EAC852" stroke-width="1.5" stroke-miterlimit="10" stroke-linecap="round"/>
<path d="M80 21H84" stroke="#EAC852" stroke-width="1.5" stroke-miterlimit="10" stroke-linecap="round"/>
<path d="M103 12L101 13" stroke="#EAC852" stroke-width="1.5" stroke-miterlimit="10" stroke-linecap="round"/>
<path d="M107 21H103" stroke="#EAC852" stroke-width="1.5" stroke-miterlimit="10" stroke-linecap="round"/>
<path d="M93 34V30" stroke="#EAC852" stroke-width="1.5" stroke-miterlimit="10" stroke-linecap="round"/>
<path d="M84 30L86 28" stroke="#EAC852" stroke-width="1.5" stroke-miterlimit="10" stroke-linecap="round"/>
<path d="M103 30L101 28" stroke="#EAC852" stroke-width="1.5" stroke-miterlimit="10" stroke-linecap="round"/>
<path d="M45.8066 28.6304C45.2572 29.5999 44.9348 30.719 44.9348 31.9099V34.214C44.9348 36.9609 46.6009 39.3188 48.9777 40.3242C48.9777 40.3242 51.4978 34.6209 58.1683 34.214V31.9099C58.1683 30.336 57.6189 28.8877 56.6993 27.7507C55.899 27.7028 55.0988 27.6729 54.2867 27.6729C51.3724 27.6729 48.5298 28.002 45.8066 28.6304Z" stroke="#EAC852" stroke-width="1.5" stroke-linecap="round" stroke-linejoin="round"/>
<path d="M16.5029 65.5373C16.5029 66.2494 16.5268 66.9496 16.5626 67.6498L29.8917 61.5037C32.9374 60.0973 35.1768 57.3863 35.983 54.1247L39.8945 38.2417C40.5096 35.7402 40.223 33.125 39.1361 30.8389C25.813 36.6918 16.4969 50.0253 16.4969 65.5373H16.5029Z" stroke="#EAC852" stroke-width="1.5" stroke-linecap="round" stroke-linejoin="round"/>
<path d="M8.70963 80.2653V23.9328H1L17.6674 10.2222L32.8358 23.9328H24.1289L24.3797 32.4069" stroke="#184B5B" stroke-width="1.5" stroke-linecap="round" stroke-linejoin="round"/>
<path d="M44.9348 22.9334V16.7034H37.3147L54.2867 1L71.6408 16.7034H62.9339V22.9334" stroke="#184B5B" stroke-width="1.5" stroke-linecap="round" stroke-linejoin="round"/>
<path d="M101.834 85.1546V58.8525C101.834 56.1176 99.6248 53.9033 96.8957 53.9033C94.1665 53.9033 91.957 56.1176 91.957 58.8525V85.1546C89.2219 86.8243 87.3885 89.8345 87.3885 93.2816C87.3885 98.542 91.6464 102.809 96.8957 102.809C102.145 102.809 106.403 98.542 106.403 93.2816C106.403 89.8345 104.569 86.8243 101.834 85.1546Z" stroke="#184B5B" stroke-width="1.5" stroke-linecap="round" stroke-linejoin="round"/>
<path d="M96.8957 62.5869V89.266" stroke="#184B5B" stroke-width="1.5" stroke-linecap="round" stroke-linejoin="round"/>
<path d="M96.8957 97.5244C99.2308 97.5244 101.124 95.6274 101.124 93.2874C101.124 90.9473 99.2308 89.0503 96.8957 89.0503C94.5606 89.0503 92.6676 90.9473 92.6676 93.2874C92.6676 95.6274 94.5606 97.5244 96.8957 97.5244Z" fill="#184B5B"/>
<path d="M31.7609 98.7693C29.1333 98.7693 27.0014 96.6269 27.0014 93.9997C27.0014 91.3724 29.205 85.7051 31.7609 85.7051C34.3168 85.7051 36.5204 91.2707 36.5204 93.9997C36.5204 96.7286 34.3825 98.7693 31.7609 98.7693Z" fill="white" stroke="#184B5B" stroke-width="1.5"/>
<path d="M22.5285 102.581C21.137 102.581 20.0083 101.45 20.0083 100.056C20.0083 98.6615 21.2027 95.5615 22.5285 95.5615C23.8542 95.5615 25.0486 98.6136 25.0486 100.056C25.0486 101.498 23.9199 102.581 22.5285 102.581Z" fill="white" stroke="#184B5B" stroke-width="1.5"/>
</svg>
