<svg width="108" height="82" viewBox="0 0 108 82" fill="none" xmlns="http://www.w3.org/2000/svg">
<g clip-path="url(#clip0_245_368)">
<path d="M43.97 27.5601V32.2901C43.97 34.6901 47.98 36.6401 52.94 36.6401C57.9 36.6401 61.91 34.6901 61.91 32.2901V27.5601" stroke="#184B5B" stroke-miterlimit="10"/>
<path d="M43.97 32.0498V36.6698C43.97 39.0698 47.98 41.0198 52.94 41.0198C57.9 41.0198 61.91 39.0698 61.91 36.6698V32.0498" stroke="#184B5B" stroke-miterlimit="10"/>
<path d="M43.97 36.5298V41.1498C43.97 43.5498 47.98 45.4998 52.94 45.4998C57.9 45.4998 61.91 43.5498 61.91 41.1498V36.5298" stroke="#184B5B" stroke-miterlimit="10"/>
<path d="M43.97 40.4302V45.0502C43.97 47.4502 47.98 49.4002 52.94 49.4002C57.9 49.4002 61.91 47.4502 61.91 45.0502V40.4302" stroke="#184B5B" stroke-miterlimit="10"/>
<path d="M52.93 31.94C57.884 31.94 61.9 29.8358 61.9 27.24C61.9 24.6443 57.884 22.54 52.93 22.54C47.976 22.54 43.96 24.6443 43.96 27.24C43.96 29.8358 47.976 31.94 52.93 31.94Z" stroke="#184B5B" stroke-miterlimit="10"/>
<path d="M66.39 24.96V29.69C66.39 32.09 70.4 34.04 75.36 34.04C80.32 34.04 84.33 32.09 84.33 29.69V24.96" stroke="#184B5B" stroke-miterlimit="10"/>
<path d="M66.39 29.46V34.08C66.39 36.48 70.4 38.43 75.36 38.43C80.32 38.43 84.33 36.48 84.33 34.08V29.46" stroke="#184B5B" stroke-miterlimit="10"/>
<path d="M66.39 33.9399V38.5599C66.39 40.9599 70.4 42.9099 75.36 42.9099C80.32 42.9099 84.33 40.9599 84.33 38.5599V33.9399" stroke="#184B5B" stroke-miterlimit="10"/>
<path d="M66.39 37.8398V42.4598C66.39 44.8598 70.4 46.8098 75.36 46.8098C80.32 46.8098 84.33 44.8598 84.33 42.4598V37.8398" stroke="#184B5B" stroke-miterlimit="10"/>
<path d="M75.36 29.3502C80.314 29.3502 84.33 27.2459 84.33 24.6502C84.33 22.0545 80.314 19.9502 75.36 19.9502C70.406 19.9502 66.39 22.0545 66.39 24.6502C66.39 27.2459 70.406 29.3502 75.36 29.3502Z" stroke="#184B5B" stroke-miterlimit="10"/>
<path d="M81.7 57.8998L94.62 50.0798C98.64 47.5998 103.91 48.8498 106.39 52.8698C107.8 55.1598 107.09 58.1698 104.8 59.5798L93.92 66.3098L79.5 75.1898C68.45 81.9998 53.28 82.2198 42.47 76.8098C42.47 76.8098 32.29 71.1298 19.46 72.8498V47.1798L29.23 41.7698C40.13 35.6798 54.06 46.0298 54.06 46.0298C59.37 49.5298 63.85 51.7798 70.02 52.9598C72.32 53.3998 75.15 53.3698 77.25 54.2998C79.86 55.4598 81.98 57.4398 82.64 60.2998C83.1 62.3098 82.23 64.8198 80.5 65.9898C78.15 67.5698 74.63 67.0198 72.02 66.6798C65.58 65.8498 59.26 64.0998 53.23 61.6998C53.15 61.6698 53.07 61.6398 53 61.6098" fill="white"/>
<path d="M81.7 57.8998L94.62 50.0798C98.64 47.5998 103.91 48.8498 106.39 52.8698C107.8 55.1598 107.09 58.1698 104.8 59.5798L93.92 66.3098L79.5 75.1898C68.45 81.9998 53.28 82.2198 42.47 76.8098C42.47 76.8098 32.29 71.1298 19.46 72.8498V47.1798L29.23 41.7698C40.13 35.6798 54.06 46.0298 54.06 46.0298C59.37 49.5298 63.85 51.7798 70.02 52.9598C72.32 53.3998 75.15 53.3698 77.25 54.2998C79.86 55.4598 81.98 57.4398 82.64 60.2998C83.1 62.3098 82.23 64.8198 80.5 65.9898C78.15 67.5698 74.63 67.0198 72.02 66.6798C65.58 65.8498 59.26 64.0998 53.23 61.6998C53.15 61.6698 53.07 61.6398 53 61.6098" stroke="#184B5B" stroke-linecap="round" stroke-linejoin="round"/>
<path d="M76.66 54.0802L90.69 45.8502C94.25 43.6602 98.9 44.7702 101.09 48.3202L101.47 49.1502" fill="white"/>
<path d="M76.66 54.0802L90.69 45.8502C94.25 43.6602 98.9 44.7702 101.09 48.3202L101.47 49.1502" stroke="#184B5B" stroke-linecap="round" stroke-linejoin="round"/>
<path d="M68.55 52.68L84.61 43.2C87.83 41.22 91.95 41.94 94.32 44.72" fill="white"/>
<path d="M68.55 52.68L84.61 43.2C87.83 41.22 91.95 41.94 94.32 44.72" stroke="#184B5B" stroke-linecap="round" stroke-linejoin="round"/>
<path d="M19.51 43H1.48997C0.667084 43 0 43.6094 0 44.361V74.639C0 75.3906 0.667084 76 1.48997 76H19.51C20.3329 76 21 75.3906 21 74.639V44.361C21 43.6094 20.3329 43 19.51 43Z" fill="#EAC852"/>
<path d="M14.62 36.1601V29.9501H11.76L17.67 24.6201L23.05 29.9501H20.33L20.42 36.1601" stroke="#EAC852" stroke-linecap="round" stroke-linejoin="round"/>
<path d="M26.9 32.1002V11.7802H24.08L30.36 5.97021L36.79 11.7802H33.57V32.1002" stroke="#EAC852" stroke-linecap="round" stroke-linejoin="round"/>
<path d="M60.38 19.95V17.62C58.75 17.55 57.15 17.09 56.23 16.57L56.96 13.71C58 14.26 59.44 14.78 61.02 14.78C62.41 14.78 63.37 14.23 63.37 13.26C63.37 12.29 62.59 11.75 60.77 11.14C58.15 10.26 56.37 9.03 56.37 6.67C56.37 4.51 57.88 2.82 60.5 2.31V0H62.9V2.16C64.52 2.22 65.62 2.57 66.44 2.96L65.71 5.72C65.09 5.44 63.95 4.88 62.2 4.88C60.63 4.88 60.11 5.58 60.11 6.26C60.11 7.06 60.96 7.58 63.04 8.35C65.95 9.37 67.11 10.72 67.11 12.94C67.11 15.16 65.58 16.95 62.77 17.44V19.95H60.37H60.38Z" fill="#EAC852"/>
</g>
<defs>
<clipPath id="clip0_245_368">
<rect width="107.62" height="81.12" fill="white"/>
</clipPath>
</defs>
</svg>
