<svg width="101" height="97" viewBox="0 0 101 97" fill="none" xmlns="http://www.w3.org/2000/svg">
<g clip-path="url(#clip0_246_386)">
<path d="M34.21 5.24023H5.48C2.72962 5.24023 0.5 7.46986 0.5 10.2202V75.8002C0.5 78.5506 2.72962 80.7802 5.48 80.7802H34.21C36.9604 80.7802 39.19 78.5506 39.19 75.8002V10.2202C39.19 7.46986 36.9604 5.24023 34.21 5.24023Z" stroke="#184B5B" stroke-miterlimit="10"/>
<path d="M39.28 5.24023H10.55C7.79962 5.24023 5.57 7.46986 5.57 10.2202V75.8002C5.57 78.5506 7.79962 80.7802 10.55 80.7802H39.28C42.0304 80.7802 44.26 78.5506 44.26 75.8002V10.2202C44.26 7.46986 42.0304 5.24023 39.28 5.24023Z" stroke="#184B5B" stroke-miterlimit="10"/>
<path d="M88.63 5.24023H17.65C13.5576 5.24023 10.24 8.5578 10.24 12.6502V73.3702C10.24 77.4627 13.5576 80.7802 17.65 80.7802H88.63C92.7224 80.7802 96.04 77.4627 96.04 73.3702V12.6502C96.04 8.5578 92.7224 5.24023 88.63 5.24023Z" fill="white" stroke="#EAC852" stroke-miterlimit="10"/>
<path d="M10.24 19.9702H96.04" stroke="#EAC852" stroke-miterlimit="10"/>
<path d="M27.02 30.4199H18.63V38.8099H27.02V30.4199Z" stroke="#184B5B" stroke-linecap="round" stroke-linejoin="round"/>
<path d="M28.13 0.5H33.18C33.5169 0.5 33.79 0.773107 33.79 1.11V10.39C33.79 10.7269 33.5169 11 33.18 11H28.13C27.7931 11 27.52 10.7269 27.52 10.39V1.11C27.52 0.773106 27.7931 0.5 28.13 0.5Z" fill="white" stroke="#184B5B"/>
<path d="M50.61 0.5H55.66C55.9969 0.5 56.27 0.773107 56.27 1.11V10.39C56.27 10.7269 55.9969 11 55.66 11H50.61C50.2731 11 50 10.7269 50 10.39V1.11C50 0.773107 50.2731 0.5 50.61 0.5Z" fill="white" stroke="#184B5B"/>
<path d="M74.39 0.5H79.44C79.7769 0.5 80.05 0.773107 80.05 1.11V10.39C80.05 10.7269 79.7769 11 79.44 11H74.39C74.0531 11 73.78 10.7269 73.78 10.39V1.11C73.78 0.773107 74.0531 0.5 74.39 0.5Z" fill="white" stroke="#184B5B"/>
<path d="M27.02 46.46H18.63V54.85H27.02V46.46Z" stroke="#184B5B" stroke-linecap="round" stroke-linejoin="round"/>
<path d="M27.02 62.5H18.63V70.89H27.02V62.5Z" stroke="#184B5B" stroke-linecap="round" stroke-linejoin="round"/>
<path d="M42.69 30.4199H34.3V38.8099H42.69V30.4199Z" fill="#EAC852"/>
<path d="M42.69 46.46H34.3V54.85H42.69V46.46Z" stroke="#184B5B" stroke-linecap="round" stroke-linejoin="round"/>
<path d="M42.69 62.5H34.3V70.89H42.69V62.5Z" stroke="#184B5B" stroke-linecap="round" stroke-linejoin="round"/>
<path d="M58.36 30.4199H49.97V38.8099H58.36V30.4199Z" stroke="#184B5B" stroke-linecap="round" stroke-linejoin="round"/>
<path d="M58.36 46.46H49.97V54.85H58.36V46.46Z" stroke="#184B5B" stroke-linecap="round" stroke-linejoin="round"/>
<path d="M58.36 62.5H49.97V70.89H58.36V62.5Z" fill="#EAC852"/>
<path d="M74.02 30.4199H65.63V38.8099H74.02V30.4199Z" stroke="#184B5B" stroke-linecap="round" stroke-linejoin="round"/>
<path d="M74.02 46.46H65.63V54.85H74.02V46.46Z" fill="#EAC852"/>
<path d="M89.69 30.4199H81.3V38.8099H89.69V30.4199Z" stroke="#184B5B" stroke-linecap="round" stroke-linejoin="round"/>
<path d="M89.69 46.46H81.3V54.85H89.69V46.46Z" stroke="#184B5B" stroke-linecap="round" stroke-linejoin="round"/>
<path d="M82.61 96.4399C92.2916 96.4399 100.14 88.5914 100.14 78.9099C100.14 69.2283 92.2916 61.3799 82.61 61.3799C72.9284 61.3799 65.08 69.2283 65.08 78.9099C65.08 88.5914 72.9284 96.4399 82.61 96.4399Z" fill="white" stroke="#184B5B" stroke-linecap="round" stroke-linejoin="round"/>
<path d="M86.17 89.3899C86.32 89.3199 86.47 89.2499 86.62 89.1699C89.84 87.2899 91.33 84.4899 91.07 80.7599C90.92 78.6899 90.22 76.8299 89.12 75.0899C88.43 74.0099 87.64 72.9999 86.89 71.9599C85.93 70.6199 85.12 69.2199 84.86 67.5599C84.83 67.3699 84.75 67.3999 84.64 67.4999C84.11 67.9799 83.65 68.5099 83.21 69.0599C81.89 70.7499 81.04 72.6399 80.76 74.7699C80.59 76.0599 80.54 77.3499 80.55 78.6499C80.55 78.7799 80.55 78.9199 80.53 79.0499C80.47 79.4099 80.22 79.5899 79.86 79.5699C78.72 79.5099 77.81 79.0099 77.1 78.1299C76.59 77.4999 76.24 76.7899 75.99 76.0199C75.97 75.9499 75.97 75.8499 75.88 75.8399C75.8 75.8299 75.76 75.9199 75.71 75.9699C75.47 76.2799 75.25 76.5999 75.08 76.9599C74.2 78.8399 73.99 80.8299 74.24 82.8599C74.51 85.0199 75.55 86.7999 77.22 88.1999C77.79 88.6799 78.42 89.0799 79.15 89.3999C79.12 89.3299 79.11 89.2999 79.09 89.2799C78.14 87.7399 78.15 86.1299 78.77 84.4899C78.95 84.0299 79.23 83.6199 79.66 83.3399C80.04 83.0899 80.44 83.2499 80.55 83.6899C80.58 83.8099 80.61 83.9299 80.64 84.0499C80.71 84.2799 80.78 84.5099 80.95 84.6999C80.97 84.6699 81 84.6499 81 84.6299C81.03 84.3399 81.04 84.0499 81.08 83.7599C81.28 82.0899 82.05 80.7399 83.34 79.6799C83.52 79.5299 83.73 79.4599 83.96 79.5699C84.19 79.6799 84.29 79.8699 84.29 80.1099C84.29 80.6799 84.47 81.1899 84.77 81.6599C85.19 82.3299 85.66 82.9699 86.06 83.6499C86.78 84.8699 87.06 86.1899 86.84 87.5999C86.74 88.2299 86.48 88.7999 86.17 89.3699V89.3899Z" stroke="#EAC852" stroke-linecap="round" stroke-linejoin="round"/>
</g>
<defs>
<clipPath id="clip0_246_386">
<rect width="100.64" height="96.94" fill="white"/>
</clipPath>
</defs>
</svg>
