<svg width="54" height="596" viewBox="0 0 54 596" fill="none" xmlns="http://www.w3.org/2000/svg">
<path d="M1.02653 590.411C0.889512 590.404 0.755521 590.454 0.655955 590.548C0.556389 590.642 0.5 590.774 0.5 590.911V590.926V594.016C0.5 594.292 0.723858 594.516 1 594.516H5.14307C5.23879 594.516 5.3325 594.488 5.41307 594.436C5.60556 594.313 5.80059 594.178 5.98685 594.049C6.07603 593.988 6.1632 593.927 6.24713 593.87C6.51575 593.688 6.77217 593.524 7.03583 593.392C7.7937 593.014 8.57108 592.683 9.36442 592.345C9.78123 592.167 10.2024 591.987 10.6276 591.798C11.8416 591.258 13.0522 590.653 14.1203 589.833L14.1209 589.832C20.5125 584.907 23.2357 577.994 23.2357 569.938C23.2357 549.781 23.2318 529.624 23.2279 509.467C23.2164 449 23.2048 388.538 23.2975 328.067C23.3127 317.588 28.2516 309.481 36.95 303.897L36.6799 303.477L36.9501 303.897C41.0853 301.241 45.5921 299.734 50.4928 299.505L50.4982 299.505C50.7655 299.49 50.9896 299.372 51.1621 299.246C51.3356 299.119 51.4919 298.959 51.6279 298.806C51.7325 298.688 51.8381 298.56 51.9359 298.44C51.9648 298.405 51.993 298.37 52.0203 298.337C52.1461 298.185 52.2578 298.055 52.3643 297.951C52.4618 297.856 52.5163 297.726 52.5154 297.59C52.5145 297.454 52.4582 297.324 52.3595 297.23C52.2355 297.113 52.1122 296.979 51.9798 296.833C51.9517 296.801 51.9229 296.769 51.8937 296.737C51.7895 296.621 51.6789 296.497 51.5673 296.38C51.285 296.085 50.9385 295.767 50.5032 295.593C50.0371 295.401 49.5321 295.405 49.1194 295.421C49.0469 295.424 48.9769 295.427 48.9092 295.429C48.5557 295.445 48.2646 295.457 47.9905 295.409L47.9033 295.901L47.9904 295.409C33.2287 292.798 23.2202 280.456 23.2202 265.242C23.2573 201.77 23.2548 138.307 23.2524 74.8388C23.2518 58.9712 23.2511 43.1033 23.2511 27.2348C23.2511 26.9364 23.2527 26.6368 23.2542 26.3363C23.2596 25.2766 23.265 24.206 23.2039 23.1391L23.2039 23.1383C22.9139 18.2117 21.6499 13.9295 19.3062 10.4133C16.9604 6.89388 13.5526 4.1715 9.02568 2.33736C7.75902 1.82222 6.42275 1.50838 5.0927 1.25221C4.57365 1.15224 4.06225 1.06209 3.5554 0.972735C2.74224 0.829381 1.9408 0.688094 1.13828 0.511662C0.990349 0.47914 0.835652 0.515426 0.717613 0.610334C0.599574 0.705241 0.530918 0.848539 0.530918 1V3.71662C0.530918 3.94997 0.692328 4.15229 0.919847 4.20413C1.50674 4.33785 2.08395 4.45221 2.65176 4.56472C3.92478 4.81695 5.15055 5.05982 6.33232 5.49039L6.33239 5.49042C12.0418 7.56964 16.6083 11.0318 18.3119 17.1543L18.312 17.155C19.1739 20.237 19.3293 23.6259 19.3293 26.9243V26.9246C19.3664 87.9123 19.364 148.9 19.3615 209.888C19.3609 225.136 19.3603 240.385 19.3603 255.633C19.3603 256.558 19.3585 257.482 19.3568 258.406C19.3534 260.254 19.35 262.103 19.3603 263.956L19.3603 263.958C19.4227 271.767 21.1396 278.499 24.6208 284.075C28.1031 289.653 33.3299 294.041 40.3549 297.195C40.5028 297.262 40.6512 297.375 40.8675 297.571C40.914 297.613 40.9641 297.66 41.0178 297.71C36.8696 299.117 33.4866 301.289 30.4988 304.024C22.7121 311.149 19.3293 320.217 19.3293 330.845C19.35 378.699 19.3431 426.56 19.3362 474.419C19.3328 498.348 19.3293 522.276 19.3293 546.203C19.3293 549.104 19.3259 552.007 19.3225 554.909C19.3156 560.716 19.3087 566.524 19.3293 572.331C19.3444 577.108 17.5179 581.122 14.434 584.537L14.4337 584.537C10.8393 588.526 6.4032 590.697 1.02653 590.411Z" fill="#184B5B" stroke="#184B5B" stroke-linejoin="round"/>
</svg>
